<svg width="15" height="16" viewBox="0 0 15 16" fill="none" xmlns="http://www.w3.org/2000/svg">
<path fill-rule="evenodd" clip-rule="evenodd" d="M4.43309 1.91085C4.68668 1.79995 4.80236 1.50448 4.69146 1.2509C4.58057 0.997308 4.2851 0.88163 4.03151 0.992521C2.52357 1.65193 1.24407 2.73476 0.342668 4.09048C0.189425 4.32096 0.252037 4.63202 0.482516 4.78527C0.712996 4.93851 1.02406 4.8759 1.17731 4.64542C1.97329 3.44825 3.10315 2.49241 4.43309 1.91085ZM10.8523 0.992521C10.5987 0.88163 10.3032 0.997308 10.1924 1.2509C10.0815 1.50448 10.1971 1.79995 10.4507 1.91085C11.7807 2.49241 12.9105 3.44825 13.7065 4.64542C13.8598 4.8759 14.1708 4.93851 14.4013 4.78527C14.6318 4.63202 14.6944 4.32096 14.5412 4.09048C13.6398 2.73476 12.3602 1.65193 10.8523 0.992521ZM12.1137 12.5897C12.9529 11.5559 13.4557 10.238 13.4557 8.80262C13.4557 5.48133 10.7633 2.78889 7.44198 2.78889C4.12069 2.78889 1.42825 5.48133 1.42825 8.80262C1.42825 10.238 1.93113 11.5559 2.77032 12.5898L1.65941 14.5712C1.52405 14.8126 1.61003 15.118 1.85145 15.2534C2.09286 15.3888 2.3983 15.3028 2.53366 15.0614L3.49757 13.3422C4.55345 14.2604 5.93279 14.8163 7.44198 14.8163C8.9512 14.8163 10.3306 14.2604 11.3865 13.3421L12.3505 15.0614C12.4858 15.3028 12.7913 15.3888 13.0327 15.2534C13.2741 15.118 13.3601 14.8126 13.2247 14.5712L12.1137 12.5897ZM9.7762 7.08803C9.9845 7.27029 10.0056 7.58689 9.82335 7.79519L7.9057 9.98679C7.49363 10.4577 6.78384 10.5208 6.2952 10.1299L5.12398 9.19289C4.90786 9.01999 4.87282 8.70463 5.04572 8.4885C5.21862 8.27238 5.53398 8.23734 5.75011 8.41024L6.92133 9.34721C6.99113 9.40306 7.09253 9.39405 7.1514 9.32677L9.06905 7.13518C9.25131 6.92688 9.56791 6.90578 9.7762 7.08803Z" fill="white"/>
</svg>
