<svg width="21" height="20" viewBox="0 0 21 20" fill="none" xmlns="http://www.w3.org/2000/svg">
<path d="M13.0078 4.69627L17.722 9.41044C17.8782 9.56671 17.9659 9.77863 17.9659 9.9996C17.9659 10.2206 17.8782 10.4325 17.722 10.5888L13.0078 15.3029C12.8506 15.4547 12.6401 15.5387 12.4216 15.5368C12.2031 15.5349 11.9941 15.4473 11.8396 15.2928C11.6851 15.1383 11.5975 14.9293 11.5956 14.7108C11.5937 14.4923 11.6777 14.2818 11.8295 14.1246L15.1211 10.8329H4.08529C3.86427 10.8329 3.65231 10.7451 3.49603 10.5889C3.33975 10.4326 3.25195 10.2206 3.25195 9.9996C3.25195 9.77859 3.33975 9.56663 3.49603 9.41035C3.65231 9.25407 3.86427 9.16627 4.08529 9.16627H15.1211L11.8295 5.8746C11.7499 5.79773 11.6864 5.70578 11.6427 5.60411C11.599 5.50244 11.576 5.39309 11.5751 5.28244C11.5741 5.17179 11.5952 5.06206 11.6371 4.95964C11.679 4.85723 11.7409 4.76419 11.8191 4.68594C11.8974 4.6077 11.9904 4.54582 12.0928 4.50392C12.1952 4.46202 12.305 4.44093 12.4156 4.4419C12.5263 4.44286 12.6356 4.46585 12.7373 4.50952C12.839 4.55319 12.9309 4.61668 13.0078 4.69627Z" fill="white"/>
</svg>
