<svg width="29" height="39" viewBox="0 0 29 39" fill="none" xmlns="http://www.w3.org/2000/svg">
<path d="M17.7502 18.3708H4.19714L8.34534 13.3884C8.53931 13.155 8.63263 12.8541 8.60477 12.552C8.57691 12.2498 8.43015 11.9711 8.19678 11.7771C7.96341 11.5831 7.66254 11.4898 7.36037 11.5177C7.05819 11.5455 6.77946 11.6923 6.58549 11.9256L0.87172 18.7822C0.833279 18.8367 0.798903 18.894 0.768872 18.9536C0.768872 19.0107 0.768873 19.045 0.68888 19.1021C0.637083 19.2332 0.609962 19.3726 0.608887 19.5135C0.609962 19.6544 0.637083 19.7939 0.68888 19.9249C0.68888 19.9821 0.688879 20.0163 0.768872 20.0735C0.798903 20.1331 0.833279 20.1904 0.87172 20.2449L6.58549 27.1014C6.69294 27.2304 6.82749 27.3342 6.97957 27.4053C7.13165 27.4764 7.29753 27.5131 7.46542 27.5128C7.73242 27.5133 7.99118 27.4203 8.19678 27.25C8.31249 27.154 8.40814 27.0362 8.47825 26.9033C8.54836 26.7703 8.59156 26.6248 8.60536 26.4752C8.61915 26.3255 8.60329 26.1746 8.55867 26.031C8.51405 25.8875 8.44156 25.7542 8.34534 25.6387L4.19714 20.6563H17.7502C18.0533 20.6563 18.344 20.5359 18.5583 20.3216C18.7726 20.1073 18.893 19.8166 18.893 19.5135C18.893 19.2105 18.7726 18.9198 18.5583 18.7055C18.344 18.4912 18.0533 18.3708 17.7502 18.3708Z" fill="white"/>
</svg>
