<svg width="30" height="62" viewBox="0 0 30 62" fill="none" xmlns="http://www.w3.org/2000/svg">
<path fill-rule="evenodd" clip-rule="evenodd" d="M12.0832 21.2282C13.7712 20.1029 15.9883 21.1346 16.3172 23.0293H19.6086C21.1274 23.0293 22.3586 24.2606 22.3586 25.7793C22.3586 26.1936 22.0229 26.5293 21.6086 26.5293C21.1944 26.5293 20.8586 26.1936 20.8586 25.7793C20.8586 25.089 20.299 24.5293 19.6086 24.5293H16.3586V37.0293H19.6086C20.299 37.0293 20.8586 36.4697 20.8586 35.7793C20.8586 35.3651 21.1944 35.0293 21.6086 35.0293C22.0229 35.0293 22.3586 35.3651 22.3586 35.7793C22.3586 37.2981 21.1274 38.5293 19.6086 38.5293H16.3172C15.9883 40.4241 13.7712 41.4557 12.0832 40.3304L10.0832 38.9971C9.31817 38.4871 8.85864 37.6284 8.85864 36.709V24.8497C8.85864 23.9302 9.31817 23.0716 10.0832 22.5616L12.0832 21.2282ZM23.0783 33.0433C22.7854 32.7504 22.7854 32.2756 23.0783 31.9827L23.798 31.263H18.6086C18.1944 31.263 17.8586 30.9272 17.8586 30.513C17.8586 30.0988 18.1944 29.763 18.6086 29.763H23.798L23.0783 29.0433C22.7854 28.7504 22.7854 28.2756 23.0783 27.9827C23.3712 27.6898 23.8461 27.6898 24.1389 27.9827L25.4318 29.2756C26.1153 29.959 26.1153 31.067 25.4318 31.7504L24.1389 33.0433C23.8461 33.3362 23.3712 33.3362 23.0783 33.0433Z" fill="white"/>
</svg>
