<svg width="178" height="159" viewBox="0 0 178 159" fill="none" xmlns="http://www.w3.org/2000/svg">
<path d="M66.4463 11.3447H73.1318V39.707H66.4463V11.3447ZM83.8984 22.4805V33.5342C83.8984 34.3271 84.1035 34.9287 84.5137 35.3389C84.9238 35.749 85.6074 35.9541 86.5645 35.9541H91.5479V39.707H83.4883C81.4238 39.707 79.8652 39.0918 78.8125 37.8613C77.7598 36.6309 77.2334 35.0518 77.2334 33.124V13.416H83.8984V18.7275H89.415V22.4805H83.8984ZM100.059 29.7197C96.5723 28.626 94.8291 26.7461 94.8291 24.0801C94.8291 22.5625 95.3555 21.291 96.4082 20.2656C97.4609 19.2402 98.9922 18.7275 101.002 18.7275H105.78C107.79 18.7275 109.321 19.2744 110.374 20.3682C111.427 21.4619 111.953 22.9043 111.953 24.6953V25.8848H105.288V24.4902C105.288 23.6973 105.117 23.0957 104.775 22.6855C104.434 22.2754 103.969 22.0703 103.381 22.0703C102.807 22.0703 102.349 22.2754 102.007 22.6855C101.665 23.0957 101.494 23.6973 101.494 24.4902C101.494 25.8164 102.26 26.7188 103.791 27.1973L106.724 28.1201C110.21 29.2139 111.953 31.1484 111.953 33.9238C111.953 35.5781 111.427 36.9521 110.374 38.0459C109.321 39.1396 107.79 39.6865 105.78 39.6865H101.002C98.9922 39.6865 97.4609 39.1396 96.4082 38.0459C95.3555 36.9521 94.8291 35.5098 94.8291 33.7188V32.5293H101.494V33.7188C101.494 34.5117 101.665 35.1475 102.007 35.626C102.349 36.1045 102.807 36.3438 103.381 36.3438C103.969 36.3438 104.434 36.1045 104.775 35.626C105.117 35.1475 105.288 34.5117 105.288 33.7188C105.288 32.1465 104.522 31.1211 102.991 30.6426L100.059 29.7197Z" fill="white"/>
<mask id="path-2-outside-1_697_15575" maskUnits="userSpaceOnUse" x="2.875" y="53.707" width="173" height="57" fill="black">
<rect fill="white" x="2.875" y="53.707" width="173" height="57"/>
<path d="M39.418 87.6738V96.5859C39.418 99.9121 38.4404 102.591 36.4854 104.622C34.5303 106.653 31.6865 107.669 27.9541 107.669H16.0332C12.3008 107.669 9.45703 106.653 7.50195 104.622C5.54688 102.591 4.56934 99.9121 4.56934 96.5859V66.1553C4.56934 62.8291 5.54688 60.1504 7.50195 58.1191C9.45703 56.0879 12.3008 55.0723 16.0332 55.0723H27.9541C31.6865 55.0723 34.5303 56.0879 36.4854 58.1191C38.4404 60.1504 39.418 62.8291 39.418 66.1553V72.249H27.04V67.2979C27.04 65.5713 26.5957 64.1367 25.707 62.9941C24.8184 61.8516 23.5742 61.2803 21.9746 61.2803C20.4004 61.2803 19.1689 61.8516 18.2803 62.9941C17.3916 64.1367 16.9473 65.5713 16.9473 67.2979V95.0625C16.9473 96.7891 17.3916 98.2871 18.2803 99.5566C19.1689 100.826 20.4004 101.461 21.9746 101.461C23.5742 101.461 24.8184 100.826 25.707 99.5566C26.5957 98.2871 27.04 96.7891 27.04 95.0625V88.8164C27.04 87.8516 26.8496 87.1787 26.4688 86.7979C26.0879 86.417 25.5166 86.2266 24.7549 86.2266H21.5938V80.0186H31.6104C34.1748 80.0186 36.1172 80.7168 37.4375 82.1133C38.7578 83.5098 39.418 85.3633 39.418 87.6738ZM69.0107 81.999V67.6787C69.0107 65.9521 68.5664 64.4541 67.6777 63.1846C66.7891 61.915 65.5576 61.2803 63.9834 61.2803H58.918V81.999H69.0107ZM58.918 88.5879V107.669H46.54V55.0723H69.9248C73.6572 55.0723 76.501 56.0879 78.4561 58.1191C80.4111 60.1504 81.3887 62.8291 81.3887 66.1553V107.669H69.0107V88.5879H58.918ZM137.07 107.707H124.654V77.0479L111.591 107.707L98.5273 77.0479V107.707H88.6631V55.0342H92.7764C97.6514 55.0342 101.231 57.3701 103.517 62.042L113.114 82.9131L122.217 62.042C124.502 57.3701 128.082 55.0342 132.957 55.0342H137.07V107.707ZM174.28 55.0723V62.4229H157.027V76.5527H172.376V83.1416H157.027V95.8623C157.027 97.335 157.345 98.4521 157.979 99.2139C158.614 99.9756 159.566 100.356 160.836 100.356H174.28V107.707H155.123C151.543 107.707 148.902 106.755 147.201 104.851C145.5 102.946 144.649 100.204 144.649 96.624V55.0723H174.28Z"/>
</mask>
<path d="M39.418 72.249V73.2754H40.4444V72.249H39.418ZM27.04 72.249H26.0136V73.2754H27.04V72.249ZM21.5938 86.2266H20.5674V87.253H21.5938V86.2266ZM21.5938 80.0186V78.9922H20.5674V80.0186H21.5938ZM38.3916 87.6738V96.5859H40.4444V87.6738H38.3916ZM38.3916 96.5859C38.3916 99.6977 37.4843 102.104 35.7458 103.91L37.2249 105.334C39.3966 103.077 40.4444 100.126 40.4444 96.5859H38.3916ZM35.7458 103.91C34.0411 105.682 31.5017 106.643 27.9541 106.643V108.695C31.8714 108.695 35.0195 107.625 37.2249 105.334L35.7458 103.91ZM27.9541 106.643H16.0332V108.695H27.9541V106.643ZM16.0332 106.643C12.4856 106.643 9.94625 105.682 8.24146 103.91L6.76245 105.334C8.96781 107.625 12.1159 108.695 16.0332 108.695V106.643ZM8.24146 103.91C6.50305 102.104 5.59573 99.6977 5.59573 96.5859H3.54294C3.54294 100.126 4.5907 103.077 6.76245 105.334L8.24146 103.91ZM5.59573 96.5859V66.1553H3.54294V96.5859H5.59573ZM5.59573 66.1553C5.59573 63.0435 6.50305 60.6371 8.24146 58.8309L6.76245 57.4074C4.5907 59.6637 3.54294 62.6147 3.54294 66.1553H5.59573ZM8.24146 58.8309C9.94625 57.0597 12.4856 56.0987 16.0332 56.0987V54.0459C12.1159 54.0459 8.96781 55.1161 6.76245 57.4074L8.24146 58.8309ZM16.0332 56.0987H27.9541V54.0459H16.0332V56.0987ZM27.9541 56.0987C31.5017 56.0987 34.0411 57.0597 35.7458 58.8309L37.2249 57.4074C35.0195 55.1161 31.8714 54.0459 27.9541 54.0459V56.0987ZM35.7458 58.8309C37.4843 60.6371 38.3916 63.0435 38.3916 66.1553H40.4444C40.4444 62.6147 39.3966 59.6637 37.2249 57.4074L35.7458 58.8309ZM38.3916 66.1553V72.249H40.4444V66.1553H38.3916ZM39.418 71.2226H27.04V73.2754H39.418V71.2226ZM28.0664 72.249V67.2979H26.0136V72.249H28.0664ZM28.0664 67.2979C28.0664 65.3886 27.5716 63.7197 26.5172 62.364L24.8968 63.6243C25.6198 64.5538 26.0136 65.754 26.0136 67.2979H28.0664ZM26.5172 62.364C25.4118 60.9428 23.8528 60.2539 21.9746 60.2539V62.3067C23.2956 62.3067 24.2249 62.7603 24.8968 63.6243L26.5172 62.364ZM21.9746 60.2539C20.1156 60.2539 18.572 60.9473 17.4701 62.364L19.0905 63.6243C19.7659 62.7559 20.6852 62.3067 21.9746 62.3067V60.2539ZM17.4701 62.364C16.4157 63.7197 15.9209 65.3886 15.9209 67.2979H17.9737C17.9737 65.754 18.3675 64.5538 19.0905 63.6243L17.4701 62.364ZM15.9209 67.2979V95.0625H17.9737V67.2979H15.9209ZM15.9209 95.0625C15.9209 96.9746 16.4164 98.6837 17.4394 100.145L19.1211 98.968C18.3668 97.8905 17.9737 96.6036 17.9737 95.0625H15.9209ZM17.4394 100.145C18.5238 101.694 20.0718 102.487 21.9746 102.487V100.435C20.729 100.435 19.8141 99.958 19.1211 98.968L17.4394 100.145ZM21.9746 102.487C23.8963 102.487 25.4599 101.7 26.5479 100.145L24.8662 98.968C24.1768 99.9528 23.2521 100.435 21.9746 100.435V102.487ZM26.5479 100.145C27.571 98.6837 28.0664 96.9746 28.0664 95.0625H26.0136C26.0136 96.6036 25.6205 97.8905 24.8662 98.968L26.5479 100.145ZM28.0664 95.0625V88.8164H26.0136V95.0625H28.0664ZM28.0664 88.8164C28.0664 87.7765 27.8728 86.7503 27.1945 86.0721L25.743 87.5236C25.8264 87.6071 26.0136 87.9266 26.0136 88.8164H28.0664ZM27.1945 86.0721C26.5533 85.4308 25.6748 85.2002 24.7549 85.2002V87.253C25.3584 87.253 25.6225 87.4031 25.743 87.5236L27.1945 86.0721ZM24.7549 85.2002H21.5938V87.253H24.7549V85.2002ZM22.6201 86.2266V80.0186H20.5674V86.2266H22.6201ZM21.5938 81.045H31.6104V78.9922H21.5938V81.045ZM31.6104 81.045C33.9909 81.045 35.6238 81.6889 36.6917 82.8184L38.1833 81.4081C36.6106 79.7447 34.3587 78.9922 31.6104 78.9922V81.045ZM36.6917 82.8184C37.7965 83.987 38.3916 85.5693 38.3916 87.6738H40.4444C40.4444 85.1573 39.7191 83.0325 38.1833 81.4081L36.6917 82.8184ZM69.0107 81.999V83.0254H70.0371V81.999H69.0107ZM58.918 61.2803V60.2539H57.8916V61.2803H58.918ZM58.918 81.999H57.8916V83.0254H58.918V81.999ZM58.918 88.5879V87.5615H57.8916V88.5879H58.918ZM58.918 107.669V108.695H59.9444V107.669H58.918ZM46.54 107.669H45.5136V108.695H46.54V107.669ZM46.54 55.0723V54.0459H45.5136V55.0723H46.54ZM81.3887 107.669V108.695H82.4151V107.669H81.3887ZM69.0107 107.669H67.9843V108.695H69.0107V107.669ZM69.0107 88.5879H70.0371V87.5615H69.0107V88.5879ZM70.0371 81.999V67.6787H67.9843V81.999H70.0371ZM70.0371 67.6787C70.0371 65.7666 69.5417 64.0575 68.5186 62.596L66.8369 63.7732C67.5912 64.8507 67.9843 66.1377 67.9843 67.6787H70.0371ZM68.5186 62.596C67.4342 61.0469 65.8862 60.2539 63.9834 60.2539V62.3067C65.229 62.3067 66.1439 62.7832 66.8369 63.7732L68.5186 62.596ZM63.9834 60.2539H58.918V62.3067H63.9834V60.2539ZM57.8916 61.2803V81.999H59.9444V61.2803H57.8916ZM58.918 83.0254H69.0107V80.9726H58.918V83.0254ZM57.8916 88.5879V107.669H59.9444V88.5879H57.8916ZM58.918 106.643H46.54V108.695H58.918V106.643ZM47.5664 107.669V55.0723H45.5136V107.669H47.5664ZM46.54 56.0987H69.9248V54.0459H46.54V56.0987ZM69.9248 56.0987C73.4724 56.0987 76.0118 57.0597 77.7165 58.8309L79.1956 57.4074C76.9902 55.1161 73.8421 54.0459 69.9248 54.0459V56.0987ZM77.7165 58.8309C79.455 60.6371 80.3623 63.0435 80.3623 66.1553H82.4151C82.4151 62.6147 81.3673 59.6637 79.1956 57.4074L77.7165 58.8309ZM80.3623 66.1553V107.669H82.4151V66.1553H80.3623ZM81.3887 106.643H69.0107V108.695H81.3887V106.643ZM70.0371 107.669V88.5879H67.9843V107.669H70.0371ZM69.0107 87.5615H58.918V89.6143H69.0107V87.5615ZM137.07 107.707V108.733H138.097V107.707H137.07ZM124.654 107.707H123.628V108.733H124.654V107.707ZM124.654 77.0479H125.681L123.71 76.6455L124.654 77.0479ZM111.591 107.707L110.647 108.109L111.591 110.325L112.535 108.109L111.591 107.707ZM98.5273 77.0479L99.4716 76.6455L97.5009 77.0479H98.5273ZM98.5273 107.707V108.733H99.5537V107.707H98.5273ZM88.6631 107.707H87.6367V108.733H88.6631V107.707ZM88.6631 55.0342V54.0078H87.6367V55.0342H88.6631ZM103.517 62.042L104.449 61.6132L104.444 61.602L104.439 61.591L103.517 62.042ZM113.114 82.9131L112.182 83.3419L113.139 85.4237L114.055 83.3234L113.114 82.9131ZM122.217 62.042L121.295 61.591L121.285 61.6111L121.276 61.6317L122.217 62.042ZM137.07 55.0342H138.097V54.0078H137.07V55.0342ZM137.07 106.681H124.654V108.733H137.07V106.681ZM125.681 107.707V77.0479H123.628V107.707H125.681ZM123.71 76.6455L110.647 107.305L112.535 108.109L125.599 77.4502L123.71 76.6455ZM112.535 107.305L99.4716 76.6455L97.5831 77.4502L110.647 108.109L112.535 107.305ZM97.5009 77.0479V107.707H99.5537V77.0479H97.5009ZM98.5273 106.681H88.6631V108.733H98.5273V106.681ZM89.6895 107.707V55.0342H87.6367V107.707H89.6895ZM88.6631 56.0606H92.7764V54.0078H88.6631V56.0606ZM92.7764 56.0606C95.0434 56.0606 96.9561 56.6013 98.5568 57.6457C100.161 58.6927 101.516 60.2873 102.595 62.493L104.439 61.591C103.232 59.1248 101.654 57.2155 99.6786 55.9265C97.6991 54.635 95.3843 54.0078 92.7764 54.0078V56.0606ZM102.584 62.4708L112.182 83.3419L114.047 82.4843L104.449 61.6132L102.584 62.4708ZM114.055 83.3234L123.158 62.4523L121.276 61.6317L112.173 82.5028L114.055 83.3234ZM123.139 62.493C124.218 60.2873 125.572 58.6927 127.177 57.6457C128.777 56.6013 130.69 56.0606 132.957 56.0606V54.0078C130.349 54.0078 128.034 54.635 126.055 55.9265C124.079 57.2155 122.501 59.1248 121.295 61.591L123.139 62.493ZM132.957 56.0606H137.07V54.0078H132.957V56.0606ZM136.044 55.0342V107.707H138.097V55.0342H136.044ZM174.28 55.0723H175.307V54.0459H174.28V55.0723ZM174.28 62.4229V63.4492H175.307V62.4229H174.28ZM157.027 62.4229V61.3965H156.001V62.4229H157.027ZM157.027 76.5527H156.001V77.5791H157.027V76.5527ZM172.376 76.5527H173.402V75.5263H172.376V76.5527ZM172.376 83.1416V84.168H173.402V83.1416H172.376ZM157.027 83.1416V82.1152H156.001V83.1416H157.027ZM174.28 100.356H175.307V99.33H174.28V100.356ZM174.28 107.707V108.733H175.307V107.707H174.28ZM144.649 55.0723V54.0459H143.623V55.0723H144.649ZM173.254 55.0723V62.4229H175.307V55.0723H173.254ZM174.28 61.3965H157.027V63.4492H174.28V61.3965ZM156.001 62.4229V76.5527H158.054V62.4229H156.001ZM157.027 77.5791H172.376V75.5263H157.027V77.5791ZM171.35 76.5527V83.1416H173.402V76.5527H171.35ZM172.376 82.1152H157.027V84.168H172.376V82.1152ZM156.001 83.1416V95.8623H158.054V83.1416H156.001ZM156.001 95.8623C156.001 97.4624 156.343 98.8536 157.191 99.8709L158.768 98.5568C158.346 98.0507 158.054 97.2075 158.054 95.8623H156.001ZM157.191 99.8709C158.073 100.929 159.354 101.383 160.836 101.383V99.33C159.779 99.33 159.156 99.0218 158.768 98.5568L157.191 99.8709ZM160.836 101.383H174.28V99.33H160.836V101.383ZM173.254 100.356V107.707H175.307V100.356H173.254ZM174.28 106.681H155.123V108.733H174.28V106.681ZM155.123 106.681C151.714 106.681 149.405 105.777 147.967 104.167L146.436 105.534C148.4 107.733 151.372 108.733 155.123 108.733V106.681ZM147.967 104.167C146.491 102.514 145.676 100.053 145.676 96.624H143.623C143.623 100.355 144.509 103.378 146.436 105.534L147.967 104.167ZM145.676 96.624V55.0723H143.623V96.624H145.676ZM144.649 56.0987H174.28V54.0459H144.649V56.0987Z" fill="white" mask="url(#path-2-outside-1_697_15575)"/>
<path d="M68.0723 121.365C68.0723 122.787 67.6895 123.915 66.9238 124.749C66.1719 125.583 65.126 126 63.7861 126H60.9355V149.707H54.25V126H47.1133C47.1133 124.564 47.4893 123.437 48.2412 122.616C49.0068 121.782 50.0596 121.365 51.3994 121.365H68.0723ZM77.5674 128.728V149.707H70.8818V128.728H77.5674ZM70.8818 126.287V122.083H77.5674V126.287H70.8818ZM92.0459 135.105C92.0459 134.039 91.8408 133.267 91.4307 132.788C91.0205 132.31 90.4736 132.07 89.79 132.07C89.1064 132.07 88.6279 132.241 88.3545 132.583V149.707H81.6689V128.728H99.9619C103.53 128.728 105.943 129.377 107.201 130.676C108.459 131.975 109.088 133.52 109.088 135.311V149.707H102.423V135.105C102.423 134.039 102.218 133.267 101.808 132.788C101.397 132.31 100.851 132.07 100.167 132.07C99.4834 132.07 99.0049 132.241 98.7314 132.583V149.707H92.0459V135.105ZM119.711 140.273V143.719C119.711 144.512 119.882 145.147 120.224 145.626C120.565 146.104 121.023 146.344 121.598 146.344C122.186 146.344 122.65 146.104 122.992 145.626C123.334 145.147 123.505 144.512 123.505 143.719V142.529H130.17V143.719C130.17 145.51 129.644 146.952 128.591 148.046C127.538 149.14 126.007 149.687 123.997 149.687H119.219C117.209 149.687 115.678 149.14 114.625 148.046C113.572 146.952 113.046 145.51 113.046 143.719V134.695C113.046 132.904 113.572 131.462 114.625 130.368C115.678 129.274 117.209 128.728 119.219 128.728H123.997C126.007 128.728 127.538 129.274 128.591 130.368C129.644 131.462 130.17 132.904 130.17 134.695C130.17 138.414 126.684 140.273 119.711 140.273ZM119.711 137.648C122.24 137.648 123.505 136.596 123.505 134.49C123.505 133.697 123.334 133.096 122.992 132.686C122.65 132.275 122.186 132.07 121.598 132.07C121.023 132.07 120.565 132.275 120.224 132.686C119.882 133.096 119.711 133.697 119.711 134.49V137.648Z" fill="white"/>
</svg>
