<svg width="217" height="53" viewBox="0 0 217 53" fill="none" xmlns="http://www.w3.org/2000/svg">
<g filter="url(#filter0_d_697_15725)">
<g filter="url(#filter1_d_697_15725)">
<path d="M16.4399 40.2851C13.8181 40.2851 11.7032 39.8307 10.0951 38.9218C8.4871 37.9779 7.31603 36.702 6.58192 35.094C5.88278 33.4859 5.5332 31.6332 5.5332 29.5357H12.4548C12.4548 30.7243 12.6995 31.773 13.1889 32.6819C13.7132 33.5558 14.7095 33.9928 16.1777 33.9928C17.4362 33.9928 18.3626 33.6083 18.9568 32.8392C19.5511 32.0352 19.8482 30.4621 19.8482 28.12V15.7975H13.6608V10.2393H27.1893V26.8615C27.1893 28.889 27.0495 30.7418 26.7698 32.4197C26.5251 34.0627 26.0357 35.4785 25.3016 36.667C24.5675 37.8206 23.4838 38.712 22.0506 39.3413C20.6523 39.9705 18.782 40.2851 16.4399 40.2851Z" fill="url(#paint0_linear_697_15725)"/>
<path d="M8.83249 41.073L8.85005 41.0833L8.86777 41.0933C10.9748 42.2842 13.5582 42.7795 16.4399 42.7795C18.962 42.7795 21.2211 42.4472 23.0636 41.6207C24.8775 40.8223 26.3714 39.632 27.406 38.0062L27.415 37.9921L27.4238 37.9778C28.3624 36.4582 28.9473 34.7158 29.2337 32.8089C29.5374 30.9784 29.6837 28.993 29.6837 26.8615V10.2393V7.74491H27.1893H13.6608H11.1664V10.2393V15.7975V18.2919H13.6608H17.3539V28.12C17.3539 29.2 17.2842 30.0118 17.1744 30.5934C17.0834 31.0749 16.9851 31.2876 16.9568 31.3436C16.9371 31.362 16.9095 31.3801 16.8601 31.4006C16.7665 31.4395 16.5594 31.4984 16.1777 31.4984C15.6747 31.4984 15.4237 31.4213 15.3312 31.3808C15.3281 31.3794 15.3252 31.3781 15.3225 31.3768C15.0928 30.9022 14.9491 30.3067 14.9491 29.5357V27.0414H12.4548H5.5332H3.03884V29.5357C3.03884 31.9095 3.43479 34.1114 4.29441 36.0885L4.30343 36.1093L4.31283 36.1299C5.27187 38.2306 6.808 39.8847 8.83249 41.073Z" stroke="white" stroke-width="4.98874"/>
</g>
<g filter="url(#filter2_d_697_15725)">
<path d="M42.1312 33.9404H57.8621V39.7608H34.9475V10.2393H57.2853V16.4792H42.1312V21.8801H53.405V27.7529H42.1312V33.9404Z" fill="url(#paint1_linear_697_15725)"/>
<path d="M60.3564 33.9404V31.446H57.8621H44.6256V30.2473H53.405H55.8994V27.7529V21.8801V19.3857H53.405H44.6256V18.9735H57.2853H59.7796V16.4792V10.2393V7.74491H57.2853H34.9475H32.4531V10.2393V39.7608V42.2551H34.9475H57.8621H60.3564V39.7608V33.9404Z" stroke="white" stroke-width="4.98874"/>
</g>
<g filter="url(#filter3_d_697_15725)">
<path d="M62.3945 39.7608V10.2393H74.4024C78.2477 10.2393 81.289 10.9209 83.5263 12.2843C85.7635 13.6476 86.8822 15.9373 86.8822 19.1534C86.8822 21.8102 86.2879 23.8726 85.0993 25.3409C83.9457 26.8091 82.3727 27.5432 80.3801 27.5432C81.3589 27.5432 82.093 27.7704 82.5824 28.2248C83.1068 28.6443 83.4738 29.2036 83.6836 29.9028C83.9283 30.567 84.1205 31.2486 84.2604 31.9478C84.4002 32.6469 84.5925 33.2762 84.8372 33.8355C85.0819 34.3599 85.4664 34.7094 85.9908 34.8842C86.5501 35.024 87.3366 34.8842 88.3504 34.4647V38.4499C87.3716 39.2888 86.2879 39.8307 85.0993 40.0754C83.9108 40.355 82.7747 40.2851 81.691 39.8656C80.6423 39.4811 79.7683 38.7295 79.0692 37.6109C78.3701 36.4573 78.0205 34.9017 78.0205 32.9441C78.0205 32.1051 77.9506 31.3535 77.8107 30.6893C77.7059 29.9902 77.3912 29.4134 76.8669 28.9589C76.3425 28.5045 75.521 28.2074 74.4024 28.0675C73.2838 27.8927 71.7282 27.8927 69.7356 28.0675V39.7608H62.3945ZM69.7356 22.9288H73.4061C75.0141 22.9288 76.325 22.9113 77.3388 22.8764C78.3526 22.8414 79.1042 22.6142 79.5936 22.1947C80.1179 21.7402 80.3801 20.9362 80.3801 19.7826C80.3801 18.4892 80.0655 17.5978 79.4362 17.1084C78.842 16.584 77.9506 16.2869 76.762 16.217C75.6084 16.1471 74.1752 16.1121 72.4623 16.1121H69.7356V22.9288Z" fill="url(#paint2_linear_697_15725)"/>
<path d="M59.9002 39.7608V42.2551H62.3945H69.7356H72.2299V39.7608V30.4316C72.9819 30.4249 73.5724 30.4625 74.0173 30.532L74.0551 30.5379L74.093 30.5426C74.5185 30.5958 74.8144 30.6705 75.0091 30.7409C75.1665 30.7978 75.2292 30.8416 75.2367 30.8469C75.2838 30.8883 75.2997 30.9147 75.3063 30.9268C75.3134 30.9399 75.3316 30.9766 75.344 31.0593L75.3548 31.1317L75.3699 31.2032C75.467 31.6644 75.5261 32.2391 75.5261 32.9441C75.5261 35.1639 75.9171 37.2226 76.936 38.9037L76.9449 38.9184L76.954 38.9329C77.8878 40.427 79.1621 41.5892 80.811 42.1997C82.3713 42.799 84.0031 42.8892 85.6364 42.5114C87.2511 42.1729 88.7036 41.4324 89.9737 40.3437L90.8447 39.5971V38.4499V34.4647V30.7331L87.3967 32.1599C87.2164 32.2345 87.0621 32.2906 86.932 32.3324C86.8473 32.0729 86.7711 31.7826 86.7063 31.4586C86.5459 30.6567 86.3267 29.8725 86.0485 29.1071C85.9562 28.8129 85.8441 28.5279 85.7118 28.254C86.1944 27.8656 86.6417 27.4131 87.0495 26.8962C88.7105 24.8358 89.3765 22.1463 89.3765 19.1534C89.3765 15.2969 87.9816 12.0782 84.8243 10.1542C82.0541 8.46617 78.5047 7.74491 74.4024 7.74491H62.3945H59.9002V10.2393V39.7608ZM77.7859 18.9788L77.7968 18.9884C77.8326 19.0972 77.8857 19.3422 77.8857 19.7826C77.8857 20.0256 77.8684 20.1992 77.8489 20.3162C77.7206 20.3455 77.5272 20.374 77.2528 20.3835C76.2792 20.417 74.9999 20.4344 73.4061 20.4344H72.2299V18.6065H72.4623C74.1463 18.6065 75.5254 18.641 76.6111 18.7068L76.6155 18.707C77.5145 18.7599 77.7735 18.9678 77.7859 18.9788Z" stroke="white" stroke-width="4.98874"/>
</g>
<g filter="url(#filter4_d_697_15725)">
<path d="M104.874 40.2851C103.196 40.2851 101.553 40.0928 99.9452 39.7083C98.3371 39.3237 96.8864 38.712 95.593 37.873C94.2995 36.9991 93.2508 35.8804 92.4468 34.5171C91.6777 33.1538 91.2932 31.5108 91.2932 29.5881H98.6343C98.6343 29.7979 98.7042 30.13 98.844 30.5844C99.0188 31.0039 99.3334 31.4583 99.7878 31.9477C100.277 32.4371 100.959 32.8566 101.833 33.2062C102.742 33.5208 103.948 33.6781 105.451 33.6781C106.115 33.6781 106.797 33.6257 107.496 33.5208C108.195 33.416 108.789 33.2062 109.279 32.8916C109.768 32.542 110.013 32.0177 110.013 31.3185C110.013 30.5844 109.663 30.0076 108.964 29.5881C108.3 29.1686 107.409 28.8365 106.29 28.5918C105.206 28.3122 104 28.0325 102.672 27.7529C101.378 27.4732 100.085 27.1236 98.7916 26.7041C97.4981 26.2846 96.3096 25.7253 95.2259 25.0262C94.1772 24.2921 93.3557 23.3657 92.7614 22.2471C92.2021 21.0935 91.9749 19.6602 92.0798 17.9473C92.2545 15.3605 93.478 13.3504 95.7503 11.9172C98.0225 10.449 101.186 9.71486 105.241 9.71486C107.409 9.71486 109.436 10.0994 111.324 10.8685C113.246 11.6375 114.802 12.8086 115.991 14.3817C117.214 15.9547 117.826 17.9473 117.826 20.3594H110.747C110.747 19.2757 110.38 18.4717 109.646 17.9473C108.947 17.388 108.09 17.0209 107.076 16.8462C106.098 16.6714 105.206 16.584 104.402 16.584C103.109 16.584 102.025 16.7413 101.151 17.0559C100.312 17.3705 99.8927 17.9823 99.8927 18.8912C99.8927 19.6952 100.242 20.3244 100.941 20.7789C101.641 21.1984 102.549 21.5479 103.668 21.8276C104.787 22.0723 106.01 22.3345 107.339 22.6141C108.702 22.8588 110.048 23.1734 111.376 23.558C112.705 23.9425 113.893 24.4843 114.942 25.1835C116.026 25.8477 116.865 26.7391 117.459 27.8577C118.088 28.9764 118.333 30.4096 118.193 32.1575C118.018 34.7094 116.725 36.7019 114.313 38.1352C111.936 39.5684 108.789 40.2851 104.874 40.2851Z" fill="url(#paint3_linear_697_15725)"/>
<path d="M94.1965 39.9398L94.2159 39.9529L94.2356 39.9657C95.7839 40.97 97.5009 41.6885 99.365 42.1342C101.166 42.5649 103.004 42.7794 104.874 42.7794C109.063 42.7794 112.701 42.0173 115.594 40.2754C118.622 38.4738 120.44 35.7909 120.68 32.3425C120.843 30.2923 120.58 28.3349 119.648 26.6617C118.852 25.1744 117.721 23.9709 116.287 23.0823C116.169 23.0044 116.05 22.9282 115.93 22.8537H117.826H120.32V20.3594C120.32 17.5192 119.594 14.9589 117.97 12.8643C116.497 10.919 114.571 9.48234 112.258 8.55543C110.055 7.65908 107.708 7.22049 105.241 7.22049C100.936 7.22049 97.2363 7.99156 94.408 9.81471C91.4977 11.6548 89.8215 14.3685 89.5911 17.7792L89.5905 17.787L89.59 17.7949C89.4675 19.796 89.7179 21.6873 90.517 23.3353L90.537 23.3767L90.5586 23.4173C91.3398 24.8878 92.4275 26.1121 93.7955 27.0696L93.8299 27.0938H91.2932H88.7988V29.5881C88.7988 31.843 89.2511 33.9289 90.2743 35.7426L90.286 35.7635L90.2982 35.7842C91.2877 37.4621 92.5917 38.8555 94.1965 39.9398ZM108.204 19.9832C108.212 20.0024 108.24 20.0798 108.25 20.2461C108.105 20.2186 107.961 20.1918 107.817 20.1657C106.522 19.8931 105.33 19.6376 104.239 19.399C103.894 19.3119 103.589 19.221 103.321 19.1286C103.64 19.0965 103.999 19.0783 104.402 19.0783C105.03 19.0783 105.771 19.147 106.638 19.3017L106.645 19.303L106.653 19.3043C107.314 19.4182 107.764 19.6359 108.088 19.8951L108.141 19.9376L108.196 19.9771C108.199 19.9795 108.202 19.9815 108.204 19.9832ZM101.579 30.2109C101.518 30.1441 101.466 30.0829 101.42 30.0273C101.661 30.0841 101.903 30.1386 102.145 30.1909L102.145 30.1909L102.158 30.1937C103.457 30.4672 104.626 30.7385 105.667 31.0071L105.712 31.0187L105.757 31.0286C105.939 31.0685 106.108 31.1098 106.265 31.1521C105.987 31.1734 105.716 31.1838 105.451 31.1838C104.13 31.1838 103.247 31.0457 102.701 30.8666C102.103 30.6214 101.763 30.3847 101.579 30.2109Z" stroke="white" stroke-width="4.98874"/>
</g>
<g filter="url(#filter5_d_697_15725)">
<path d="M134.515 33.9404H150.245V39.7608H127.331V10.2393H149.669V16.4792H134.515V21.8801H145.788V27.7529H134.515V33.9404Z" fill="url(#paint4_linear_697_15725)"/>
<path d="M152.74 33.9404V31.446H150.245H137.009V30.2473H145.788H148.283V27.7529V21.8801V19.3857H145.788H137.009V18.9735H149.669H152.163V16.4792V10.2393V7.74491H149.669H127.331H124.836V10.2393V39.7608V42.2551H127.331H150.245H152.74V39.7608V33.9404Z" stroke="white" stroke-width="4.98874"/>
</g>
<g filter="url(#filter6_d_697_15725)">
<path d="M159.547 39.7608V29.5882H159.494L149.479 10.2393H157.711L163.322 23.4007L168.933 10.2393H177.165L166.835 29.5882V39.7608H159.547Z" fill="url(#paint5_linear_697_15725)"/>
<path d="M157.052 39.7608V42.2551H159.547H166.835H169.33V39.7608V30.2123L179.366 11.414L181.325 7.74491H177.165H168.933H167.285L166.638 9.26111L163.322 17.04L160.006 9.26111L159.36 7.74491H157.711H149.479H145.379L147.264 11.3859L157.052 30.2968V39.7608Z" stroke="white" stroke-width="4.98874"/>
</g>
<g filter="url(#filter7_d_697_15725)">
<path d="M193.11 40.2851C191.432 40.2851 189.789 40.0928 188.181 39.7083C186.573 39.3237 185.122 38.712 183.829 37.873C182.535 36.9991 181.486 35.8804 180.682 34.5171C179.913 33.1538 179.529 31.5108 179.529 29.5881H186.87C186.87 29.7979 186.94 30.13 187.08 30.5844C187.254 31.0039 187.569 31.4583 188.023 31.9477C188.513 32.4371 189.195 32.8566 190.068 33.2062C190.977 33.5208 192.183 33.6781 193.687 33.6781C194.351 33.6781 195.032 33.6257 195.732 33.5208C196.431 33.416 197.025 33.2062 197.514 32.8916C198.004 32.542 198.248 32.0177 198.248 31.3185C198.248 30.5844 197.899 30.0076 197.2 29.5881C196.536 29.1686 195.644 28.8365 194.526 28.5918C193.442 28.3122 192.236 28.0325 190.907 27.7529C189.614 27.4732 188.321 27.1236 187.027 26.7041C185.734 26.2846 184.545 25.7253 183.462 25.0262C182.413 24.2921 181.591 23.3657 180.997 22.2471C180.438 21.0935 180.21 19.6602 180.315 17.9473C180.49 15.3605 181.714 13.3504 183.986 11.9172C186.258 10.449 189.422 9.71486 193.477 9.71486C195.644 9.71486 197.672 10.0994 199.559 10.8685C201.482 11.6375 203.038 12.8086 204.226 14.3817C205.45 15.9547 206.061 17.9473 206.061 20.3594H198.983C198.983 19.2757 198.616 18.4717 197.881 17.9473C197.182 17.388 196.326 17.0209 195.312 16.8462C194.333 16.6714 193.442 16.584 192.638 16.584C191.344 16.584 190.261 16.7413 189.387 17.0559C188.548 17.3705 188.128 17.9823 188.128 18.8912C188.128 19.6952 188.478 20.3244 189.177 20.7789C189.876 21.1984 190.785 21.5479 191.904 21.8276C193.022 22.0723 194.246 22.3345 195.574 22.6141C196.938 22.8588 198.283 23.1734 199.612 23.558C200.94 23.9425 202.129 24.4843 203.177 25.1835C204.261 25.8477 205.1 26.7391 205.694 27.8577C206.324 28.9764 206.568 30.4096 206.429 32.1575C206.254 34.7094 204.96 36.7019 202.548 38.1352C200.171 39.5684 197.025 40.2851 193.11 40.2851Z" fill="url(#paint6_linear_697_15725)"/>
<path d="M182.432 39.9398L182.451 39.9529L182.471 39.9657C184.02 40.97 185.736 41.6885 187.601 42.1342C189.402 42.5649 191.239 42.7794 193.11 42.7794C197.298 42.7794 200.937 42.0173 203.829 40.2754C206.857 38.4738 208.675 35.7909 208.916 32.3425C209.078 30.2923 208.816 28.3348 207.883 26.6617C207.088 25.1744 205.957 23.9709 204.522 23.0823C204.405 23.0044 204.286 22.9282 204.165 22.8537H206.061H208.556V20.3594C208.556 17.5192 207.83 14.9589 206.206 12.8643C204.732 10.919 202.807 9.48234 200.493 8.55543C198.29 7.65908 195.943 7.22049 193.477 7.22049C189.171 7.22049 185.472 7.99156 182.644 9.81471C179.733 11.6548 178.057 14.3685 177.827 17.7792L177.826 17.787L177.826 17.7949C177.703 19.796 177.954 21.6873 178.753 23.3353L178.773 23.3767L178.794 23.4173C179.575 24.8878 180.663 26.1121 182.031 27.0696L182.066 27.0938H179.529H177.034V29.5881C177.034 31.843 177.487 33.9289 178.51 35.7426L178.522 35.7635L178.534 35.7842C179.523 37.4621 180.827 38.8555 182.432 39.9398ZM196.44 19.9832C196.448 20.0024 196.476 20.0798 196.485 20.2461C196.341 20.2186 196.197 20.1918 196.052 20.1657C194.758 19.8931 193.565 19.6376 192.474 19.399C192.129 19.3119 191.825 19.221 191.556 19.1286C191.875 19.0965 192.235 19.0783 192.638 19.0783C193.265 19.0783 194.007 19.1469 194.874 19.3017L194.881 19.303L194.888 19.3043C195.549 19.4182 195.999 19.6359 196.323 19.8951L196.376 19.9376L196.432 19.9771C196.435 19.9795 196.438 19.9815 196.44 19.9832ZM189.815 30.2109C189.754 30.1441 189.701 30.0829 189.655 30.0273C189.897 30.0841 190.139 30.1386 190.38 30.1909L190.38 30.1909L190.394 30.1937C191.693 30.4672 192.861 30.7385 193.902 31.0071L193.947 31.0187L193.992 31.0286C194.175 31.0685 194.344 31.1098 194.5 31.1521C194.223 31.1734 193.951 31.1838 193.687 31.1838C192.366 31.1838 191.483 31.0457 190.937 30.8666C190.339 30.6214 189.998 30.3847 189.815 30.2109Z" stroke="white" stroke-width="4.98874"/>
</g>
</g>
<defs>
<filter id="filter0_d_697_15725" x="0.544434" y="4.72612" width="215.684" height="47.7076" filterUnits="userSpaceOnUse" color-interpolation-filters="sRGB">
<feFlood flood-opacity="0" result="BackgroundImageFix"/>
<feColorMatrix in="SourceAlpha" type="matrix" values="0 0 0 0 0 0 0 0 0 0 0 0 0 0 0 0 0 0 127 0" result="hardAlpha"/>
<feOffset dx="4.77325" dy="7.15987"/>
<feComposite in2="hardAlpha" operator="out"/>
<feColorMatrix type="matrix" values="0 0 0 0 0 0 0 0 0 0 0 0 0 0 0 0 0 0 1 0"/>
<feBlend mode="normal" in2="BackgroundImageFix" result="effect1_dropShadow_697_15725"/>
<feBlend mode="normal" in="SourceGraphic" in2="effect1_dropShadow_697_15725" result="shape"/>
</filter>
<filter id="filter1_d_697_15725" x="0.544434" y="5.25053" width="35.5424" height="45.8866" filterUnits="userSpaceOnUse" color-interpolation-filters="sRGB">
<feFlood flood-opacity="0" result="BackgroundImageFix"/>
<feColorMatrix in="SourceAlpha" type="matrix" values="0 0 0 0 0 0 0 0 0 0 0 0 0 0 0 0 0 0 127 0" result="hardAlpha"/>
<feOffset dx="3.90887" dy="5.86331"/>
<feComposite in2="hardAlpha" operator="out"/>
<feColorMatrix type="matrix" values="0 0 0 0 0 0 0 0 0 0 0 0 0 0 0 0 0 0 1 0"/>
<feBlend mode="normal" in2="BackgroundImageFix" result="effect1_dropShadow_697_15725"/>
<feBlend mode="normal" in="SourceGraphic" in2="effect1_dropShadow_697_15725" result="shape"/>
</filter>
<filter id="filter2_d_697_15725" x="29.9587" y="5.25053" width="36.801" height="45.3623" filterUnits="userSpaceOnUse" color-interpolation-filters="sRGB">
<feFlood flood-opacity="0" result="BackgroundImageFix"/>
<feColorMatrix in="SourceAlpha" type="matrix" values="0 0 0 0 0 0 0 0 0 0 0 0 0 0 0 0 0 0 127 0" result="hardAlpha"/>
<feOffset dx="3.90887" dy="5.86331"/>
<feComposite in2="hardAlpha" operator="out"/>
<feColorMatrix type="matrix" values="0 0 0 0 0 0 0 0 0 0 0 0 0 0 0 0 0 0 1 0"/>
<feBlend mode="normal" in2="BackgroundImageFix" result="effect1_dropShadow_697_15725"/>
<feBlend mode="normal" in="SourceGraphic" in2="effect1_dropShadow_697_15725" result="shape"/>
</filter>
<filter id="filter3_d_697_15725" x="57.4058" y="5.25053" width="39.8422" height="45.8446" filterUnits="userSpaceOnUse" color-interpolation-filters="sRGB">
<feFlood flood-opacity="0" result="BackgroundImageFix"/>
<feColorMatrix in="SourceAlpha" type="matrix" values="0 0 0 0 0 0 0 0 0 0 0 0 0 0 0 0 0 0 127 0" result="hardAlpha"/>
<feOffset dx="3.90887" dy="5.86331"/>
<feComposite in2="hardAlpha" operator="out"/>
<feColorMatrix type="matrix" values="0 0 0 0 0 0 0 0 0 0 0 0 0 0 0 0 0 0 1 0"/>
<feBlend mode="normal" in2="BackgroundImageFix" result="effect1_dropShadow_697_15725"/>
<feBlend mode="normal" in="SourceGraphic" in2="effect1_dropShadow_697_15725" result="shape"/>
</filter>
<filter id="filter4_d_697_15725" x="86.3044" y="4.72612" width="40.8239" height="46.411" filterUnits="userSpaceOnUse" color-interpolation-filters="sRGB">
<feFlood flood-opacity="0" result="BackgroundImageFix"/>
<feColorMatrix in="SourceAlpha" type="matrix" values="0 0 0 0 0 0 0 0 0 0 0 0 0 0 0 0 0 0 127 0" result="hardAlpha"/>
<feOffset dx="3.90887" dy="5.86331"/>
<feComposite in2="hardAlpha" operator="out"/>
<feColorMatrix type="matrix" values="0 0 0 0 0 0 0 0 0 0 0 0 0 0 0 0 0 0 1 0"/>
<feBlend mode="normal" in2="BackgroundImageFix" result="effect1_dropShadow_697_15725"/>
<feBlend mode="normal" in="SourceGraphic" in2="effect1_dropShadow_697_15725" result="shape"/>
</filter>
<filter id="filter5_d_697_15725" x="122.342" y="5.25053" width="36.801" height="45.3623" filterUnits="userSpaceOnUse" color-interpolation-filters="sRGB">
<feFlood flood-opacity="0" result="BackgroundImageFix"/>
<feColorMatrix in="SourceAlpha" type="matrix" values="0 0 0 0 0 0 0 0 0 0 0 0 0 0 0 0 0 0 127 0" result="hardAlpha"/>
<feOffset dx="3.90887" dy="5.86331"/>
<feComposite in2="hardAlpha" operator="out"/>
<feColorMatrix type="matrix" values="0 0 0 0 0 0 0 0 0 0 0 0 0 0 0 0 0 0 1 0"/>
<feBlend mode="normal" in2="BackgroundImageFix" result="effect1_dropShadow_697_15725"/>
<feBlend mode="normal" in="SourceGraphic" in2="effect1_dropShadow_697_15725" result="shape"/>
</filter>
<filter id="filter6_d_697_15725" x="141.279" y="5.25053" width="48.1135" height="45.3623" filterUnits="userSpaceOnUse" color-interpolation-filters="sRGB">
<feFlood flood-opacity="0" result="BackgroundImageFix"/>
<feColorMatrix in="SourceAlpha" type="matrix" values="0 0 0 0 0 0 0 0 0 0 0 0 0 0 0 0 0 0 127 0" result="hardAlpha"/>
<feOffset dx="3.90887" dy="5.86331"/>
<feComposite in2="hardAlpha" operator="out"/>
<feColorMatrix type="matrix" values="0 0 0 0 0 0 0 0 0 0 0 0 0 0 0 0 0 0 1 0"/>
<feBlend mode="normal" in2="BackgroundImageFix" result="effect1_dropShadow_697_15725"/>
<feBlend mode="normal" in="SourceGraphic" in2="effect1_dropShadow_697_15725" result="shape"/>
</filter>
<filter id="filter7_d_697_15725" x="174.54" y="4.72612" width="40.8239" height="46.411" filterUnits="userSpaceOnUse" color-interpolation-filters="sRGB">
<feFlood flood-opacity="0" result="BackgroundImageFix"/>
<feColorMatrix in="SourceAlpha" type="matrix" values="0 0 0 0 0 0 0 0 0 0 0 0 0 0 0 0 0 0 127 0" result="hardAlpha"/>
<feOffset dx="3.90887" dy="5.86331"/>
<feComposite in2="hardAlpha" operator="out"/>
<feColorMatrix type="matrix" values="0 0 0 0 0 0 0 0 0 0 0 0 0 0 0 0 0 0 1 0"/>
<feBlend mode="normal" in2="BackgroundImageFix" result="effect1_dropShadow_697_15725"/>
<feBlend mode="normal" in="SourceGraphic" in2="effect1_dropShadow_697_15725" result="shape"/>
</filter>
<linearGradient id="paint0_linear_697_15725" x1="16.2335" y1="-4.22954" x2="16.2335" y2="52.0502" gradientUnits="userSpaceOnUse">
<stop stop-color="#D4145A"/>
<stop offset="0.1" stop-color="#DA2754"/>
<stop offset="0.215" stop-color="#E13C4C"/>
<stop offset="0.41" stop-color="#E74F46"/>
<stop offset="0.681" stop-color="#FC922F"/>
</linearGradient>
<linearGradient id="paint1_linear_697_15725" x1="46.2696" y1="-3.97703" x2="46.2696" y2="51.3205" gradientUnits="userSpaceOnUse">
<stop stop-color="#D4145A"/>
<stop offset="0.1" stop-color="#DA2754"/>
<stop offset="0.215" stop-color="#E13C4C"/>
<stop offset="0.41" stop-color="#E74F46"/>
<stop offset="0.681" stop-color="#FC922F"/>
</linearGradient>
<linearGradient id="paint2_linear_697_15725" x1="75.2194" y1="-4.20934" x2="75.2194" y2="51.9918" gradientUnits="userSpaceOnUse">
<stop stop-color="#D4145A"/>
<stop offset="0.1" stop-color="#DA2754"/>
<stop offset="0.215" stop-color="#E13C4C"/>
<stop offset="0.41" stop-color="#E74F46"/>
<stop offset="0.681" stop-color="#FC922F"/>
</linearGradient>
<linearGradient id="paint3_linear_697_15725" x1="104.603" y1="-5.00647" x2="104.603" y2="52.2554" gradientUnits="userSpaceOnUse">
<stop stop-color="#D4145A"/>
<stop offset="0.1" stop-color="#DA2754"/>
<stop offset="0.215" stop-color="#E13C4C"/>
<stop offset="0.41" stop-color="#E74F46"/>
<stop offset="0.681" stop-color="#FC922F"/>
</linearGradient>
<linearGradient id="paint4_linear_697_15725" x1="138.653" y1="-3.97703" x2="138.653" y2="51.3205" gradientUnits="userSpaceOnUse">
<stop stop-color="#D4145A"/>
<stop offset="0.1" stop-color="#DA2754"/>
<stop offset="0.215" stop-color="#E13C4C"/>
<stop offset="0.41" stop-color="#E74F46"/>
<stop offset="0.681" stop-color="#FC922F"/>
</linearGradient>
<linearGradient id="paint5_linear_697_15725" x1="163.159" y1="-3.97703" x2="163.159" y2="51.3205" gradientUnits="userSpaceOnUse">
<stop stop-color="#D4145A"/>
<stop offset="0.1" stop-color="#DA2754"/>
<stop offset="0.215" stop-color="#E13C4C"/>
<stop offset="0.41" stop-color="#E74F46"/>
<stop offset="0.681" stop-color="#FC922F"/>
</linearGradient>
<linearGradient id="paint6_linear_697_15725" x1="192.839" y1="-5.00647" x2="192.839" y2="52.2554" gradientUnits="userSpaceOnUse">
<stop stop-color="#D4145A"/>
<stop offset="0.1" stop-color="#DA2754"/>
<stop offset="0.215" stop-color="#E13C4C"/>
<stop offset="0.41" stop-color="#E74F46"/>
<stop offset="0.681" stop-color="#FC922F"/>
</linearGradient>
</defs>
</svg>
