<svg width="15" height="16" viewBox="0 0 15 16" fill="none" xmlns="http://www.w3.org/2000/svg">
<path d="M3.56136 7.60304L3.57263 7.61431L3.56136 7.60304L2.90598 8.25842C2.71879 8.44561 2.71879 8.74914 2.90598 8.93634L5.91827 11.9486C6.10549 12.1359 6.409 12.1359 6.59622 11.9487L11.9257 6.61922C12.1129 6.43203 12.1129 6.12849 11.9257 5.9413L11.2703 5.28592C11.0831 5.0987 10.7796 5.0987 10.5923 5.28592L6.25725 9.62098L4.23931 7.60304C4.05211 7.41584 3.74858 7.41585 3.56136 7.60304ZM14.583 8.13396C14.583 12.0923 11.3742 15.3012 7.41582 15.3012C3.45747 15.3012 0.248609 12.0923 0.248609 8.13396C0.248609 4.17561 3.45747 0.966752 7.41582 0.966752C11.3742 0.966752 14.583 4.17561 14.583 8.13396Z" fill="white" stroke="#00AA07" stroke-width="0.0318854"/>
</svg>
