<svg width="63" height="66" viewBox="0 0 63 66" fill="none" xmlns="http://www.w3.org/2000/svg">
<g filter="url(#filter0_d_697_15852)">
<mask id="path-1-outside-1_697_15852" maskUnits="userSpaceOnUse" x="-6.6015" y="-6.44077" width="74.1256" height="71.5723" fill="black">
<rect fill="white" x="-6.6015" y="-6.44077" width="74.1256" height="71.5723"/>
<path d="M53.2903 50.1268C51.1329 49.5097 49.0601 48.8807 47.0719 48.2398C45.1402 47.591 43.2891 46.9021 41.5186 46.1731C39.2094 48.5683 36.5468 50.4955 33.5308 51.9547C30.5149 53.4139 27.4236 54.3373 24.2571 54.7248C21.1469 55.1044 18.2192 54.9406 15.474 54.2336C12.7209 53.4702 10.408 52.156 8.53539 50.291C6.65485 48.3696 5.49262 45.8295 5.0487 42.6709C4.69198 40.1327 4.90631 37.9744 5.6917 36.196C6.5335 34.4097 7.56783 32.9702 8.79469 31.8774C10.0216 30.7847 11.1189 29.9978 12.0866 29.5167C13.1107 29.0277 13.6227 28.7831 13.6227 28.7831C13.6227 28.7831 13.1121 28.4235 12.0907 27.7043C11.0693 26.9851 9.99641 25.8992 8.87198 24.4467C7.79603 22.9299 7.09555 21.0152 6.77054 18.7026C6.42175 16.2209 6.80926 14.067 7.93308 12.241C9.10537 10.3507 10.7037 8.83191 12.7282 7.68462C14.8011 6.473 17.0463 5.66855 19.4638 5.27128C21.9376 4.86608 24.3057 4.9359 26.5679 5.48074C28.8787 5.96124 30.8298 6.95243 32.4213 8.4543C34.0692 9.94825 35.0755 11.9925 35.4402 14.5871C35.7335 16.6741 35.5359 18.5424 34.8475 20.1922C34.2154 21.834 33.3785 23.2458 32.3367 24.4275C31.2949 25.6092 30.3585 26.5174 29.5273 27.1518C28.7447 27.722 28.3534 28.007 28.3534 28.007C28.3534 28.007 28.9042 28.4473 30.0057 29.3278C31.1557 30.144 32.9332 31.3321 35.3382 32.8922C35.3461 32.9487 35.4673 32.7878 35.7018 32.4098C35.9283 31.9753 36.1147 31.4602 36.2611 30.8644C36.3995 30.2123 36.3365 29.5597 36.0722 28.9066C35.8563 28.1892 35.2778 27.5515 34.3366 26.9936L43.4284 19.245C43.4204 19.1886 43.6897 19.4671 44.236 20.0806C44.8388 20.6861 45.5054 21.5414 46.2359 22.6467C46.9664 23.7519 47.5877 25.1025 48.0996 26.6986C48.6599 28.2304 48.8735 29.9547 48.7403 31.8715C48.6555 33.724 48.0186 35.7403 46.8296 37.9206C47.8598 38.2935 49.1033 38.7514 50.56 39.2944C52.0732 39.8295 54.0252 40.4179 56.4161 41.0597L53.2903 50.1268ZM21.0777 23.5078C22.5866 22.3755 23.7086 21.355 24.4436 20.4464C25.1708 19.4815 25.5917 18.5883 25.7063 17.7669C25.7496 16.4379 25.3249 15.4623 24.4322 14.84C23.5395 14.2177 22.4969 13.9616 21.3045 14.0717C20.1042 14.1254 19.0964 14.5258 18.2811 15.2731C17.5143 15.9561 17.2542 16.9704 17.5009 18.3162C17.8753 20.1617 19.0676 21.8922 21.0777 23.5078ZM31.4417 40.7734C29.2456 39.4716 27.3553 38.2993 25.7708 37.2566C24.2348 36.1495 22.5825 34.8287 20.8138 33.2942C19.6601 34.0891 18.5747 34.9606 17.5576 35.9088C16.5326 36.8006 16.1311 38.0362 16.353 39.6155C16.5591 41.082 17.2372 42.2233 18.3872 43.0395C19.5373 43.8557 20.8975 44.326 22.468 44.4504C24.0949 44.5668 25.7024 44.3409 27.2905 43.7726C28.9272 43.14 30.3109 42.1402 31.4417 40.7734Z"/>
</mask>
<path d="M53.2903 50.1268C51.1329 49.5097 49.0601 48.8807 47.0719 48.2398C45.1402 47.591 43.2891 46.9021 41.5186 46.1731C39.2094 48.5683 36.5468 50.4955 33.5308 51.9547C30.5149 53.4139 27.4236 54.3373 24.2571 54.7248C21.1469 55.1044 18.2192 54.9406 15.474 54.2336C12.7209 53.4702 10.408 52.156 8.53539 50.291C6.65485 48.3696 5.49262 45.8295 5.0487 42.6709C4.69198 40.1327 4.90631 37.9744 5.6917 36.196C6.5335 34.4097 7.56783 32.9702 8.79469 31.8774C10.0216 30.7847 11.1189 29.9978 12.0866 29.5167C13.1107 29.0277 13.6227 28.7831 13.6227 28.7831C13.6227 28.7831 13.1121 28.4235 12.0907 27.7043C11.0693 26.9851 9.99641 25.8992 8.87198 24.4467C7.79603 22.9299 7.09555 21.0152 6.77054 18.7026C6.42175 16.2209 6.80926 14.067 7.93308 12.241C9.10537 10.3507 10.7037 8.83191 12.7282 7.68462C14.8011 6.473 17.0463 5.66855 19.4638 5.27128C21.9376 4.86608 24.3057 4.9359 26.5679 5.48074C28.8787 5.96124 30.8298 6.95243 32.4213 8.4543C34.0692 9.94825 35.0755 11.9925 35.4402 14.5871C35.7335 16.6741 35.5359 18.5424 34.8475 20.1922C34.2154 21.834 33.3785 23.2458 32.3367 24.4275C31.2949 25.6092 30.3585 26.5174 29.5273 27.1518C28.7447 27.722 28.3534 28.007 28.3534 28.007C28.3534 28.007 28.9042 28.4473 30.0057 29.3278C31.1557 30.144 32.9332 31.3321 35.3382 32.8922C35.3461 32.9487 35.4673 32.7878 35.7018 32.4098C35.9283 31.9753 36.1147 31.4602 36.2611 30.8644C36.3995 30.2123 36.3365 29.5597 36.0722 28.9066C35.8563 28.1892 35.2778 27.5515 34.3366 26.9936L43.4284 19.245C43.4204 19.1886 43.6897 19.4671 44.236 20.0806C44.8388 20.6861 45.5054 21.5414 46.2359 22.6467C46.9664 23.7519 47.5877 25.1025 48.0996 26.6986C48.6599 28.2304 48.8735 29.9547 48.7403 31.8715C48.6555 33.724 48.0186 35.7403 46.8296 37.9206C47.8598 38.2935 49.1033 38.7514 50.56 39.2944C52.0732 39.8295 54.0252 40.4179 56.4161 41.0597L53.2903 50.1268ZM21.0777 23.5078C22.5866 22.3755 23.7086 21.355 24.4436 20.4464C25.1708 19.4815 25.5917 18.5883 25.7063 17.7669C25.7496 16.4379 25.3249 15.4623 24.4322 14.84C23.5395 14.2177 22.4969 13.9616 21.3045 14.0717C20.1042 14.1254 19.0964 14.5258 18.2811 15.2731C17.5143 15.9561 17.2542 16.9704 17.5009 18.3162C17.8753 20.1617 19.0676 21.8922 21.0777 23.5078ZM31.4417 40.7734C29.2456 39.4716 27.3553 38.2993 25.7708 37.2566C24.2348 36.1495 22.5825 34.8287 20.8138 33.2942C19.6601 34.0891 18.5747 34.9606 17.5576 35.9088C16.5326 36.8006 16.1311 38.0362 16.353 39.6155C16.5591 41.082 17.2372 42.2233 18.3872 43.0395C19.5373 43.8557 20.8975 44.326 22.468 44.4504C24.0949 44.5668 25.7024 44.3409 27.2905 43.7726C28.9272 43.14 30.3109 42.1402 31.4417 40.7734Z" fill="url(#paint0_linear_697_15852)"/>
<path d="M53.2903 50.1268L51.6714 55.7865L57.0367 57.3212L58.8556 52.0454L53.2903 50.1268ZM47.0719 48.2398L45.1977 53.8202L45.2317 53.8317L45.2659 53.8427L47.0719 48.2398ZM41.5186 46.1731L43.7598 40.7298L40.0587 39.2059L37.2807 42.0874L41.5186 46.1731ZM33.5308 51.9547L30.967 46.6556L33.5308 51.9547ZM24.2571 54.7248L24.9702 60.5682L24.9721 60.5679L24.2571 54.7248ZM15.474 54.2336L13.901 59.9063L13.9533 59.9208L14.0058 59.9343L15.474 54.2336ZM8.53539 50.291L4.32836 54.4085L4.35468 54.4354L4.38134 54.462L8.53539 50.291ZM5.6917 36.196L0.366617 33.6866L0.335864 33.7519L0.30672 33.8179L5.6917 36.196ZM12.0866 29.5167L9.54989 24.2045L9.50773 24.2247L9.4659 24.2455L12.0866 29.5167ZM13.6227 28.7831L16.1594 34.0953L25.2359 29.761L17.012 23.97L13.6227 28.7831ZM12.0907 27.7043L8.70137 32.5174L8.70138 32.5174L12.0907 27.7043ZM8.87198 24.4467L4.07056 27.8526L4.14175 27.953L4.21708 28.0503L8.87198 24.4467ZM7.93308 12.241L2.93029 9.13847L2.92501 9.14698L2.91976 9.15551L7.93308 12.241ZM12.7282 7.68462L15.6306 12.8061L15.6648 12.7867L15.6988 12.7669L12.7282 7.68462ZM19.4638 5.27128L18.5122 -0.538044L18.5092 -0.53754L19.4638 5.27128ZM26.5679 5.48074L25.1896 11.2038L25.2792 11.2254L25.3695 11.2442L26.5679 5.48074ZM32.4213 8.4543L28.3811 12.7357L28.4239 12.7761L28.4675 12.8156L32.4213 8.4543ZM34.8475 20.1922L29.4148 17.9251L29.3832 18.0008L29.3537 18.0773L34.8475 20.1922ZM32.3367 24.4275L27.9209 20.5346L27.9209 20.5346L32.3367 24.4275ZM29.5273 27.1518L32.9935 31.9099L33.0469 31.871L33.0994 31.831L29.5273 27.1518ZM28.3534 28.007L24.8872 23.249L18.6537 27.79L24.6778 32.6053L28.3534 28.007ZM30.0057 29.3278L26.3302 33.9261L26.4615 34.0311L26.5987 34.1284L30.0057 29.3278ZM35.3382 32.8922L41.1676 32.073L40.794 29.4146L38.5419 27.9536L35.3382 32.8922ZM35.7018 32.4098L40.7046 35.5123L40.8202 35.3259L40.9216 35.1314L35.7018 32.4098ZM36.2611 30.8644L41.9779 32.2688L42.0001 32.178L42.0195 32.0867L36.2611 30.8644ZM36.0722 28.9066L30.4351 30.6028L30.5135 30.8632L30.6155 31.1153L36.0722 28.9066ZM34.3366 26.9936L30.5182 22.5133L24.2486 27.8567L31.3348 32.0574L34.3366 26.9936ZM43.4284 19.245L47.2468 23.7253L49.7078 21.6279L49.2578 18.4258L43.4284 19.245ZM44.236 20.0806L39.8401 23.9958L39.9488 24.1179L40.064 24.2337L44.236 20.0806ZM48.0996 26.6986L42.4941 28.4964L42.5304 28.6096L42.5712 28.7211L48.0996 26.6986ZM48.7403 31.8715L42.8677 31.4633L42.8629 31.5328L42.8597 31.6024L48.7403 31.8715ZM46.8296 37.9206L41.6614 35.102L38.3782 41.1222L44.8261 43.4559L46.8296 37.9206ZM50.56 39.2944L48.5039 44.8104L48.5505 44.8278L48.5975 44.8444L50.56 39.2944ZM56.4161 41.0597L61.9814 42.9783L64.0388 37.0107L57.9423 35.3742L56.4161 41.0597ZM21.0777 23.5078L17.3899 28.0962L20.9539 30.9607L24.6111 28.2162L21.0777 23.5078ZM24.4436 20.4464L29.0201 24.1491L29.0839 24.0702L29.145 23.9892L24.4436 20.4464ZM25.7063 17.7669L31.5366 18.5807L31.5798 18.271L31.59 17.9586L25.7063 17.7669ZM24.4322 14.84L21.0659 19.6693L21.0659 19.6693L24.4322 14.84ZM21.3045 14.0717L21.5674 19.9526L21.7067 19.9463L21.8456 19.9335L21.3045 14.0717ZM18.2811 15.2731L22.1964 19.669L22.2278 19.6411L22.2588 19.6127L18.2811 15.2731ZM17.5009 18.3162L11.7106 19.3774L11.7206 19.4321L11.7317 19.4866L17.5009 18.3162ZM31.4417 40.7734L35.9774 44.526L40.3666 39.2208L34.4436 35.7096L31.4417 40.7734ZM25.7708 37.2566L22.3289 42.0322L22.4303 42.1053L22.5348 42.174L25.7708 37.2566ZM20.8138 33.2942L24.6716 28.8478L21.2282 25.8602L17.474 28.4466L20.8138 33.2942ZM17.5576 35.9088L21.4215 40.35L21.4978 40.2836L21.5718 40.2147L17.5576 35.9088ZM18.3872 43.0395L21.7942 38.2389L21.7942 38.2389L18.3872 43.0395ZM22.468 44.4504L22.0032 50.3187L22.0254 50.3205L22.0476 50.3221L22.468 44.4504ZM27.2905 43.7726L29.2739 49.3152L29.3438 49.2902L29.413 49.2634L27.2905 43.7726ZM54.9092 44.467C52.8099 43.8665 50.7997 43.2564 48.878 42.637L45.2659 53.8427C47.3205 54.5049 49.4559 55.1528 51.6714 55.7865L54.9092 44.467ZM48.9462 42.6594C47.1304 42.0496 45.4021 41.406 43.7598 40.7298L39.2773 51.6165C41.176 52.3983 43.15 53.1325 45.1977 53.8202L48.9462 42.6594ZM37.2807 42.0874C35.457 43.9789 33.3622 45.4968 30.967 46.6556L36.0947 57.2538C39.7314 55.4943 42.9617 53.1577 45.7565 50.2589L37.2807 42.0874ZM30.967 46.6556C28.5038 47.8474 26.0349 48.5766 23.542 48.8816L24.9721 60.5679C28.8124 60.098 32.526 58.9804 36.0947 57.2538L30.967 46.6556ZM23.5439 48.8814C21.0866 49.1813 18.9043 49.0383 16.9422 48.5329L14.0058 59.9343C17.5341 60.843 21.2072 61.0274 24.9702 60.5682L23.5439 48.8814ZM17.047 48.5609C15.1876 48.0453 13.7875 47.2136 12.6894 46.1199L4.38134 54.462C7.02849 57.0984 10.2541 58.895 13.901 59.9063L17.047 48.5609ZM12.7424 46.1734C11.8958 45.3084 11.1807 44.0047 10.8781 41.8516L-0.780745 43.4902C-0.19551 47.6543 1.41388 51.4307 4.32836 54.4085L12.7424 46.1734ZM10.8781 41.8516C10.6266 40.0619 10.8547 39.0769 11.0767 38.5742L0.30672 33.8179C-1.04203 36.8719 -1.24265 40.2035 -0.780745 43.4902L10.8781 41.8516ZM11.0168 38.7054C11.5874 37.4946 12.1822 36.7434 12.71 36.2734L4.87942 27.4815C2.95347 29.1969 1.47961 31.3248 0.366617 33.6866L11.0168 38.7054ZM12.71 36.2734C13.7264 35.3681 14.3838 34.9487 14.7072 34.7879L9.4659 24.2455C7.85394 25.0469 6.31674 26.2013 4.87942 27.4815L12.71 36.2734ZM14.6232 34.8288C15.0247 34.6371 14.4118 34.9298 14.8093 34.74C14.8498 34.7207 14.7912 34.7486 14.8317 34.7293C14.845 34.7229 14.8406 34.725 14.8539 34.7187C14.9442 34.6756 14.8078 34.7407 14.8978 34.6977C14.9949 34.6513 14.8871 34.7028 14.9833 34.6569C15.1673 34.5691 14.9653 34.6655 15.1453 34.5795C15.2038 34.5516 15.2409 34.5339 15.2953 34.5079C15.3341 34.4894 15.3985 34.4586 15.4333 34.442C15.4369 34.4403 15.4626 34.428 15.466 34.4264C15.4807 34.4194 15.4673 34.4258 15.482 34.4188C15.7098 34.31 15.2621 34.5237 15.4899 34.415C15.4913 34.4143 15.4926 34.4137 15.4939 34.4131C15.4952 34.4125 15.4965 34.4118 15.4978 34.4112C15.5787 34.3726 15.4795 34.4199 15.5593 34.3818C15.6122 34.3566 15.5364 34.3928 15.589 34.3677C15.6022 34.3613 15.5903 34.367 15.6035 34.3607C15.6187 34.3535 15.6028 34.3611 15.6179 34.3539C15.6309 34.3477 15.619 34.3533 15.632 34.3471C15.6408 34.343 15.6303 34.3479 15.639 34.3438C15.9031 34.2177 15.3819 34.4666 15.646 34.3405C15.6567 34.3353 15.6629 34.3324 15.6734 34.3274C15.6944 34.3173 15.7058 34.3119 15.7259 34.3023C15.7501 34.2907 15.727 34.3018 15.751 34.2903C15.7613 34.2854 15.7653 34.2835 15.7754 34.2787C15.7903 34.2715 15.7724 34.2801 15.7873 34.273C15.802 34.266 15.7843 34.2744 15.799 34.2674C15.807 34.2636 15.8026 34.2656 15.8105 34.2619C15.8241 34.2554 15.8083 34.2629 15.8219 34.2565C16.0436 34.1506 15.6446 34.3411 15.8654 34.2357C15.9058 34.2164 15.8665 34.2351 15.9059 34.2163C15.9383 34.2009 15.8929 34.2226 15.925 34.2072C15.9448 34.1978 15.9238 34.2078 15.9434 34.1984C16.0666 34.1396 15.8902 34.2238 16.0094 34.1669C16.1319 34.1084 15.9449 34.1977 16.0634 34.1411C16.1169 34.1156 16.0559 34.1447 16.1054 34.1211C16.1109 34.1184 16.1339 34.1075 16.1354 34.1067C16.1559 34.097 16.1264 34.111 16.1459 34.1017C16.2169 34.0678 16.0834 34.1316 16.1534 34.0981C16.1583 34.0958 16.1514 34.0991 16.156 34.0969C16.1561 34.0968 16.1562 34.0968 16.1563 34.0968C16.1564 34.0967 16.1565 34.0967 16.1566 34.0966C16.1567 34.0966 16.1567 34.0966 16.1568 34.0965C16.1569 34.0965 16.157 34.0964 16.1571 34.0964C16.1572 34.0964 16.1572 34.0963 16.1573 34.0963C16.1574 34.0963 16.1574 34.0962 16.1575 34.0962C16.1576 34.0962 16.1579 34.096 16.1579 34.096C16.159 34.0955 16.1572 34.0963 16.1583 34.0958C16.1584 34.0958 16.1585 34.0957 16.1586 34.0957C16.1596 34.0952 16.1578 34.096 16.1588 34.0956C16.1593 34.0953 16.1586 34.0957 16.159 34.0955C16.1592 34.0954 16.1592 34.0954 16.1593 34.0953C16.1593 34.0953 16.1594 34.0953 16.1594 34.0953C16.1594 34.0953 16.1594 34.0953 16.1594 34.0953C16.1594 34.0953 16.1594 34.0953 16.1594 34.0953C16.1594 34.0953 16.1594 34.0953 13.6227 28.7831C11.0861 23.471 11.0861 23.471 11.0861 23.471C11.0861 23.471 11.086 23.471 11.086 23.471C11.0855 23.4713 11.0865 23.4708 11.086 23.471C11.0859 23.4711 11.0858 23.4711 11.0857 23.4712C11.0851 23.4714 11.0854 23.4713 11.0846 23.4717C11.0786 23.4746 11.0889 23.4696 11.0827 23.4726C11.0816 23.4731 11.0814 23.4732 11.0801 23.4739C11.0589 23.484 11.0872 23.4704 11.0621 23.4824C11.0426 23.4918 11.069 23.4791 11.0486 23.4889C11.0482 23.4891 11.0451 23.4905 11.0447 23.4907C11.0412 23.4924 11.0442 23.491 11.0407 23.4927C11.0324 23.4966 11.0406 23.4927 11.0321 23.4968C11.0305 23.4975 11.0245 23.5004 11.0227 23.5013C11.015 23.5049 11.0205 23.5023 11.0126 23.5061C11.0107 23.507 11.0117 23.5065 11.0099 23.5074C11.0095 23.5076 11.009 23.5078 11.0086 23.508C11.0081 23.5082 11.0077 23.5084 11.0072 23.5086C11.0051 23.5097 11.0039 23.5102 11.0017 23.5113C10.9968 23.5136 10.9951 23.5144 10.9901 23.5168C10.9531 23.5345 11.0025 23.5109 10.9645 23.529C10.9204 23.5501 10.9951 23.5144 10.9507 23.5356C10.9375 23.5419 10.9602 23.5311 10.9471 23.5374C10.9443 23.5387 10.9463 23.5377 10.9435 23.5391C10.9407 23.5404 10.9425 23.5395 10.9398 23.5408C10.9392 23.5411 10.9385 23.5414 10.9379 23.5417C10.9373 23.542 10.9367 23.5423 10.936 23.5426C10.7257 23.6431 11.1158 23.4568 10.9045 23.5577C10.8975 23.561 10.8949 23.5623 10.8877 23.5657C10.8835 23.5677 10.8832 23.5679 10.8789 23.5699C10.8654 23.5764 10.8836 23.5677 10.87 23.5741C10.8005 23.6074 10.8656 23.5763 10.792 23.6114C10.7045 23.6532 10.7935 23.6107 10.702 23.6544C10.5995 23.7033 10.7065 23.6522 10.6 23.7031C10.5735 23.7158 10.5994 23.7034 10.5726 23.7162C10.5715 23.7167 10.5703 23.7173 10.5692 23.7178C10.568 23.7184 10.5668 23.7189 10.5657 23.7195C10.5543 23.7249 10.57 23.7174 10.5587 23.7228C10.5579 23.7232 10.5524 23.7258 10.5516 23.7262C10.5503 23.7268 10.5458 23.729 10.5445 23.7296C10.5433 23.7302 10.5421 23.7307 10.5409 23.7313C10.5397 23.7319 10.5385 23.7324 10.5374 23.733C10.5362 23.7336 10.535 23.7342 10.5338 23.7347C10.5326 23.7353 10.5314 23.7359 10.5302 23.7364C10.529 23.737 10.5277 23.7376 10.5265 23.7382C10.5253 23.7387 10.5241 23.7393 10.5229 23.7399C10.4938 23.7538 10.5448 23.7295 10.5156 23.7434C10.4981 23.7518 10.5185 23.742 10.5009 23.7504C10.496 23.7528 10.491 23.7551 10.486 23.7575C10.4646 23.7678 10.4924 23.7545 10.4709 23.7647C10.4382 23.7804 10.4884 23.7564 10.4556 23.772C10.4487 23.7753 10.4471 23.7761 10.4401 23.7794C10.4189 23.7896 10.4536 23.773 10.4323 23.7832C10.431 23.7838 10.4297 23.7844 10.4284 23.785C10.4271 23.7857 10.4258 23.7863 10.4245 23.7869C10.3992 23.799 10.4182 23.7899 10.3926 23.8021C10.3388 23.8278 10.414 23.7919 10.36 23.8177C10.3398 23.8273 10.2461 23.8721 10.222 23.8836C10.2195 23.8848 10.0784 23.9521 10.0719 23.9553C9.80523 24.0826 10.1806 23.9033 9.90993 24.0326C9.87427 24.0496 9.90346 24.0357 9.86755 24.0529C9.86593 24.0536 9.82629 24.0726 9.82442 24.0735C9.78214 24.0936 9.85581 24.0585 9.81352 24.0787C9.8117 24.0795 9.80988 24.0804 9.80805 24.0813C9.80623 24.0821 9.8044 24.083 9.80257 24.0839C9.7873 24.0912 9.79587 24.0871 9.78054 24.0944C9.77869 24.0953 9.77685 24.0962 9.775 24.097C9.77315 24.0979 9.7713 24.0988 9.76945 24.0997C9.76892 24.1 9.75886 24.1048 9.75832 24.105C9.75646 24.1059 9.7546 24.1068 9.75273 24.1077C9.75087 24.1086 9.749 24.1095 9.74714 24.1104C9.74527 24.1112 9.7434 24.1121 9.74153 24.113C9.73966 24.1139 9.73778 24.1148 9.73591 24.1157C9.61841 24.1718 9.67139 24.1465 9.54989 24.2045L14.6232 34.8288ZM13.6227 28.7831C17.012 23.97 17.012 23.97 17.012 23.97C17.012 23.97 17.012 23.97 17.012 23.97C17.012 23.97 17.012 23.97 17.012 23.97C17.012 23.97 17.012 23.9699 17.0119 23.9699C17.0118 23.9698 17.012 23.97 17.0118 23.9699C17.0116 23.9697 17.0119 23.9699 17.0117 23.9697C17.0112 23.9694 17.0119 23.9699 17.0115 23.9696C17.0114 23.9696 17.0114 23.9695 17.0113 23.9695C17.0113 23.9695 17.0112 23.9694 17.0112 23.9694C17.0112 23.9694 17.0111 23.9693 17.0111 23.9693C17.011 23.9693 17.011 23.9692 17.0109 23.9692C17.0106 23.969 17.0109 23.9692 17.0105 23.9689C17.0098 23.9684 17.0078 23.967 17.0061 23.9658C17.0028 23.9635 17.0061 23.9658 17.0027 23.9634C17.0014 23.9625 17.0021 23.963 17.0007 23.962C17.0004 23.9618 16.999 23.9608 16.9986 23.9605C16.9915 23.9555 16.9962 23.9588 16.9881 23.9531C16.9676 23.9387 16.9962 23.9588 16.9746 23.9437C16.9739 23.9432 16.9735 23.9428 16.9727 23.9423C16.9703 23.9406 16.9732 23.9427 16.9708 23.941C16.9705 23.9407 16.9701 23.9405 16.9698 23.9403C16.9695 23.94 16.9692 23.9398 16.9688 23.9396C16.9685 23.9393 16.9681 23.9391 16.9678 23.9388C16.9675 23.9386 16.9671 23.9384 16.9668 23.9381C16.9428 23.9213 16.9824 23.9491 16.9582 23.9321C16.9505 23.9266 16.9474 23.9245 16.9387 23.9184C16.9131 23.9003 16.9429 23.9213 16.9163 23.9026C16.8941 23.887 16.914 23.901 16.8909 23.8847C16.8479 23.8544 16.9064 23.8956 16.8624 23.8646C16.8096 23.8274 16.8848 23.8804 16.831 23.8425C16.8041 23.8236 16.8414 23.8498 16.8142 23.8307C16.7649 23.7959 16.8549 23.8593 16.8055 23.8245C16.7502 23.7856 16.8519 23.8573 16.7966 23.8183C16.7568 23.7902 16.8183 23.8336 16.7783 23.8054C16.7604 23.7928 16.7773 23.8047 16.7592 23.7919C16.4942 23.6053 16.9848 23.9508 16.7188 23.7635C16.6723 23.7308 16.7229 23.7664 16.6754 23.7329C16.6727 23.731 16.6328 23.7029 16.629 23.7003C16.3944 23.5351 16.8152 23.8314 16.5797 23.6655C16.5699 23.6587 16.5638 23.6544 16.5538 23.6473C16.5528 23.6466 16.5517 23.6458 16.5506 23.645C16.5495 23.6443 16.5484 23.6435 16.5473 23.6427C16.5365 23.6351 16.5515 23.6457 16.5407 23.6381C16.5305 23.6309 16.5375 23.6358 16.5273 23.6286C16.5244 23.6266 16.5167 23.6212 16.5137 23.6191C16.5036 23.6119 16.5102 23.6166 16.5 23.6094C16.477 23.5933 16.5091 23.6158 16.4861 23.5996C16.4553 23.578 16.5027 23.6113 16.4719 23.5897C16.4684 23.5872 16.4181 23.5517 16.4136 23.5486C16.3423 23.4984 16.4245 23.5563 16.3522 23.5054C16.232 23.4207 16.4567 23.5789 16.3364 23.4943C16.3291 23.4891 16.3278 23.4882 16.3204 23.483C16.2663 23.4448 16.3423 23.4984 16.2879 23.4601C16.2557 23.4374 16.2538 23.436 16.2206 23.4127C16.1612 23.3708 16.2628 23.4424 16.2033 23.4005C16.1516 23.3641 16.2375 23.4246 16.1858 23.3882C16.1063 23.3322 16.2565 23.438 16.177 23.382C16.0154 23.2682 16.3297 23.4895 16.1681 23.3757C15.9682 23.2349 16.3502 23.504 16.1503 23.3631C15.9347 23.2113 16.2935 23.464 16.0769 23.3115C15.9418 23.2164 16.1368 23.3537 16.0006 23.2578C15.8844 23.176 16.0778 23.3122 15.9614 23.2301C15.9373 23.2132 15.9656 23.2331 15.9415 23.2161C15.717 23.058 16.1459 23.3601 15.9213 23.202C15.8459 23.1488 15.9155 23.1978 15.8391 23.144C15.6397 23.0037 15.9541 23.225 15.7538 23.084C15.4129 22.8439 16.0073 23.2625 15.6655 23.0218C15.5498 22.9403 15.691 23.0397 15.5742 22.9575C15.434 22.8588 15.6212 22.9906 15.48 22.8912L8.70138 32.5174C8.81394 32.5967 8.63656 32.4718 8.74888 32.5509C8.76429 32.5617 8.74524 32.5483 8.76064 32.5592C8.76961 32.5655 8.7634 32.5611 8.77235 32.5674C8.81149 32.595 8.7449 32.5481 8.78402 32.5756C8.7898 32.5797 8.78987 32.5797 8.79563 32.5838C8.84641 32.6196 8.83712 32.613 8.8869 32.6481C8.92203 32.6728 8.89653 32.6548 8.93141 32.6794C9.30552 32.9428 8.60131 32.447 8.97517 32.7102C9.12091 32.8128 8.8511 32.6229 8.99677 32.7254C8.99734 32.7258 9.01768 32.7402 9.01819 32.7405C9.01996 32.7418 9.02174 32.743 9.02351 32.7443C9.02528 32.7455 9.02706 32.7468 9.02882 32.748C9.03197 32.7502 9.03628 32.7533 9.03941 32.7555C9.0444 32.759 9.04499 32.7594 9.04996 32.7629C9.05175 32.7641 9.05868 32.769 9.06045 32.7703C9.07144 32.778 9.09124 32.792 9.10197 32.7995C9.1997 32.8683 9.04526 32.7596 9.14274 32.8282C9.15286 32.8354 9.14271 32.8282 9.15282 32.8353C9.18267 32.8563 9.13301 32.8214 9.16285 32.8424C9.20977 32.8754 9.12592 32.8164 9.17283 32.8494C9.17894 32.8537 9.17667 32.8521 9.18276 32.8564C9.21406 32.8784 9.19099 32.8622 9.22204 32.8841C9.26188 32.9121 9.2595 32.9104 9.29834 32.9378C9.56122 33.1229 9.0448 32.7593 9.30767 32.9444C9.30922 32.9455 9.31077 32.9465 9.31232 32.9476C9.31386 32.9487 9.31541 32.9498 9.31695 32.9509C9.31884 32.9522 9.33354 32.9626 9.33537 32.9639C9.33783 32.9656 9.34207 32.9686 9.34451 32.9703C9.34603 32.9714 9.34755 32.9724 9.34906 32.9735C9.35058 32.9746 9.35209 32.9756 9.35361 32.9767C9.36632 32.9857 9.35901 32.9805 9.37165 32.9894C9.43427 33.0335 9.38035 32.9955 9.44197 33.0389C9.53279 33.1029 9.41948 33.0231 9.5093 33.0863C9.54636 33.1124 9.50503 33.0833 9.54184 33.1093C9.62853 33.1703 9.4872 33.0708 9.57363 33.1316C9.58207 33.1376 9.59649 33.1477 9.60468 33.1535C9.62258 33.1661 9.60208 33.1517 9.61992 33.1642C9.75358 33.2584 9.50138 33.0808 9.63498 33.1748C9.71856 33.2337 9.58119 33.137 9.66453 33.1957C9.6894 33.2132 9.6687 33.1986 9.69333 33.2159C9.92149 33.3766 9.52152 33.0949 9.74868 33.2549C9.81911 33.3045 9.73162 33.2429 9.80105 33.2918C9.82178 33.3064 9.80563 33.295 9.82611 33.3094C9.88171 33.3486 9.79507 33.2876 9.85042 33.3266C9.90137 33.3624 9.84685 33.324 9.8968 33.3592C9.9299 33.3825 9.90809 33.3672 9.94019 33.3898C9.96769 33.4091 9.93352 33.3851 9.96076 33.4043C9.96566 33.4077 9.97594 33.4149 9.98059 33.4182C10.0013 33.4328 9.99826 33.4307 10.018 33.4446C10.0939 33.498 9.9775 33.416 10.0524 33.4688C10.1355 33.5273 10.0017 33.4331 10.0838 33.4909C10.0849 33.4917 10.1122 33.5109 10.1122 33.5109C10.1152 33.513 10.1127 33.5112 10.1156 33.5133C10.1292 33.5229 10.1053 33.506 10.1189 33.5156C10.1297 33.5232 10.1146 33.5126 10.1253 33.5201C10.143 33.5326 10.1202 33.5165 10.1377 33.5288C10.14 33.5305 10.1472 33.5355 10.1493 33.537C10.1525 33.5393 10.1571 33.5425 10.1601 33.5446C10.1835 33.5611 10.1572 33.5426 10.1796 33.5583C10.5017 33.7852 9.87488 33.3438 10.196 33.5699C10.2002 33.5729 10.2063 33.5772 10.2095 33.5794C10.2134 33.5822 10.2086 33.5788 10.2124 33.5815C10.2133 33.5821 10.2129 33.5818 10.2138 33.5824C10.214 33.5826 10.2142 33.5827 10.2144 33.5829C10.2147 33.5831 10.2149 33.5832 10.2151 33.5834C10.2155 33.5837 10.216 33.584 10.2164 33.5843C10.2165 33.5843 10.2176 33.5851 10.2176 33.5851C10.2188 33.586 10.2176 33.5851 10.2188 33.586C10.22 33.5868 10.2188 33.586 10.22 33.5868C10.2403 33.6011 10.2081 33.5784 10.2275 33.5921C10.2303 33.5941 10.2301 33.5939 10.2319 33.5952C10.232 33.5953 10.2322 33.5954 10.2323 33.5955C10.2323 33.5955 10.2324 33.5955 10.2324 33.5956C10.2325 33.5956 10.2325 33.5956 10.2326 33.5957C10.2343 33.5969 10.2312 33.5947 10.2329 33.5959C10.233 33.5959 10.2329 33.5959 10.2331 33.596C10.2332 33.5961 10.2331 33.5961 10.2332 33.5961C10.2333 33.5962 10.2333 33.5962 10.2333 33.5962C10.2334 33.5962 10.2334 33.5962 10.2334 33.5962C10.2334 33.5962 10.2334 33.5962 10.2334 33.5962C10.2334 33.5963 10.2334 33.5963 10.2334 33.5963C10.2334 33.5963 10.2334 33.5963 13.6227 28.7831ZM15.48 22.8912C15.1065 22.6281 14.4444 22.0284 13.5269 20.8432L4.21708 28.0503C5.54842 29.77 7.03214 31.342 8.70137 32.5174L15.48 22.8912ZM13.6734 21.0408C13.2635 20.463 12.8268 19.497 12.6 17.8834L0.9411 19.5219C1.36433 22.5334 2.32852 25.3968 4.07056 27.8526L13.6734 21.0408ZM12.6 17.8834C12.4081 16.5179 12.6586 15.7942 12.9464 15.3265L2.91976 9.15551C0.959951 12.3398 0.435417 15.9238 0.9411 19.5219L12.6 17.8834ZM12.9359 15.3435C13.5639 14.3308 14.4233 13.4903 15.6306 12.8061L9.82577 2.56314C6.98415 4.17354 4.6468 6.37063 2.93029 9.13847L12.9359 15.3435ZM15.6988 12.7669C17.137 11.9262 18.6969 11.363 20.4183 11.0801L18.5092 -0.53754C15.3957 -0.0258888 12.4652 1.01978 9.75762 2.60237L15.6988 12.7669ZM20.4153 11.0806C22.1751 10.7924 23.7479 10.8566 25.1896 11.2038L27.9463 -0.242363C24.8635 -0.984807 21.7002 -1.0602 18.5122 -0.538043L20.4153 11.0806ZM25.3695 11.2442C26.7011 11.5211 27.6438 12.0399 28.3811 12.7357L36.4616 4.17294C34.0159 1.86499 31.0563 0.401389 27.7664 -0.28271L25.3695 11.2442ZM28.4675 12.8156C28.9198 13.2256 29.402 13.9211 29.6107 15.4064L41.2696 13.7678C40.7491 10.0639 39.2187 6.67089 36.3751 4.093L28.4675 12.8156ZM29.6107 15.4064C29.7836 16.6364 29.6289 17.412 29.4148 17.9251L40.2802 22.4592C41.4429 19.6729 41.6834 16.7118 41.2696 13.7678L29.6107 15.4064ZM29.3537 18.0773C28.9436 19.1428 28.45 19.9345 27.9209 20.5346L36.7525 28.3204C38.307 26.5571 39.4873 24.5251 40.3412 22.307L29.3537 18.0773ZM27.9209 20.5346C27.0197 21.5569 26.368 22.1576 25.9553 22.4727L33.0994 31.831C34.3489 30.8771 35.5701 29.6616 36.7525 28.3204L27.9209 20.5346ZM26.0612 22.3937C26.0596 22.3949 26.0581 22.396 26.0566 22.3971C26.0551 22.3982 26.0535 22.3993 26.052 22.4004C25.9574 22.4694 26.1375 22.3381 26.0429 22.4071C26.03 22.4165 26.0467 22.4043 26.0338 22.4137C26.0067 22.4335 26.0519 22.4005 26.0248 22.4203C26.0233 22.4214 26.0218 22.4225 26.0203 22.4235C26.0188 22.4246 26.0173 22.4257 26.0158 22.4268C25.9917 22.4443 26.0308 22.4159 26.0068 22.4334C25.9955 22.4416 26.0091 22.4317 25.9979 22.4399C25.9815 22.4518 26.0053 22.4344 25.989 22.4464C25.9539 22.4719 25.9533 22.4723 25.919 22.4973C25.8797 22.526 25.9241 22.4936 25.8849 22.5222C25.7789 22.5994 25.9572 22.4695 25.8514 22.5466C25.837 22.5571 25.8326 22.5602 25.8184 22.5706C25.8123 22.575 25.8082 22.578 25.8022 22.5824C25.8008 22.5834 25.7995 22.5844 25.7981 22.5854C25.7968 22.5864 25.7954 22.5873 25.7941 22.5883C25.7601 22.6131 25.82 22.5694 25.786 22.5942C25.7846 22.5952 25.7714 22.6048 25.7701 22.6058C25.7687 22.6068 25.7674 22.6078 25.7661 22.6087C25.7648 22.6097 25.7634 22.6106 25.7621 22.6116C25.759 22.6138 25.7573 22.6151 25.7542 22.6174C25.7215 22.6412 25.7555 22.6164 25.723 22.6401C25.6879 22.6657 25.7272 22.6371 25.6923 22.6625C25.685 22.6678 25.692 22.6627 25.6847 22.668C25.6835 22.6689 25.6822 22.6698 25.681 22.6707C25.6797 22.6716 25.6784 22.6726 25.6772 22.6735C25.6662 22.6815 25.6731 22.6764 25.6622 22.6844C25.6041 22.7267 25.6611 22.6852 25.6037 22.727C25.5974 22.7316 25.5532 22.7638 25.5476 22.7679C25.5165 22.7905 25.5512 22.7652 25.5203 22.7877C25.4863 22.8126 25.5276 22.7825 25.4937 22.8072C25.4276 22.8553 25.5074 22.7971 25.4421 22.8447C25.4419 22.8449 25.4297 22.8537 25.4296 22.8539C25.4285 22.8546 25.4275 22.8554 25.4264 22.8561C25.4254 22.8569 25.4244 22.8576 25.4233 22.8584C25.4162 22.8636 25.4243 22.8577 25.4172 22.8629C25.3974 22.8773 25.4246 22.8575 25.4049 22.8718C25.3972 22.8774 25.4065 22.8707 25.3988 22.8763C25.3978 22.877 25.3968 22.8777 25.3958 22.8785C25.3948 22.8792 25.3938 22.8799 25.3928 22.8806C25.3872 22.8847 25.3744 22.894 25.369 22.898C25.228 23.0007 25.4983 22.8038 25.3573 22.9065C25.3537 22.9091 25.3493 22.9123 25.3458 22.9149C25.296 22.9512 25.3501 22.9118 25.3011 22.9475C25.2874 22.9574 25.293 22.9533 25.2796 22.9631C25.2493 22.9852 25.2887 22.9565 25.2587 22.9784C25.1992 23.0217 25.2773 22.9648 25.2185 23.0076C25.2061 23.0167 25.2116 23.0126 25.1993 23.0216C25.1969 23.0234 25.183 23.0335 25.1807 23.0352C25.1062 23.0894 25.2461 22.9875 25.1716 23.0418C25.1709 23.0423 25.1701 23.0429 25.1694 23.0434C25.1686 23.044 25.1679 23.0445 25.1671 23.0451C25.1664 23.0456 25.1656 23.0461 25.1649 23.0467C25.1641 23.0472 25.1634 23.0478 25.1626 23.0483C25.1591 23.0509 25.1574 23.0521 25.1538 23.0547C24.9677 23.1903 25.3312 22.9255 25.1452 23.061C25.1108 23.0861 25.1455 23.0608 25.1119 23.0853C25.0435 23.1351 25.1486 23.0585 25.081 23.1078C25.0549 23.1268 25.0776 23.1103 25.0523 23.1287C25.0455 23.1336 25.0319 23.1435 25.0259 23.1479C25.0007 23.1663 25.0263 23.1476 25.0019 23.1654C24.9883 23.1753 24.9928 23.172 24.9801 23.1813C24.9699 23.1887 24.97 23.1887 24.9606 23.1955C24.954 23.2003 24.9492 23.2038 24.9434 23.208C24.9151 23.2286 24.956 23.1988 24.9285 23.2189C24.9056 23.2356 24.9446 23.2072 24.9219 23.2237C24.9191 23.2257 24.9215 23.224 24.9188 23.2259C24.9069 23.2346 24.9277 23.2195 24.9159 23.2281C24.9029 23.2375 24.9177 23.2267 24.9056 23.2356C24.8995 23.24 24.9072 23.2344 24.9013 23.2387C24.898 23.2411 24.9006 23.2392 24.8975 23.2414C24.8812 23.2533 24.9105 23.232 24.8944 23.2437C24.8934 23.2444 24.8925 23.2451 24.8918 23.2456C24.8896 23.2472 24.8898 23.2471 24.8884 23.2481C24.8868 23.2492 24.8896 23.2472 24.8881 23.2483C24.8879 23.2484 24.888 23.2484 24.8879 23.2485C24.8874 23.2488 24.8879 23.2485 24.8875 23.2487C24.8873 23.2489 24.8875 23.2487 24.8874 23.2488C24.8873 23.2489 24.8873 23.2489 24.8873 23.2489C24.8873 23.2489 24.8873 23.2489 24.8873 23.2489C24.8872 23.2489 24.8872 23.2489 24.8872 23.2489C24.8872 23.2489 24.8872 23.249 24.8872 23.249C24.8872 23.249 24.8872 23.249 28.3534 28.007C31.8195 32.7651 31.8195 32.7651 31.8195 32.7651C31.8195 32.7651 31.8195 32.7651 31.8196 32.7651C31.8196 32.7651 31.8196 32.7651 31.8196 32.7651C31.8196 32.7651 31.8197 32.765 31.8197 32.765C31.8197 32.765 31.8198 32.7649 31.8198 32.7649C31.8203 32.7646 31.8197 32.765 31.8202 32.7646C31.8204 32.7645 31.8202 32.7646 31.8204 32.7645C31.8225 32.763 31.8186 32.7658 31.8207 32.7643C31.8239 32.762 31.8202 32.7646 31.8241 32.7618C31.8249 32.7612 31.8257 32.7606 31.8267 32.7599C31.8385 32.7513 31.8179 32.7663 31.8299 32.7576C31.8315 32.7564 31.8355 32.7535 31.8379 32.7518C31.8404 32.75 31.8377 32.7519 31.8402 32.75C31.8491 32.7436 31.8339 32.7547 31.8428 32.7482C31.8439 32.7473 31.8429 32.7481 31.8441 32.7473C31.8443 32.7471 31.8445 32.7469 31.8447 32.7468C31.845 32.7466 31.8452 32.7464 31.8454 32.7463C31.8677 32.7301 31.8259 32.7605 31.8482 32.7442C31.8509 32.7422 31.8573 32.7376 31.8608 32.7351C31.8639 32.7328 31.8719 32.727 31.8757 32.7242C31.8844 32.7178 31.8751 32.7246 31.884 32.7181C31.893 32.7116 31.8837 32.7184 31.8929 32.7117C31.8954 32.7099 31.8951 32.7101 31.8976 32.7083C31.937 32.6796 31.8629 32.7335 31.9024 32.7048C31.9038 32.7037 31.9033 32.7041 31.9048 32.703C31.9114 32.6982 31.9007 32.706 31.9073 32.7012C31.9077 32.7009 31.9081 32.7006 31.9086 32.7003C31.909 32.7 31.9094 32.6996 31.9098 32.6993C31.9103 32.699 31.9107 32.6987 31.9111 32.6984C31.9115 32.6981 31.912 32.6978 31.9124 32.6975C31.9409 32.6767 31.9049 32.7029 31.9342 32.6816C31.9393 32.6779 31.932 32.6832 31.9371 32.6795C31.9477 32.6717 31.9293 32.6852 31.94 32.6774C31.9405 32.677 31.941 32.6767 31.9415 32.6763C31.942 32.6759 31.9424 32.6756 31.9429 32.6752C31.946 32.673 31.9428 32.6753 31.9459 32.673C31.9599 32.6628 31.9441 32.6744 31.9583 32.6641C31.9769 32.6505 31.9523 32.6684 31.9712 32.6547C31.9717 32.6543 31.9723 32.6539 31.9728 32.6535C31.9734 32.6531 31.9739 32.6527 31.9745 32.6523C31.9797 32.6485 31.9726 32.6536 31.9778 32.6498C31.9816 32.647 31.9808 32.6477 31.9846 32.6449C32.0638 32.5872 31.9193 32.6924 31.9987 32.6346C32.0064 32.629 32.0054 32.6298 32.0133 32.624C32.0139 32.6235 32.0145 32.6231 32.0152 32.6226C32.0158 32.6222 32.0164 32.6217 32.017 32.6212C32.0384 32.6057 31.9995 32.634 32.0208 32.6185C32.0214 32.618 32.0221 32.6176 32.0227 32.6171C32.0234 32.6166 32.024 32.6162 32.0246 32.6157C32.0253 32.6153 32.0259 32.6148 32.0265 32.6143C32.0272 32.6138 32.0278 32.6134 32.0285 32.6129C32.0333 32.6094 32.0314 32.6108 32.0363 32.6072C32.0369 32.6067 32.0376 32.6063 32.0383 32.6058C32.0389 32.6053 32.0396 32.6048 32.0402 32.6043C32.0403 32.6043 32.0442 32.6014 32.0442 32.6014C32.0779 32.5769 32.0431 32.6023 32.0775 32.5772C32.17 32.5098 32.0023 32.632 32.095 32.5645C32.146 32.5273 32.0618 32.5887 32.113 32.5513C32.171 32.5091 32.0643 32.5868 32.1223 32.5446C32.3148 32.4044 31.9391 32.678 32.1317 32.5377C32.1711 32.509 32.1112 32.5527 32.1509 32.5238C32.2492 32.4521 32.0919 32.5667 32.191 32.4945C32.278 32.4311 32.1456 32.5276 32.2334 32.4636C32.2382 32.4601 32.2725 32.4351 32.2781 32.4311C32.3683 32.3653 32.2109 32.48 32.3013 32.4141C32.3694 32.3645 32.2568 32.4465 32.3251 32.3968C32.5166 32.2573 32.1457 32.5275 32.3372 32.388C32.3462 32.3815 32.3405 32.3856 32.3495 32.3791C32.3806 32.3564 32.3431 32.3837 32.3744 32.3609C32.52 32.2548 32.2796 32.43 32.426 32.3233C32.4267 32.3228 32.4385 32.3142 32.4393 32.3137C32.4527 32.3039 32.4392 32.3137 32.4527 32.3039C32.5712 32.2176 32.3612 32.3705 32.4799 32.2841C32.6032 32.1942 32.3842 32.3538 32.5077 32.2638C32.5257 32.2507 32.5179 32.2564 32.5361 32.2431C32.71 32.1165 32.4199 32.3278 32.5945 32.2005C32.6186 32.183 32.5854 32.2072 32.6095 32.1896C32.6165 32.1846 32.6101 32.1892 32.6171 32.1841C32.6185 32.1831 32.6232 32.1797 32.6246 32.1786C32.6283 32.176 32.6515 32.1591 32.6553 32.1563C32.7093 32.1169 32.6636 32.1503 32.7184 32.1103C32.8178 32.0379 32.6835 32.1358 32.7837 32.0627C32.8418 32.0204 32.7924 32.0564 32.8513 32.0135C32.9192 31.964 32.818 32.0378 32.886 31.9882C32.8933 31.9829 32.8875 31.9871 32.8948 31.9818C32.9033 31.9756 32.895 31.9816 32.9036 31.9754C32.9164 31.9661 32.9084 31.9719 32.9213 31.9625C32.9678 31.9286 32.8925 31.9835 32.9391 31.9495C32.9705 31.9267 32.9257 31.9593 32.9571 31.9364C32.9781 31.9211 32.9451 31.9452 32.9662 31.9298C32.9772 31.9218 32.9642 31.9313 32.9752 31.9232C32.9891 31.9131 32.9704 31.9267 32.9844 31.9166C32.991 31.9117 32.9868 31.9148 32.9935 31.9099L26.0612 22.3937ZM28.3534 28.007C24.6778 32.6053 24.6778 32.6053 24.6778 32.6053C24.6778 32.6053 24.6778 32.6053 24.6779 32.6053C24.6779 32.6053 24.6779 32.6053 24.6779 32.6053C24.6779 32.6054 24.6779 32.6054 24.6779 32.6054C24.6779 32.6054 24.678 32.6054 24.678 32.6054C24.678 32.6054 24.678 32.6055 24.6781 32.6055C24.6786 32.6059 24.6777 32.6052 24.6782 32.6056C24.6786 32.6059 24.6788 32.6061 24.6794 32.6066C24.6795 32.6066 24.6796 32.6067 24.6796 32.6068C24.6797 32.6068 24.6798 32.6069 24.6799 32.6069C24.6801 32.6071 24.6801 32.6071 24.6803 32.6073C24.6819 32.6086 24.6798 32.6069 24.6815 32.6082C24.6826 32.6091 24.6816 32.6083 24.6828 32.6092C24.6836 32.6099 24.6834 32.6098 24.6843 32.6105C24.6856 32.6115 24.69 32.615 24.6923 32.6169C24.7011 32.6239 24.6938 32.618 24.7036 32.6259C24.7304 32.6473 24.6903 32.6153 24.7182 32.6375C24.7707 32.6795 24.6823 32.6089 24.7359 32.6517C24.7377 32.6531 24.744 32.6582 24.746 32.6598C24.7507 32.6635 24.752 32.6645 24.7569 32.6685C24.7643 32.6744 24.7552 32.6671 24.7626 32.6731C24.7895 32.6946 24.7416 32.6563 24.7686 32.6778C24.7836 32.6899 24.7658 32.6756 24.7811 32.6878C24.7895 32.6946 24.7857 32.6915 24.7944 32.6985C24.8218 32.7204 24.7808 32.6876 24.8085 32.7098C24.8439 32.738 24.7879 32.6933 24.8235 32.7217C24.8278 32.7251 24.8346 32.7306 24.8392 32.7343C24.8566 32.7482 24.8381 32.7334 24.8557 32.7475C24.8664 32.756 24.8622 32.7526 24.8731 32.7614C24.8763 32.7639 24.8743 32.7624 24.8775 32.7649C24.8825 32.7689 24.877 32.7645 24.882 32.7685C24.8946 32.7786 24.8786 32.7658 24.8912 32.7759C24.9007 32.7835 24.9004 32.7832 24.9102 32.791C24.9254 32.8032 24.9145 32.7945 24.93 32.8068C24.9353 32.8111 24.9348 32.8107 24.9401 32.815C24.9485 32.8217 24.9421 32.8165 24.9505 32.8233C24.9618 32.8323 24.9498 32.8227 24.9611 32.8317C24.9672 32.8366 24.9604 32.8312 24.9665 32.836C24.968 32.8373 24.9703 32.8391 24.9719 32.8404C24.9931 32.8573 24.9727 32.841 24.9941 32.8581C25.2834 33.0894 24.7973 32.7008 25.0909 32.9355C25.1332 32.9693 25.1008 32.9434 25.1442 32.9781C25.1449 32.9786 25.1572 32.9884 25.158 32.9891C25.1733 33.0013 25.1566 32.988 25.172 33.0003C25.1841 33.0099 25.1741 33.002 25.1862 33.0117C25.1874 33.0126 25.1886 33.0136 25.1898 33.0145C25.191 33.0155 25.1922 33.0165 25.1934 33.0174C25.1946 33.0184 25.1958 33.0193 25.197 33.0203C25.1982 33.0213 25.1994 33.0222 25.2006 33.0232C25.2896 33.0943 25.1703 32.9989 25.2603 33.0709C25.3014 33.1038 25.2811 33.0875 25.3233 33.1212C25.3367 33.1319 25.326 33.1234 25.3395 33.1342C25.3521 33.1443 25.3433 33.1372 25.3559 33.1473C25.3655 33.155 25.3546 33.1463 25.3642 33.154C25.4008 33.1832 25.336 33.1314 25.3726 33.1606C25.3929 33.1769 25.369 33.1578 25.3894 33.1741C25.5529 33.3048 25.2943 33.0981 25.4588 33.2296C25.4838 33.2495 25.4695 33.2381 25.4947 33.2583C25.614 33.3536 25.4119 33.1921 25.5314 33.2876C25.6381 33.3729 25.4995 33.2621 25.6073 33.3482C25.8515 33.5434 25.5201 33.2786 25.7686 33.4772C25.789 33.4935 25.7903 33.4946 25.811 33.5111C25.8392 33.5337 25.8041 33.5056 25.8325 33.5282C25.8529 33.5446 25.8336 33.5292 25.8541 33.5456C26.1014 33.7432 25.6945 33.418 25.9429 33.6165C25.9688 33.6372 26.0079 33.6684 26.0349 33.69C26.1551 33.7862 26.0087 33.6691 26.1301 33.7661C26.1488 33.7811 26.2087 33.8289 26.2285 33.8448C26.3824 33.9678 26.1752 33.8022 26.3302 33.9261L33.6813 24.7296C33.3762 24.4857 33.8836 24.8913 33.5796 24.6483C33.4059 24.5095 33.6537 24.7076 33.4812 24.5696C33.4542 24.5481 33.484 24.5718 33.4571 24.5503C33.4551 24.5487 33.4531 24.5472 33.4511 24.5456C33.4491 24.544 33.4471 24.5424 33.4451 24.5408C33.3486 24.4636 33.5297 24.6084 33.4332 24.5312C33.389 24.4959 33.4299 24.5286 33.386 24.4935C33.3338 24.4518 33.345 24.4608 33.294 24.42C33.2291 24.3681 33.2691 24.4001 33.2052 24.3491C33.1393 24.2963 33.2278 24.3671 33.1621 24.3146C33.0826 24.251 33.1989 24.344 33.1197 24.2807C33.0998 24.2648 33.0978 24.2632 33.0782 24.2475C33.0205 24.2014 33.1153 24.2771 33.0577 24.2311C33.0449 24.2209 33.0501 24.2251 33.0374 24.2149C33.0344 24.2125 33.0003 24.1852 32.9975 24.183C32.9954 24.1814 32.9798 24.1689 32.9778 24.1673C32.9303 24.1293 33.0058 24.1896 32.9584 24.1517C32.8792 24.0884 32.8848 24.0929 32.8099 24.0331C32.5791 23.8486 32.9703 24.1612 32.7405 23.9776C32.6829 23.9315 32.7309 23.9699 32.6744 23.9247C32.6691 23.9205 32.6475 23.9032 32.6425 23.8992C32.6414 23.8983 32.6358 23.8939 32.6347 23.893C32.6334 23.8919 32.6321 23.8909 32.6308 23.8898C32.6295 23.8888 32.6282 23.8878 32.6269 23.8867C32.5638 23.8363 32.6744 23.9248 32.6114 23.8744C32.5455 23.8217 32.6166 23.8785 32.5517 23.8267C32.5469 23.8228 32.5276 23.8074 32.5231 23.8038C32.4987 23.7843 32.5334 23.812 32.5091 23.7926C32.498 23.7837 32.5132 23.7959 32.5021 23.787C32.5001 23.7854 32.4973 23.7832 32.4953 23.7815C32.4623 23.7552 32.5009 23.7861 32.4682 23.7599C32.4651 23.7574 32.4449 23.7413 32.442 23.739C32.115 23.4776 32.718 23.9595 32.392 23.699C32.3872 23.6952 32.3489 23.6645 32.3452 23.6616C32.3179 23.6398 32.35 23.6654 32.323 23.6438C32.2991 23.6247 32.3361 23.6543 32.3122 23.6352C32.3033 23.6281 32.3105 23.6339 32.3016 23.6268C32.272 23.6031 32.2898 23.6173 32.2613 23.5945C32.2083 23.5522 32.2761 23.6063 32.2242 23.5648C31.9295 23.3293 32.4838 23.7724 32.1903 23.5378C32.0317 23.411 32.3172 23.6392 32.1596 23.5133C32.1344 23.4931 32.1704 23.5219 32.1455 23.502C32.1429 23.4999 32.1345 23.4932 32.1322 23.4913C32.1252 23.4858 32.1359 23.4943 32.129 23.4888C32.0989 23.4647 32.1559 23.5103 32.1258 23.4862C32.1231 23.4841 32.1254 23.4859 32.1227 23.4838C32.1222 23.4834 32.1217 23.483 32.1212 23.4825C32.1207 23.4821 32.1202 23.4817 32.1197 23.4813C32.1085 23.4724 32.1189 23.4807 32.108 23.472C32.1063 23.4706 32.0985 23.4644 32.0971 23.4633C32.0913 23.4586 32.0977 23.4638 32.092 23.4592C32.0915 23.4588 32.0911 23.4585 32.0907 23.4582C32.0903 23.4578 32.0899 23.4575 32.0895 23.4572C32.0694 23.4412 32.107 23.4712 32.087 23.4552C32.0866 23.4549 32.0862 23.4546 32.0858 23.4543C32.0854 23.4539 32.085 23.4536 32.0846 23.4533C32.0807 23.4502 32.0862 23.4545 32.0823 23.4514C32.0798 23.4494 32.0801 23.4497 32.0777 23.4478C32.0775 23.4476 32.0757 23.4462 32.0755 23.446C32.0752 23.4458 32.0748 23.4455 32.0745 23.4452C32.0741 23.4449 32.0737 23.4446 32.0734 23.4443C32.0662 23.4386 32.0764 23.4467 32.0693 23.441C32.0624 23.4355 32.0682 23.4402 32.0616 23.4349C32.0614 23.4347 32.0582 23.4322 32.0581 23.4321C32.0543 23.4291 32.0601 23.4337 32.0564 23.4307C32.0561 23.4305 32.0558 23.4303 32.0556 23.4301C32.0553 23.4298 32.055 23.4296 32.0547 23.4294C32.0516 23.4269 32.0456 23.4221 32.0434 23.4204C32.0407 23.4182 32.037 23.4152 32.0354 23.4139C32.035 23.4136 32.0327 23.4118 32.0326 23.4117C32.0278 23.4079 32.0367 23.415 32.032 23.4112C32.0319 23.4111 32.0318 23.4111 32.0317 23.411C32.0316 23.4109 32.0315 23.4109 32.0314 23.4108C32.0314 23.4107 32.0313 23.4107 32.0312 23.4106C32.0311 23.4105 32.031 23.4105 32.031 23.4104C32.0309 23.4104 32.0308 23.4103 32.0307 23.4102C32.0307 23.4102 32.0306 23.4101 32.0305 23.4101C32.0293 23.4091 32.031 23.4104 32.0298 23.4095C32.0284 23.4084 32.0307 23.4102 32.0293 23.4091C32.0293 23.409 32.0292 23.409 32.0291 23.409C32.0291 23.4089 32.0291 23.4089 32.0291 23.4089C32.0291 23.4089 32.029 23.4089 32.029 23.4089C32.029 23.4088 32.029 23.4088 32.029 23.4088C32.029 23.4088 32.029 23.4088 32.0289 23.4088C32.0289 23.4088 32.0289 23.4088 32.0289 23.4088C32.0289 23.4088 32.0289 23.4088 28.3534 28.007ZM26.5987 34.1284C27.8533 35.0188 29.7156 36.2617 32.1345 37.8309L38.5419 27.9536C36.1509 26.4026 34.4582 25.2692 33.4127 24.5272L26.5987 34.1284ZM29.5088 33.7115C29.5783 34.2062 29.7943 35.3234 30.643 36.4475C31.6735 37.8123 33.2612 38.6792 35.0066 38.7801C36.4455 38.8633 37.5157 38.4007 37.9753 38.1723C38.4977 37.9126 38.8709 37.6297 39.0671 37.471C39.7067 36.9538 40.1105 36.391 40.1364 36.3567C40.3696 36.0471 40.5776 35.7169 40.7046 35.5123L30.699 29.3072C30.5914 29.4806 30.6216 29.4199 30.7337 29.2712C30.7706 29.2222 30.8481 29.1213 30.9579 28.9954C31.0381 28.9034 31.286 28.622 31.6636 28.3166C31.8518 28.1644 32.2178 27.8864 32.7339 27.6298C33.1872 27.4045 34.252 26.9433 35.6864 27.0263C37.4272 27.127 39.0112 27.9919 40.039 29.3531C40.8849 30.4735 41.0991 31.5853 41.1676 32.073L29.5088 33.7115ZM40.9216 35.1314C41.4124 34.1901 41.746 33.2126 41.9779 32.2688L30.5443 29.4601C30.5152 29.5788 30.4905 29.6545 30.4762 29.6941C30.4618 29.7338 30.4611 29.7282 30.482 29.6881L40.9216 35.1314ZM42.0195 32.0867C42.4158 30.2195 42.2072 28.3738 41.5289 26.6979L30.6155 31.1153C30.5508 30.9553 30.485 30.7297 30.4582 30.4512C30.431 30.1698 30.4493 29.8933 30.5026 29.6422L42.0195 32.0867ZM41.7093 27.2104C40.9081 24.5478 38.9726 22.8985 37.3385 21.9298L31.3348 32.0574C31.583 32.2046 30.8046 31.8307 30.4351 30.6028L41.7093 27.2104ZM38.1551 31.4739L47.2468 23.7253L39.61 14.7647L30.5182 22.5133L38.1551 31.4739ZM49.2578 18.4258C49.3129 18.8174 49.3994 19.6891 49.119 20.7478C48.7971 21.9633 47.9531 23.479 46.244 24.409C44.7166 25.2402 43.2857 25.165 42.5876 25.0636C41.8568 24.9575 41.3112 24.7364 41.0435 24.6171C40.5019 24.3759 40.1256 24.1067 40.0112 24.0243C39.8473 23.9061 39.7252 23.8047 39.6617 23.7507C39.4567 23.5764 39.3347 23.4439 39.3917 23.5029C39.4379 23.5507 39.575 23.6982 39.8401 23.9958L48.632 16.1653C48.3507 15.8495 48.08 15.5511 47.8569 15.3203C47.7794 15.2401 47.5574 15.0101 47.2871 14.7803C47.2072 14.7124 47.071 14.5998 46.8951 14.473C46.7687 14.3819 46.3825 14.1066 45.8333 13.862C45.5617 13.7411 45.0128 13.5188 44.2793 13.4123C43.5785 13.3106 42.1453 13.2356 40.6163 14.0677C36.9908 16.0407 37.5718 19.8716 37.5989 20.0643L49.2578 18.4258ZM40.064 24.2337C40.284 24.4546 40.7062 24.9564 41.325 25.8926L51.1469 19.4007C50.3047 18.1265 49.3936 16.9176 48.408 15.9275L40.064 24.2337ZM41.325 25.8926C41.6926 26.4488 42.1052 27.2838 42.4941 28.4964L53.705 24.9008C53.0702 22.9212 52.2403 21.0549 51.1469 19.4007L41.325 25.8926ZM42.5712 28.7211C42.8012 29.3499 42.9537 30.2267 42.8677 31.4633L54.6128 32.2797C54.7934 29.6826 54.5187 27.1109 53.6279 24.6761L42.5712 28.7211ZM42.8597 31.6024C42.8272 32.3124 42.5609 33.4529 41.6614 35.102L51.9977 40.7392C53.4764 38.0278 54.4838 35.1355 54.6209 32.1405L42.8597 31.6024ZM44.8261 43.4559C45.8332 43.8204 47.0581 44.2715 48.5039 44.8104L52.6161 33.7784C51.1484 33.2314 49.8864 32.7665 48.833 32.3853L44.8261 43.4559ZM48.5975 44.8444C50.3091 45.4496 52.4215 46.0826 54.89 46.7452L57.9423 35.3742C55.6289 34.7533 53.8372 34.2094 52.5226 33.7445L48.5975 44.8444ZM50.8508 39.1411L47.725 48.2081L58.8556 52.0454L61.9814 42.9783L50.8508 39.1411ZM24.6111 28.2162C26.3019 26.9473 27.8522 25.5926 29.0201 24.1491L19.8672 16.7438C19.5649 17.1174 18.8713 17.8036 17.5443 18.7995L24.6111 28.2162ZM29.145 23.9892C30.2175 22.5659 31.2347 20.7435 31.5366 18.5807L19.8761 16.9532C19.9147 16.677 19.9839 16.5343 19.9796 16.5434C19.9783 16.5462 19.9626 16.579 19.9236 16.642C19.8848 16.7049 19.8263 16.7922 19.7423 16.9037L29.145 23.9892ZM31.59 17.9586C31.6816 15.1451 30.703 12.0354 27.7985 10.0108L21.0659 19.6693C20.6402 19.3725 20.2554 18.9223 20.0228 18.3881C19.9178 18.1469 19.8671 17.9414 19.8433 17.7976C19.82 17.6568 19.8227 17.5769 19.8227 17.5753L31.59 17.9586ZM27.7985 10.0108C25.6491 8.51248 23.1905 7.98586 20.7635 8.20989L21.8456 19.9335C21.8644 19.9318 21.76 19.9431 21.5764 19.898C21.385 19.851 21.2051 19.7663 21.0659 19.6693L27.7985 10.0108ZM21.0416 8.19084C18.5887 8.3005 16.2284 9.16912 14.3034 10.9335L22.2588 19.6127C22.1495 19.7128 21.9967 19.8136 21.8223 19.8829C21.6544 19.9497 21.5523 19.9532 21.5674 19.9526L21.0416 8.19084ZM14.3658 10.8772C11.5653 13.3715 11.2323 16.7679 11.7106 19.3774L23.2912 17.2549C23.2763 17.1737 23.349 17.4785 23.2133 18.0081C23.0587 18.6109 22.7054 19.2157 22.1964 19.669L14.3658 10.8772ZM11.7317 19.4866C12.4656 23.1039 14.7027 25.9364 17.3899 28.0962L24.7655 18.9194C23.4325 17.848 23.2851 17.2194 23.2701 17.1458L11.7317 19.4866ZM34.4436 35.7096C32.3016 34.4398 30.4935 33.3174 29.0069 32.3391L22.5348 42.174C24.2172 43.2812 26.1896 44.5033 28.4399 45.8373L34.4436 35.7096ZM29.2127 32.4809C27.849 31.4981 26.3365 30.2922 24.6716 28.8478L16.956 37.7407C18.8285 39.3653 20.6206 40.801 22.3289 42.0322L29.2127 32.4809ZM17.474 28.4466C16.0844 29.404 14.7734 30.4564 13.5435 31.603L21.5718 40.2147C22.3761 39.4648 23.2359 38.7741 24.1536 38.1419L17.474 28.4466ZM13.6937 31.4676C10.8851 33.9112 10.0803 37.281 10.5236 40.4348L22.1825 38.7962C22.1682 38.6945 22.2176 38.9195 22.0862 39.3237C21.9417 39.7685 21.6756 40.1289 21.4215 40.35L13.6937 31.4676ZM10.5236 40.4348C10.9424 43.4148 12.4368 46.0351 14.9802 47.8401L21.7942 38.2389C21.8473 38.2766 21.9703 38.385 22.0771 38.5647C22.1803 38.7384 22.1894 38.8459 22.1825 38.7962L10.5236 40.4348ZM14.9802 47.8401C17.0951 49.3411 19.5008 50.1205 22.0032 50.3187L22.9328 38.582C22.2942 38.5314 21.9794 38.3703 21.7942 38.2389L14.9802 47.8401ZM22.0476 50.3221C24.518 50.4989 26.943 50.1493 29.2739 49.3152L25.3072 38.2301C24.4618 38.5326 23.6717 38.6348 22.8883 38.5787L22.0476 50.3221ZM29.413 49.2634C32.0003 48.2633 34.2116 46.6602 35.9774 44.526L26.9061 37.0209C26.4102 37.6202 25.854 38.0167 25.1681 38.2818L29.413 49.2634Z" fill="white" mask="url(#path-1-outside-1_697_15852)"/>
</g>
<defs>
<filter id="filter0_d_697_15852" x="0.161621" y="0.78714" width="62.7204" height="64.2264" filterUnits="userSpaceOnUse" color-interpolation-filters="sRGB">
<feFlood flood-opacity="0" result="BackgroundImageFix"/>
<feColorMatrix in="SourceAlpha" type="matrix" values="0 0 0 0 0 0 0 0 0 0 0 0 0 0 0 0 0 0 127 0" result="hardAlpha"/>
<feOffset dx="5.19356" dy="7.79034"/>
<feComposite in2="hardAlpha" operator="out"/>
<feColorMatrix type="matrix" values="0 0 0 0 0 0 0 0 0 0 0 0 0 0 0 0 0 0 1 0"/>
<feBlend mode="normal" in2="BackgroundImageFix" result="effect1_dropShadow_697_15852"/>
<feBlend mode="normal" in="SourceGraphic" in2="effect1_dropShadow_697_15852" result="shape"/>
</filter>
<linearGradient id="paint0_linear_697_15852" x1="19.5996" y1="-28.203" x2="33.2182" y2="68.6988" gradientUnits="userSpaceOnUse">
<stop offset="0.376" stop-color="#25D5FF"/>
<stop offset="1" stop-color="#0008FF"/>
</linearGradient>
</defs>
</svg>
