<svg width="168" height="81" viewBox="0 0 168 81" fill="none" xmlns="http://www.w3.org/2000/svg">
<g filter="url(#filter0_d_935_10352)">
<mask id="path-1-outside-1_935_10352" maskUnits="userSpaceOnUse" x="13.1279" y="22.5" width="151" height="50" fill="black">
<rect fill="white" x="13.1279" y="22.5" width="151" height="50"/>
<path d="M28.3541 66.5H18.8629V28.332H34.9979C39.3367 28.332 42.749 29.4619 45.2348 31.7217C47.7658 33.9363 49.0313 37.2808 49.0313 41.7552C49.0313 45.5516 47.7432 48.5572 45.167 50.7718C42.5908 52.9412 39.2011 54.0259 34.9979 54.0259H28.3541V66.5ZM33.5742 35.9249H28.3541V47.3821H33.5742C35.4725 47.3821 37.0995 46.9075 38.4554 45.9584C39.8113 44.9641 40.4892 43.5178 40.4892 41.6196C40.4892 39.6762 39.8113 38.2525 38.4554 37.3486C37.1447 36.3994 35.5177 35.9249 33.5742 35.9249ZM53.9675 66.5V28.332H63.4587V58.4325H79.9326V66.5H53.9675ZM83.1635 66.5L94.1461 28.332H109.671L121.06 66.5H110.959L108.451 56.941H95.7731L93.3326 66.5H83.1635ZM102.078 32.264L97.6036 49.7549H106.62L102.078 32.264ZM132.386 66.5V53.348H132.318L119.369 28.332H130.013L137.267 45.3483L144.521 28.332H155.164L141.809 53.348V66.5H132.386Z"/>
</mask>
<path d="M28.3541 66.5H18.8629V28.332H34.9979C39.3367 28.332 42.749 29.4619 45.2348 31.7217C47.7658 33.9363 49.0313 37.2808 49.0313 41.7552C49.0313 45.5516 47.7432 48.5572 45.167 50.7718C42.5908 52.9412 39.2011 54.0259 34.9979 54.0259H28.3541V66.5ZM33.5742 35.9249H28.3541V47.3821H33.5742C35.4725 47.3821 37.0995 46.9075 38.4554 45.9584C39.8113 44.9641 40.4892 43.5178 40.4892 41.6196C40.4892 39.6762 39.8113 38.2525 38.4554 37.3486C37.1447 36.3994 35.5177 35.9249 33.5742 35.9249ZM53.9675 66.5V28.332H63.4587V58.4325H79.9326V66.5H53.9675ZM83.1635 66.5L94.1461 28.332H109.671L121.06 66.5H110.959L108.451 56.941H95.7731L93.3326 66.5H83.1635ZM102.078 32.264L97.6036 49.7549H106.62L102.078 32.264ZM132.386 66.5V53.348H132.318L119.369 28.332H130.013L137.267 45.3483L144.521 28.332H155.164L141.809 53.348V66.5H132.386Z" fill="url(#paint0_linear_935_10352)"/>
<path d="M28.3541 66.5V71.7819H33.636V66.5H28.3541ZM18.8629 66.5H13.581V71.7819H18.8629V66.5ZM18.8629 28.332V23.0501H13.581V28.332H18.8629ZM45.2348 31.7217L41.6818 35.6299L41.7189 35.6637L41.7567 35.6967L45.2348 31.7217ZM45.167 50.7718L48.5693 54.812L48.5898 54.7947L48.6102 54.7771L45.167 50.7718ZM28.3541 54.0259V48.744H23.0722V54.0259H28.3541ZM28.3541 35.9249V30.643H23.0722V35.9249H28.3541ZM28.3541 47.3821H23.0722V52.664H28.3541V47.3821ZM38.4554 45.9584L41.4844 50.2855L41.532 50.2521L41.5789 50.2178L38.4554 45.9584ZM38.4554 37.3486L35.3575 41.6266L35.4404 41.6866L35.5255 41.7434L38.4554 37.3486ZM28.3541 61.2181H18.8629V71.7819H28.3541V61.2181ZM24.1448 66.5V28.332H13.581V66.5H24.1448ZM18.8629 33.6138H34.9979V23.0501H18.8629V33.6138ZM34.9979 33.6138C38.4173 33.6138 40.4253 34.4876 41.6818 35.6299L48.7878 27.8134C45.0728 24.4361 40.2562 23.0501 34.9979 23.0501V33.6138ZM41.7567 35.6967C42.7941 36.6045 43.7494 38.2721 43.7494 41.7552H54.3132C54.3132 36.2894 52.7374 31.268 48.713 27.7466L41.7567 35.6967ZM43.7494 41.7552C43.7494 44.2152 42.9872 45.6803 41.7238 46.7664L48.6102 54.7771C52.4991 51.434 54.3132 46.8881 54.3132 41.7552H43.7494ZM41.7648 46.7316C40.3589 47.9155 38.2744 48.744 34.9979 48.744V59.3078C40.1279 59.3078 44.8228 57.9669 48.5693 54.812L41.7648 46.7316ZM34.9979 48.744H28.3541V59.3078H34.9979V48.744ZM23.0722 54.0259V66.5H33.636V54.0259H23.0722ZM33.5742 30.643H28.3541V41.2068H33.5742V30.643ZM23.0722 35.9249V47.3821H33.636V35.9249H23.0722ZM28.3541 52.664H33.5742V42.1002H28.3541V52.664ZM33.5742 52.664C36.3915 52.664 39.1147 51.9443 41.4844 50.2855L35.4264 41.6313C35.0844 41.8708 34.5535 42.1002 33.5742 42.1002V52.664ZM41.5789 50.2178C44.481 48.0895 45.7711 44.9508 45.7711 41.6196H35.2073C35.2073 41.7806 35.1929 41.8726 35.1855 41.9092C35.1786 41.9434 35.1777 41.9299 35.1982 41.8862C35.2195 41.8407 35.2507 41.7907 35.2875 41.7465C35.3234 41.7035 35.3451 41.6893 35.3319 41.6991L41.5789 50.2178ZM45.7711 41.6196C45.7711 38.3017 44.509 35.0362 41.3853 32.9538L35.5255 41.7434C35.4974 41.7246 35.4368 41.6784 35.3678 41.5994C35.298 41.5195 35.2457 41.4361 35.212 41.3651C35.1439 41.2222 35.2073 41.2549 35.2073 41.6196H45.7711ZM41.5533 33.0705C39.1722 31.3463 36.4013 30.643 33.5742 30.643V41.2068C34.634 41.2068 35.1172 41.4526 35.3575 41.6266L41.5533 33.0705ZM53.9675 66.5H48.6856V71.7819H53.9675V66.5ZM53.9675 28.332V23.0501H48.6856V28.332H53.9675ZM63.4587 28.332H68.7406V23.0501H63.4587V28.332ZM63.4587 58.4325H58.1768V63.7144H63.4587V58.4325ZM79.9326 58.4325H85.2145V53.1506H79.9326V58.4325ZM79.9326 66.5V71.7819H85.2145V66.5H79.9326ZM59.2494 66.5V28.332H48.6856V66.5H59.2494ZM53.9675 33.6138H63.4587V23.0501H53.9675V33.6138ZM58.1768 28.332V58.4325H68.7406V28.332H58.1768ZM63.4587 63.7144H79.9326V53.1506H63.4587V63.7144ZM74.6508 58.4325V66.5H85.2145V58.4325H74.6508ZM79.9326 61.2181H53.9675V71.7819H79.9326V61.2181ZM83.1635 66.5L78.0875 65.0394L76.1474 71.7819H83.1635V66.5ZM94.1461 28.332V23.0501H90.1697L89.0702 26.8714L94.1461 28.332ZM109.671 28.332L114.732 26.8216L113.607 23.0501H109.671V28.332ZM121.06 66.5V71.7819H128.148L126.122 64.9897L121.06 66.5ZM110.959 66.5L105.85 67.8406L106.884 71.7819H110.959V66.5ZM108.451 56.941L113.56 55.6004L112.525 51.6591H108.451V56.941ZM95.7731 56.941V51.6591H91.6704L90.6554 55.6344L95.7731 56.941ZM93.3326 66.5V71.7819H97.4353L98.4503 67.8066L93.3326 66.5ZM102.078 32.264L107.19 30.9364L96.9609 30.955L102.078 32.264ZM97.6036 49.7549L92.4865 48.4458L90.8004 55.0368H97.6036V49.7549ZM106.62 49.7549V55.0368H113.449L111.733 48.4273L106.62 49.7549ZM88.2394 67.9606L99.222 29.7925L89.0702 26.8714L78.0875 65.0394L88.2394 67.9606ZM94.1461 33.6138H109.671V23.0501H94.1461V33.6138ZM104.61 29.8423L115.999 68.0103L126.122 64.9897L114.732 26.8216L104.61 29.8423ZM121.06 61.2181H110.959V71.7819H121.06V61.2181ZM116.068 65.1594L113.56 55.6004L103.342 58.2817L105.85 67.8406L116.068 65.1594ZM108.451 51.6591H95.7731V62.2229H108.451V51.6591ZM90.6554 55.6344L88.2148 65.1934L98.4503 67.8066L100.891 58.2477L90.6554 55.6344ZM93.3326 61.2181H83.1635V71.7819H93.3326V61.2181ZM96.9609 30.955L92.4865 48.4458L102.721 51.0639L107.195 33.573L96.9609 30.955ZM97.6036 55.0368H106.62V44.473H97.6036V55.0368ZM111.733 48.4273L107.19 30.9364L96.9657 33.5916L101.508 51.0825L111.733 48.4273ZM132.386 66.5H127.104V71.7819H132.386V66.5ZM132.386 53.348H137.668V48.0661H132.386V53.348ZM132.318 53.348L127.627 55.776L129.104 58.6299H132.318V53.348ZM119.369 28.332V23.0501H110.688L114.678 30.76L119.369 28.332ZM130.013 28.332L134.872 26.2607L133.503 23.0501H130.013V28.332ZM137.267 45.3483L132.408 47.4195L137.267 58.8173L142.126 47.4195L137.267 45.3483ZM144.521 28.332V23.0501H141.031L139.662 26.2607L144.521 28.332ZM155.164 28.332L159.824 30.8195L163.972 23.0501H155.164V28.332ZM141.809 53.348L137.15 50.8604L136.527 52.0263V53.348H141.809ZM141.809 66.5V71.7819H147.091V66.5H141.809ZM137.668 66.5V53.348H127.104V66.5H137.668ZM132.386 48.0661H132.318V58.6299H132.386V48.0661ZM137.009 50.9199L124.06 25.9039L114.678 30.76L127.627 55.776L137.009 50.9199ZM119.369 33.6138H130.013V23.0501H119.369V33.6138ZM125.154 30.4032L132.408 47.4195L142.126 43.277L134.872 26.2607L125.154 30.4032ZM142.126 47.4195L149.38 30.4032L139.662 26.2607L132.408 43.277L142.126 47.4195ZM144.521 33.6138H155.164V23.0501H144.521V33.6138ZM150.505 25.8444L137.15 50.8604L146.468 55.8355L159.824 30.8195L150.505 25.8444ZM136.527 53.348V66.5H147.091V53.348H136.527ZM141.809 61.2181H132.386V71.7819H141.809V61.2181Z" fill="white" mask="url(#path-1-outside-1_935_10352)"/>
</g>
<defs>
<filter id="filter0_d_935_10352" x="18.8628" y="28.332" width="141.355" height="45.7486" filterUnits="userSpaceOnUse" color-interpolation-filters="sRGB">
<feFlood flood-opacity="0" result="BackgroundImageFix"/>
<feColorMatrix in="SourceAlpha" type="matrix" values="0 0 0 0 0 0 0 0 0 0 0 0 0 0 0 0 0 0 127 0" result="hardAlpha"/>
<feOffset dx="5.05374" dy="7.58061"/>
<feComposite in2="hardAlpha" operator="out"/>
<feColorMatrix type="matrix" values="0 0 0 0 0 0 0 0 0 0 0 0 0 0 0 0 0 0 1 0"/>
<feBlend mode="normal" in2="BackgroundImageFix" result="effect1_dropShadow_935_10352"/>
<feBlend mode="normal" in="SourceGraphic" in2="effect1_dropShadow_935_10352" result="shape"/>
</filter>
<linearGradient id="paint0_linear_935_10352" x1="84.1279" y1="-5.5" x2="84.1279" y2="86.5" gradientUnits="userSpaceOnUse">
<stop offset="0.376" stop-color="#25D5FF"/>
<stop offset="1" stop-color="#0008FF"/>
</linearGradient>
</defs>
</svg>
