<svg width="360" height="361" viewBox="0 0 360 361" fill="none" xmlns="http://www.w3.org/2000/svg">
<g filter="url(#filter0_df_697_15497)">
<path d="M162.528 46.8534C168.409 31.0164 190.809 31.0164 196.69 46.8534L200.625 57.4513C204.866 68.872 218.904 72.9939 228.646 65.679L237.686 58.891C251.195 48.7474 270.039 60.8578 266.424 77.3601L264.005 88.4032C261.398 100.304 270.979 111.361 283.13 110.474L294.405 109.651C311.254 108.421 320.559 128.797 308.596 140.725L300.59 148.708C291.964 157.309 294.046 171.791 304.747 177.614L314.677 183.018C329.516 191.092 326.328 213.264 309.815 216.831L298.765 219.218C286.857 221.791 280.779 235.099 286.633 245.783L292.065 255.697C300.183 270.513 285.514 287.441 269.694 281.515L259.108 277.549C247.7 273.275 235.392 281.185 234.54 293.338L233.75 304.615C232.569 321.467 211.077 327.778 200.972 314.239L194.211 305.179C186.924 295.416 172.294 295.416 165.007 305.179L158.245 314.239C148.141 327.778 126.648 321.467 125.468 304.615L124.678 293.337C123.826 281.185 111.518 273.275 100.11 277.549L89.5233 281.515C73.7035 287.441 59.0346 270.513 67.1523 255.697L72.5847 245.783C78.4387 235.099 72.3609 221.791 60.4529 219.218L49.4028 216.831C32.8901 213.264 29.7023 191.092 44.5412 183.018L54.4712 177.614C65.1721 171.791 67.2542 157.309 58.6273 148.708L50.6219 140.725C38.659 128.797 47.9643 108.421 64.8131 109.651L76.088 110.474C88.2383 111.361 97.8194 100.304 95.2125 88.4032L92.7934 77.3601C89.1784 60.8578 108.023 48.7474 121.532 58.891L130.572 65.679C140.314 72.9939 154.352 68.872 158.593 57.4513L162.528 46.8534Z" fill="url(#paint0_linear_697_15497)"/>
</g>
<g filter="url(#filter1_f_697_15497)">
<path d="M165.234 66.8244C170.461 52.7471 190.372 52.7471 195.6 66.8244L197.804 72.7601C201.573 82.9118 214.051 86.5758 222.711 80.0736L227.774 76.2718C239.783 67.2553 256.533 78.02 253.32 92.6887L251.965 98.8738C249.648 109.452 258.164 119.281 268.964 118.492L275.279 118.031C290.256 116.938 298.527 135.05 287.894 145.653L283.41 150.124C275.742 157.77 277.592 170.642 287.104 175.818L292.666 178.845C305.856 186.022 303.022 205.731 288.344 208.901L282.155 210.238C271.571 212.525 266.168 224.355 271.372 233.852L274.414 239.404C281.63 252.574 268.591 267.621 254.529 262.353L248.6 260.132C238.459 256.333 227.518 263.364 226.762 274.166L226.319 280.483C225.27 295.462 206.165 301.072 197.183 289.038L193.396 283.963C186.919 275.285 173.914 275.285 167.437 283.963L163.65 289.038C154.669 301.072 135.564 295.462 134.514 280.483L134.072 274.166C133.315 263.364 122.375 256.333 112.234 260.132L106.305 262.353C92.2425 267.621 79.2035 252.574 86.4193 239.404L89.4618 233.852C94.6654 224.355 89.2629 212.525 78.6781 210.238L72.4891 208.901C57.8111 205.731 54.9775 186.022 68.1676 178.845L73.7292 175.818C83.2412 170.642 85.092 157.77 77.4236 150.124L72.9399 145.653C62.3062 135.05 70.5776 116.938 85.5542 118.031L91.8692 118.492C102.669 119.281 111.186 109.452 108.869 98.8738L107.514 92.6887C104.3 78.02 121.051 67.2553 133.059 76.2718L138.122 80.0736C146.782 86.5758 159.26 82.9118 163.03 72.7601L165.234 66.8244Z" fill="url(#paint1_linear_697_15497)"/>
</g>
<defs>
<filter id="filter0_df_697_15497" x="17.0227" y="16.9756" width="325.172" height="322.612" filterUnits="userSpaceOnUse" color-interpolation-filters="sRGB">
<feFlood flood-opacity="0" result="BackgroundImageFix"/>
<feColorMatrix in="SourceAlpha" type="matrix" values="0 0 0 0 0 0 0 0 0 0 0 0 0 0 0 0 0 0 127 0" result="hardAlpha"/>
<feOffset dy="4.5"/>
<feGaussianBlur stdDeviation="2.25"/>
<feComposite in2="hardAlpha" operator="out"/>
<feColorMatrix type="matrix" values="0 0 0 0 0 0 0 0 0 0 0 0 0 0 0 0 0 0 0.25 0"/>
<feBlend mode="normal" in2="BackgroundImageFix" result="effect1_dropShadow_697_15497"/>
<feBlend mode="normal" in="SourceGraphic" in2="effect1_dropShadow_697_15497" result="shape"/>
<feGaussianBlur stdDeviation="9" result="effect2_foregroundBlur_697_15497"/>
</filter>
<filter id="filter1_f_697_15497" x="37.4839" y="34.0436" width="285.866" height="283.748" filterUnits="userSpaceOnUse" color-interpolation-filters="sRGB">
<feFlood flood-opacity="0" result="BackgroundImageFix"/>
<feBlend mode="normal" in="SourceGraphic" in2="BackgroundImageFix" result="shape"/>
<feGaussianBlur stdDeviation="11.1114" result="effect1_foregroundBlur_697_15497"/>
</filter>
<linearGradient id="paint0_linear_697_15497" x1="179.609" y1="0.854187" x2="179.609" y2="360.854" gradientUnits="userSpaceOnUse">
<stop stop-color="#00EDFF"/>
<stop offset="1" stop-color="#016AFA"/>
</linearGradient>
<linearGradient id="paint1_linear_697_15497" x1="180.417" y1="25.9362" x2="180.417" y2="330.153" gradientUnits="userSpaceOnUse">
<stop stop-color="#F2FDFF" stop-opacity="0.9"/>
<stop offset="1" stop-color="#F2F1F8" stop-opacity="0.9"/>
</linearGradient>
</defs>
</svg>
