<svg width="308" height="33" viewBox="0 0 308 33" fill="none" xmlns="http://www.w3.org/2000/svg">
<g filter="url(#filter0_d_697_15734)">
<mask id="path-1-outside-1_697_15734" maskUnits="userSpaceOnUse" x="-3" y="-3" width="311" height="35" fill="black">
<rect fill="white" x="-3" y="-3" width="311" height="35"/>
<path d="M0.652625 6.77799V1.35812H20.9202V6.77799H13.9518V27H7.57548V6.77799H0.652625ZM35.8348 27.6376C31.5839 27.6376 28.335 26.4383 26.0881 24.0396C23.8412 21.6105 22.7178 18.3464 22.7178 14.2474C22.7178 11.545 23.2036 9.20706 24.1752 7.23344C25.1469 5.22946 26.6043 3.68092 28.5476 2.58784C30.4908 1.4644 32.9199 0.902674 35.8348 0.902674C40.0856 0.902674 43.3193 2.11721 45.5359 4.54628C47.7524 6.94499 48.8607 10.1787 48.8607 14.2474C48.8607 16.889 48.3597 19.227 47.3577 21.2613C46.386 23.2653 44.9286 24.829 42.9853 25.9525C41.0725 27.0759 38.6889 27.6376 35.8348 27.6376ZM35.7437 21.489C37.2922 21.489 38.5675 21.1702 39.5695 20.5326C40.6018 19.8646 41.3609 18.9841 41.8467 17.891C42.3629 16.7675 42.621 15.553 42.621 14.2474C42.621 12.9114 42.3629 11.6817 41.8467 10.5582C41.3609 9.43478 40.6018 8.53906 39.5695 7.87107C38.5675 7.20307 37.2922 6.86908 35.7437 6.86908C33.5271 6.86908 31.8268 7.56744 30.6426 8.96415C29.4888 10.3609 28.9119 12.1219 28.9119 14.2474C28.9119 15.5226 29.1548 16.722 29.6406 17.8454C30.1568 18.9385 30.9159 19.8191 31.9179 20.4871C32.9199 21.155 34.1951 21.489 35.7437 21.489ZM58.9325 27H52.5562V1.35812H63.3959C66.3108 1.35812 68.6033 2.11721 70.2732 3.63538C71.9736 5.12318 72.8238 7.37007 72.8238 10.376C72.8238 12.9266 71.9584 14.9457 70.2277 16.4335C68.497 17.891 66.2197 18.6197 63.3959 18.6197H58.9325V27ZM62.4395 6.45917H58.9325V14.1563H62.4395C63.7148 14.1563 64.8078 13.8375 65.7187 13.1998C66.6296 12.5318 67.0851 11.5602 67.0851 10.285C67.0851 8.97933 66.6296 8.02289 65.7187 7.41562C64.8382 6.77799 63.7451 6.45917 62.4395 6.45917ZM94.7768 27.4555C92.4389 27.4555 90.526 27.0455 89.0382 26.2257C87.5504 25.3756 86.4269 24.3432 85.6678 23.1287C84.9391 21.9141 84.4988 20.7451 84.347 19.6217L90.6322 18.6653C90.693 19.0296 90.8752 19.5002 91.1788 20.0771C91.5128 20.6237 91.9834 21.1095 92.5907 21.5346C93.198 21.9597 93.9874 22.1722 94.959 22.1722C96.1736 22.1722 97.0996 21.8079 97.7373 21.0791C98.4053 20.3201 98.8 19.4699 98.9214 18.5286C99.0429 17.4659 98.7696 16.4791 98.1016 15.5682C97.4336 14.6269 96.3861 14.1563 94.959 14.1563C94.1392 14.1563 93.4864 14.3233 93.0006 14.6573C92.5451 14.9913 92.2111 15.3405 91.9986 15.7048C91.8164 16.0388 91.7101 16.221 91.6798 16.2514L84.9847 15.2494L86.4421 1.35812H104.022V6.77799H90.7689L89.9946 13.7464C89.9946 13.7464 90.1161 13.5642 90.359 13.1998C90.6019 12.8051 90.9966 12.3648 91.5431 11.879C92.0897 11.3932 92.8032 10.9681 93.6838 10.6038C94.5643 10.209 95.6422 10.0117 96.9175 10.0117C98.9214 10.0117 100.561 10.4368 101.836 11.2869C103.112 12.1068 104.022 13.1695 104.569 14.4751C105.146 15.7807 105.374 17.1623 105.252 18.6197C105.131 20.0771 104.63 21.489 103.749 22.8554C102.869 24.1914 101.669 25.2997 100.151 26.1802C98.633 27.0304 96.8416 27.4555 94.7768 27.4555ZM145.115 1.35812H151.855L147.119 27H136.962L134.548 9.37406L132.408 27H122.206L117.15 1.35812H123.891L127.261 24.4039L131.132 1.49476L131.087 1.35812H137.919L142.063 24.4039L145.115 1.35812ZM168.56 21.5801V27H155.625V21.5801H158.95V6.77799H155.625V1.35812H168.56V6.77799H165.28V21.5801H168.56ZM191.197 1.35812H197.847V27H185.641L180.858 4.13637H180.767V27H174.163V1.35812H185.459L191.106 24.2218H191.197V1.35812ZM219.885 1.35812H226.535V27H214.329L209.547 4.13637H209.455V27H202.851V1.35812H214.147L219.794 24.2218H219.885V1.35812ZM237.551 21.9445H251.215V27H231.312V1.35812H250.714V6.77799H237.551V11.4691H247.344V16.5702H237.551V21.9445ZM255.152 27V1.35812H265.582C268.921 1.35812 271.563 1.95021 273.506 3.13438C275.45 4.31855 276.421 6.30736 276.421 9.10079C276.421 11.4084 275.905 13.1998 274.873 14.4751C273.871 15.7504 272.504 16.388 270.774 16.388C271.624 16.388 272.261 16.5854 272.687 16.9801C273.142 17.3444 273.461 17.8303 273.643 18.4375C273.856 19.0144 274.023 19.6065 274.144 20.2138C274.265 20.8211 274.432 21.3676 274.645 21.8534C274.858 22.3089 275.192 22.6125 275.647 22.7643C276.133 22.8858 276.816 22.7643 277.697 22.3999V25.8614C276.846 26.5901 275.905 27.0607 274.873 27.2733C273.84 27.5162 272.854 27.4555 271.912 27.0911C271.001 26.7571 270.242 26.1043 269.635 25.1327C269.028 24.1307 268.724 22.7795 268.724 21.0791C268.724 20.3504 268.663 19.6976 268.542 19.1207C268.451 18.5134 268.178 18.0124 267.722 17.6177C267.267 17.223 266.553 16.9649 265.582 16.8434C264.61 16.6916 263.259 16.6916 261.528 16.8434V27H255.152ZM261.528 12.38H264.716C266.113 12.38 267.252 12.3648 268.132 12.3345C269.013 12.3041 269.665 12.1068 270.09 11.7424C270.546 11.3477 270.774 10.6493 270.774 9.64733C270.774 8.52388 270.5 7.74962 269.954 7.32453C269.438 6.86908 268.663 6.61099 267.631 6.55026C266.629 6.48953 265.384 6.45917 263.896 6.45917H261.528V12.38ZM292.049 27.4555C290.591 27.4555 289.164 27.2885 287.768 26.9545C286.371 26.6205 285.111 26.0891 283.987 25.3604C282.864 24.6013 281.953 23.6297 281.255 22.4455C280.587 21.2613 280.253 19.8342 280.253 18.1643H286.629C286.629 18.3464 286.69 18.6349 286.811 19.0296C286.963 19.394 287.236 19.7887 287.631 20.2138C288.056 20.6389 288.648 21.0032 289.407 21.3069C290.197 21.5801 291.244 21.7168 292.55 21.7168C293.127 21.7168 293.719 21.6712 294.326 21.5801C294.933 21.489 295.45 21.3069 295.875 21.0336C296.3 20.73 296.512 20.2745 296.512 19.6672C296.512 19.0296 296.209 18.5286 295.601 18.1643C295.025 17.7999 294.25 17.5114 293.279 17.2989C292.337 17.056 291.29 16.8131 290.136 16.5702C289.013 16.3273 287.889 16.0236 286.766 15.6593C285.642 15.2949 284.61 14.8091 283.669 14.2018C282.758 13.5642 282.044 12.7596 281.528 11.7879C281.042 10.786 280.845 9.54106 280.936 8.05325C281.088 5.80636 282.15 4.06047 284.124 2.81557C286.098 1.5403 288.846 0.902674 292.368 0.902674C294.25 0.902674 296.011 1.23667 297.651 1.90467C299.321 2.57266 300.672 3.58983 301.704 4.95618C302.767 6.32254 303.299 8.05325 303.299 10.1483H297.15C297.15 9.20706 296.831 8.5087 296.194 8.05325C295.586 7.56744 294.842 7.24862 293.962 7.0968C293.112 6.94499 292.337 6.86908 291.639 6.86908C290.516 6.86908 289.574 7.00571 288.815 7.27898C288.086 7.55225 287.722 8.08361 287.722 8.87306C287.722 9.57142 288.026 10.118 288.633 10.5127C289.24 10.877 290.03 11.1807 291.001 11.4236C291.973 11.6361 293.036 11.8639 294.19 12.1068C295.374 12.3193 296.543 12.5926 297.696 12.9266C298.85 13.2606 299.883 13.7312 300.794 14.3385C301.735 14.9154 302.464 15.6896 302.98 16.6613C303.526 17.6329 303.739 18.8778 303.617 20.396C303.466 22.6125 302.342 24.3432 300.247 25.5881C298.182 26.833 295.45 27.4555 292.049 27.4555Z"/>
</mask>
<path d="M0.652625 6.77799V1.35812H20.9202V6.77799H13.9518V27H7.57548V6.77799H0.652625ZM35.8348 27.6376C31.5839 27.6376 28.335 26.4383 26.0881 24.0396C23.8412 21.6105 22.7178 18.3464 22.7178 14.2474C22.7178 11.545 23.2036 9.20706 24.1752 7.23344C25.1469 5.22946 26.6043 3.68092 28.5476 2.58784C30.4908 1.4644 32.9199 0.902674 35.8348 0.902674C40.0856 0.902674 43.3193 2.11721 45.5359 4.54628C47.7524 6.94499 48.8607 10.1787 48.8607 14.2474C48.8607 16.889 48.3597 19.227 47.3577 21.2613C46.386 23.2653 44.9286 24.829 42.9853 25.9525C41.0725 27.0759 38.6889 27.6376 35.8348 27.6376ZM35.7437 21.489C37.2922 21.489 38.5675 21.1702 39.5695 20.5326C40.6018 19.8646 41.3609 18.9841 41.8467 17.891C42.3629 16.7675 42.621 15.553 42.621 14.2474C42.621 12.9114 42.3629 11.6817 41.8467 10.5582C41.3609 9.43478 40.6018 8.53906 39.5695 7.87107C38.5675 7.20307 37.2922 6.86908 35.7437 6.86908C33.5271 6.86908 31.8268 7.56744 30.6426 8.96415C29.4888 10.3609 28.9119 12.1219 28.9119 14.2474C28.9119 15.5226 29.1548 16.722 29.6406 17.8454C30.1568 18.9385 30.9159 19.8191 31.9179 20.4871C32.9199 21.155 34.1951 21.489 35.7437 21.489ZM58.9325 27H52.5562V1.35812H63.3959C66.3108 1.35812 68.6033 2.11721 70.2732 3.63538C71.9736 5.12318 72.8238 7.37007 72.8238 10.376C72.8238 12.9266 71.9584 14.9457 70.2277 16.4335C68.497 17.891 66.2197 18.6197 63.3959 18.6197H58.9325V27ZM62.4395 6.45917H58.9325V14.1563H62.4395C63.7148 14.1563 64.8078 13.8375 65.7187 13.1998C66.6296 12.5318 67.0851 11.5602 67.0851 10.285C67.0851 8.97933 66.6296 8.02289 65.7187 7.41562C64.8382 6.77799 63.7451 6.45917 62.4395 6.45917ZM94.7768 27.4555C92.4389 27.4555 90.526 27.0455 89.0382 26.2257C87.5504 25.3756 86.4269 24.3432 85.6678 23.1287C84.9391 21.9141 84.4988 20.7451 84.347 19.6217L90.6322 18.6653C90.693 19.0296 90.8752 19.5002 91.1788 20.0771C91.5128 20.6237 91.9834 21.1095 92.5907 21.5346C93.198 21.9597 93.9874 22.1722 94.959 22.1722C96.1736 22.1722 97.0996 21.8079 97.7373 21.0791C98.4053 20.3201 98.8 19.4699 98.9214 18.5286C99.0429 17.4659 98.7696 16.4791 98.1016 15.5682C97.4336 14.6269 96.3861 14.1563 94.959 14.1563C94.1392 14.1563 93.4864 14.3233 93.0006 14.6573C92.5451 14.9913 92.2111 15.3405 91.9986 15.7048C91.8164 16.0388 91.7101 16.221 91.6798 16.2514L84.9847 15.2494L86.4421 1.35812H104.022V6.77799H90.7689L89.9946 13.7464C89.9946 13.7464 90.1161 13.5642 90.359 13.1998C90.6019 12.8051 90.9966 12.3648 91.5431 11.879C92.0897 11.3932 92.8032 10.9681 93.6838 10.6038C94.5643 10.209 95.6422 10.0117 96.9175 10.0117C98.9214 10.0117 100.561 10.4368 101.836 11.2869C103.112 12.1068 104.022 13.1695 104.569 14.4751C105.146 15.7807 105.374 17.1623 105.252 18.6197C105.131 20.0771 104.63 21.489 103.749 22.8554C102.869 24.1914 101.669 25.2997 100.151 26.1802C98.633 27.0304 96.8416 27.4555 94.7768 27.4555ZM145.115 1.35812H151.855L147.119 27H136.962L134.548 9.37406L132.408 27H122.206L117.15 1.35812H123.891L127.261 24.4039L131.132 1.49476L131.087 1.35812H137.919L142.063 24.4039L145.115 1.35812ZM168.56 21.5801V27H155.625V21.5801H158.95V6.77799H155.625V1.35812H168.56V6.77799H165.28V21.5801H168.56ZM191.197 1.35812H197.847V27H185.641L180.858 4.13637H180.767V27H174.163V1.35812H185.459L191.106 24.2218H191.197V1.35812ZM219.885 1.35812H226.535V27H214.329L209.547 4.13637H209.455V27H202.851V1.35812H214.147L219.794 24.2218H219.885V1.35812ZM237.551 21.9445H251.215V27H231.312V1.35812H250.714V6.77799H237.551V11.4691H247.344V16.5702H237.551V21.9445ZM255.152 27V1.35812H265.582C268.921 1.35812 271.563 1.95021 273.506 3.13438C275.45 4.31855 276.421 6.30736 276.421 9.10079C276.421 11.4084 275.905 13.1998 274.873 14.4751C273.871 15.7504 272.504 16.388 270.774 16.388C271.624 16.388 272.261 16.5854 272.687 16.9801C273.142 17.3444 273.461 17.8303 273.643 18.4375C273.856 19.0144 274.023 19.6065 274.144 20.2138C274.265 20.8211 274.432 21.3676 274.645 21.8534C274.858 22.3089 275.192 22.6125 275.647 22.7643C276.133 22.8858 276.816 22.7643 277.697 22.3999V25.8614C276.846 26.5901 275.905 27.0607 274.873 27.2733C273.84 27.5162 272.854 27.4555 271.912 27.0911C271.001 26.7571 270.242 26.1043 269.635 25.1327C269.028 24.1307 268.724 22.7795 268.724 21.0791C268.724 20.3504 268.663 19.6976 268.542 19.1207C268.451 18.5134 268.178 18.0124 267.722 17.6177C267.267 17.223 266.553 16.9649 265.582 16.8434C264.61 16.6916 263.259 16.6916 261.528 16.8434V27H255.152ZM261.528 12.38H264.716C266.113 12.38 267.252 12.3648 268.132 12.3345C269.013 12.3041 269.665 12.1068 270.09 11.7424C270.546 11.3477 270.774 10.6493 270.774 9.64733C270.774 8.52388 270.5 7.74962 269.954 7.32453C269.438 6.86908 268.663 6.61099 267.631 6.55026C266.629 6.48953 265.384 6.45917 263.896 6.45917H261.528V12.38ZM292.049 27.4555C290.591 27.4555 289.164 27.2885 287.768 26.9545C286.371 26.6205 285.111 26.0891 283.987 25.3604C282.864 24.6013 281.953 23.6297 281.255 22.4455C280.587 21.2613 280.253 19.8342 280.253 18.1643H286.629C286.629 18.3464 286.69 18.6349 286.811 19.0296C286.963 19.394 287.236 19.7887 287.631 20.2138C288.056 20.6389 288.648 21.0032 289.407 21.3069C290.197 21.5801 291.244 21.7168 292.55 21.7168C293.127 21.7168 293.719 21.6712 294.326 21.5801C294.933 21.489 295.45 21.3069 295.875 21.0336C296.3 20.73 296.512 20.2745 296.512 19.6672C296.512 19.0296 296.209 18.5286 295.601 18.1643C295.025 17.7999 294.25 17.5114 293.279 17.2989C292.337 17.056 291.29 16.8131 290.136 16.5702C289.013 16.3273 287.889 16.0236 286.766 15.6593C285.642 15.2949 284.61 14.8091 283.669 14.2018C282.758 13.5642 282.044 12.7596 281.528 11.7879C281.042 10.786 280.845 9.54106 280.936 8.05325C281.088 5.80636 282.15 4.06047 284.124 2.81557C286.098 1.5403 288.846 0.902674 292.368 0.902674C294.25 0.902674 296.011 1.23667 297.651 1.90467C299.321 2.57266 300.672 3.58983 301.704 4.95618C302.767 6.32254 303.299 8.05325 303.299 10.1483H297.15C297.15 9.20706 296.831 8.5087 296.194 8.05325C295.586 7.56744 294.842 7.24862 293.962 7.0968C293.112 6.94499 292.337 6.86908 291.639 6.86908C290.516 6.86908 289.574 7.00571 288.815 7.27898C288.086 7.55225 287.722 8.08361 287.722 8.87306C287.722 9.57142 288.026 10.118 288.633 10.5127C289.24 10.877 290.03 11.1807 291.001 11.4236C291.973 11.6361 293.036 11.8639 294.19 12.1068C295.374 12.3193 296.543 12.5926 297.696 12.9266C298.85 13.2606 299.883 13.7312 300.794 14.3385C301.735 14.9154 302.464 15.6896 302.98 16.6613C303.526 17.6329 303.739 18.8778 303.617 20.396C303.466 22.6125 302.342 24.3432 300.247 25.5881C298.182 26.833 295.45 27.4555 292.049 27.4555Z" fill="url(#paint0_linear_697_15734)"/>
<path d="M0.652625 6.77799H-2.89583V10.3264H0.652625V6.77799ZM0.652625 1.35812V-2.19033H-2.89583V1.35812H0.652625ZM20.9202 1.35812H24.4686V-2.19033H20.9202V1.35812ZM20.9202 6.77799V10.3264H24.4686V6.77799H20.9202ZM13.9518 6.77799V3.22953H10.4033V6.77799H13.9518ZM13.9518 27V30.5485H17.5002V27H13.9518ZM7.57548 27H4.02702V30.5485H7.57548V27ZM7.57548 6.77799H11.1239V3.22953H7.57548V6.77799ZM4.20108 6.77799V1.35812H-2.89583V6.77799H4.20108ZM0.652625 4.90658H20.9202V-2.19033H0.652625V4.90658ZM17.3717 1.35812V6.77799H24.4686V1.35812H17.3717ZM20.9202 3.22953H13.9518V10.3264H20.9202V3.22953ZM10.4033 6.77799V27H17.5002V6.77799H10.4033ZM13.9518 23.4515H7.57548V30.5485H13.9518V23.4515ZM11.1239 27V6.77799H4.02702V27H11.1239ZM7.57548 3.22953H0.652625V10.3264H7.57548V3.22953ZM26.0881 24.0396L23.4832 26.4491L23.4908 26.4573L23.4984 26.4654L26.0881 24.0396ZM24.1752 7.23344L27.3588 8.80074L27.3635 8.79115L27.3682 8.78154L24.1752 7.23344ZM28.5476 2.58784L30.2872 5.68059L30.3055 5.67033L30.3236 5.65986L28.5476 2.58784ZM45.5359 4.54628L42.9147 6.93812L42.9222 6.94633L42.9297 6.95449L45.5359 4.54628ZM47.3577 21.2613L44.1744 19.6934L44.1695 19.7033L44.1647 19.7132L47.3577 21.2613ZM42.9853 25.9525L41.2093 22.8804L41.1988 22.8865L41.1883 22.8927L42.9853 25.9525ZM39.5695 20.5326L41.4745 23.5263L41.4859 23.5191L41.4972 23.5118L39.5695 20.5326ZM41.8467 17.891L38.6223 16.4095L38.6131 16.4296L38.6041 16.4498L41.8467 17.891ZM41.8467 10.5582L38.5897 11.9667L38.6056 12.0034L38.6223 12.0397L41.8467 10.5582ZM39.5695 7.87107L37.6011 10.8236L37.6214 10.837L37.6418 10.8502L39.5695 7.87107ZM30.6426 8.96415L27.936 6.66942L27.9213 6.68672L27.9069 6.7042L30.6426 8.96415ZM29.6406 17.8454L26.3837 19.2539L26.4069 19.3077L26.4319 19.3607L29.6406 17.8454ZM31.9179 20.4871L29.9496 23.4395H29.9496L31.9179 20.4871ZM35.8348 24.0892C32.2615 24.0892 30.0712 23.1012 28.6779 21.6137L23.4984 26.4654C26.5988 29.7754 30.9063 31.1861 35.8348 31.1861V24.0892ZM28.693 21.63C27.1891 20.0041 26.2662 17.6765 26.2662 14.2474H19.1693C19.1693 19.0164 20.4934 23.2169 23.4832 26.4491L28.693 21.63ZM26.2662 14.2474C26.2662 11.9667 26.6758 10.1881 27.3588 8.80074L20.9917 5.66614C19.7314 8.22601 19.1693 11.1234 19.1693 14.2474H26.2662ZM27.3682 8.78154C28.0238 7.42933 28.9738 6.4194 30.2872 5.68059L26.8079 -0.504906C24.2348 0.942444 22.2699 3.02958 20.9823 5.68534L27.3682 8.78154ZM30.3236 5.65986C31.5889 4.92837 33.3618 4.45113 35.8348 4.45113V-2.64578C32.478 -2.64578 29.3928 -1.99957 26.7715 -0.48418L30.3236 5.65986ZM35.8348 4.45113C39.3976 4.45113 41.554 5.44701 42.9147 6.93812L48.1571 2.15444C45.0846 -1.21259 40.7737 -2.64578 35.8348 -2.64578V4.45113ZM42.9297 6.95449C44.401 8.54666 45.3122 10.8421 45.3122 14.2474H52.4091C52.4091 9.51524 51.1038 5.34331 48.142 2.13806L42.9297 6.95449ZM45.3122 14.2474C45.3122 16.4347 44.8995 18.2212 44.1744 19.6934L50.541 22.8292C51.8198 20.2328 52.4091 17.3433 52.4091 14.2474H45.3122ZM44.1647 19.7132C43.5051 21.0737 42.5438 22.109 41.2093 22.8804L44.7614 29.0245C47.3134 27.5491 49.267 25.4569 50.5506 22.8094L44.1647 19.7132ZM41.1883 22.8927C39.9552 23.6169 38.2346 24.0892 35.8348 24.0892V31.1861C39.1433 31.1861 42.1897 30.5349 44.7824 29.0122L41.1883 22.8927ZM35.7437 25.0375C37.7655 25.0375 39.7542 24.6211 41.4745 23.5263L37.6644 17.5389C37.3808 17.7194 36.8189 17.9406 35.7437 17.9406V25.0375ZM41.4972 23.5118C43.0907 22.4807 44.3156 21.073 45.0893 19.3321L38.6041 16.4498C38.4062 16.8951 38.1129 17.2485 37.6418 17.5534L41.4972 23.5118ZM45.0711 19.3725C45.8127 17.7584 46.1694 16.0352 46.1694 14.2474H39.0725C39.0725 15.0709 38.9131 15.7766 38.6223 16.4095L45.0711 19.3725ZM46.1694 14.2474C46.1694 12.4418 45.8176 10.7015 45.0711 9.07675L38.6223 12.0397C38.9082 12.6619 39.0725 13.381 39.0725 14.2474H46.1694ZM45.1037 9.14981C44.3383 7.37982 43.1151 5.93881 41.4972 4.89189L37.6418 10.8502C38.0885 11.1393 38.3835 11.4897 38.5897 11.9667L45.1037 9.14981ZM41.5378 4.91858C39.807 3.76471 37.794 3.32062 35.7437 3.32062V10.4175C36.7904 10.4175 37.3279 10.6414 37.6011 10.8236L41.5378 4.91858ZM35.7437 3.32062C32.7252 3.32062 29.9359 4.31058 27.936 6.66942L33.3492 11.2589C33.7177 10.8243 34.3291 10.4175 35.7437 10.4175V3.32062ZM27.9069 6.7042C26.1397 8.84351 25.3635 11.4468 25.3635 14.2474H32.4604C32.4604 12.797 32.838 11.8782 33.3784 11.2241L27.9069 6.7042ZM25.3635 14.2474C25.3635 15.9864 25.6975 17.6671 26.3837 19.2539L32.8976 16.437C32.6121 15.7769 32.4604 15.0589 32.4604 14.2474H25.3635ZM26.4319 19.3607C27.2223 21.0342 28.4091 22.4126 29.9496 23.4395L33.8862 17.5346C33.4227 17.2255 33.0914 16.8428 32.8493 16.3302L26.4319 19.3607ZM29.9496 23.4395C31.6804 24.5934 33.6933 25.0375 35.7437 25.0375V17.9406C34.6969 17.9406 34.1594 17.7167 33.8862 17.5346L29.9496 23.4395ZM58.9325 27V30.5485H62.481V27H58.9325ZM52.5562 27H49.0078V30.5485H52.5562V27ZM52.5562 1.35812V-2.19033H49.0078V1.35812H52.5562ZM70.2732 3.63538L67.8863 6.26102L67.9112 6.28368L67.9366 6.30586L70.2732 3.63538ZM70.2277 16.4335L72.5134 19.1478L72.5272 19.1362L72.5409 19.1244L70.2277 16.4335ZM58.9325 18.6197V15.0713H55.3841V18.6197H58.9325ZM58.9325 6.45917V2.91072H55.3841V6.45917H58.9325ZM58.9325 14.1563H55.3841V17.7047H58.9325V14.1563ZM65.7187 13.1998L67.7536 16.1069L67.7857 16.0844L67.8172 16.0613L65.7187 13.1998ZM65.7187 7.41562L63.6375 10.2897L63.6932 10.33L63.7504 10.3681L65.7187 7.41562ZM58.9325 23.4515H52.5562V30.5485H58.9325V23.4515ZM56.1047 27V1.35812H49.0078V27H56.1047ZM52.5562 4.90658H63.3959V-2.19033H52.5562V4.90658ZM63.3959 4.90658C65.6931 4.90658 67.0421 5.49361 67.8863 6.26102L72.6602 1.00973C70.1644 -1.2592 66.9285 -2.19033 63.3959 -2.19033V4.90658ZM67.9366 6.30586C68.6336 6.91574 69.2753 8.03608 69.2753 10.376H76.3722C76.3722 6.70407 75.3136 3.33063 72.6099 0.964891L67.9366 6.30586ZM69.2753 10.376C69.2753 12.0287 68.7633 13.013 67.9145 13.7427L72.5409 19.1244C75.1535 16.8784 76.3722 13.8244 76.3722 10.376H69.2753ZM67.942 13.7193C66.9975 14.5146 65.5971 15.0713 63.3959 15.0713V22.1682C66.8423 22.1682 69.9965 21.2673 72.5134 19.1478L67.942 13.7193ZM63.3959 15.0713H58.9325V22.1682H63.3959V15.0713ZM55.3841 18.6197V27H62.481V18.6197H55.3841ZM62.4395 2.91072H58.9325V10.0076H62.4395V2.91072ZM55.3841 6.45917V14.1563H62.481V6.45917H55.3841ZM58.9325 17.7047H62.4395V10.6078H58.9325V17.7047ZM62.4395 17.7047C64.3322 17.7047 66.1617 17.2212 67.7536 16.1069L63.6838 10.2928C63.454 10.4537 63.0974 10.6078 62.4395 10.6078V17.7047ZM67.8172 16.0613C69.7668 14.6316 70.6336 12.5229 70.6336 10.285H63.5366C63.5366 10.3931 63.527 10.4549 63.522 10.4795C63.5173 10.5025 63.5167 10.4935 63.5305 10.464C63.5448 10.4335 63.5658 10.3999 63.5905 10.3703C63.6146 10.3413 63.6292 10.3318 63.6203 10.3384L67.8172 16.0613ZM70.6336 10.285C70.6336 8.05596 69.7856 5.86216 67.6871 4.46312L63.7504 10.3681C63.7315 10.3555 63.6908 10.3245 63.6444 10.2714C63.5975 10.2177 63.5624 10.1617 63.5397 10.114C63.494 10.018 63.5366 10.04 63.5366 10.285H70.6336ZM67.7999 4.54158C66.2003 3.38323 64.3388 2.91072 62.4395 2.91072V10.0076C63.1515 10.0076 63.4761 10.1727 63.6375 10.2897L67.7999 4.54158ZM89.0382 26.2257L87.2776 29.3067L87.3016 29.3203L87.3257 29.3336L89.0382 26.2257ZM85.6678 23.1287L82.6251 24.9543L82.6417 24.982L82.6587 25.0093L85.6678 23.1287ZM84.347 19.6217L83.8132 16.1136L80.3632 16.6386L80.8305 20.0969L84.347 19.6217ZM90.6322 18.6653L94.1324 18.0819L93.5572 14.6308L90.0984 15.1572L90.6322 18.6653ZM91.1788 20.0771L88.0387 21.7298L88.0917 21.8305L88.151 21.9275L91.1788 20.0771ZM92.5907 21.5346L94.6256 18.6276L92.5907 21.5346ZM97.7373 21.0791L95.0734 18.7349L95.0668 18.7425L97.7373 21.0791ZM98.9214 18.5286L102.441 18.9827L102.444 18.9571L102.447 18.9315L98.9214 18.5286ZM98.1016 15.5682L95.2078 17.6218L95.2238 17.6444L95.2401 17.6666L98.1016 15.5682ZM93.0006 14.6573L90.9903 11.7332L90.9457 11.7638L90.9022 11.7958L93.0006 14.6573ZM91.9986 15.7048L88.9335 13.9169L88.9078 13.9609L88.8834 14.0056L91.9986 15.7048ZM91.6798 16.2514L91.1546 19.7607L92.9239 20.0255L94.1889 18.7605L91.6798 16.2514ZM84.9847 15.2494L81.4556 14.8791L81.1013 18.2562L84.4594 18.7587L84.9847 15.2494ZM86.4421 1.35812V-2.19033H83.2465L82.913 0.98786L86.4421 1.35812ZM104.022 1.35812H107.571V-2.19033H104.022V1.35812ZM104.022 6.77799V10.3264H107.571V6.77799H104.022ZM90.7689 6.77799V3.22953H87.5929L87.2421 6.38613L90.7689 6.77799ZM89.9946 13.7464L86.4679 13.3545L92.9471 15.7147L89.9946 13.7464ZM90.359 13.1998L93.3115 15.1682L93.3472 15.1145L93.3811 15.0596L90.359 13.1998ZM91.5431 11.879L93.9006 14.5312L91.5431 11.879ZM93.6838 10.6038L95.0405 13.8826L95.0882 13.8629L95.1353 13.8418L93.6838 10.6038ZM101.836 11.2869L99.868 14.2394L99.8926 14.2558L99.9175 14.2718L101.836 11.2869ZM104.569 14.4751L101.296 15.8453L101.309 15.8774L101.323 15.9093L104.569 14.4751ZM105.252 18.6197L101.716 18.325L105.252 18.6197ZM103.749 22.8554L106.712 24.8082L106.722 24.7929L106.732 24.7776L103.749 22.8554ZM100.151 26.1802L101.885 29.2762L101.908 29.2632L101.931 29.2497L100.151 26.1802ZM94.7768 23.907C92.8231 23.907 91.5536 23.5603 90.7507 23.1179L87.3257 29.3336C89.4984 30.5308 92.0546 31.0039 94.7768 31.0039V23.907ZM90.7987 23.1448C89.7203 22.5286 89.0698 21.8765 88.6769 21.248L82.6587 25.0093C83.7841 26.8099 85.3805 28.2226 87.2776 29.3067L90.7987 23.1448ZM88.7106 21.303C88.17 20.402 87.9368 19.6891 87.8635 19.1465L80.8305 20.0969C81.0608 21.8012 81.7082 23.4263 82.6251 24.9543L88.7106 21.303ZM84.8809 23.1298L91.1661 22.1733L90.0984 15.1572L83.8132 16.1136L84.8809 23.1298ZM87.1321 19.2486C87.2852 20.1676 87.6718 21.0328 88.0387 21.7298L94.3189 18.4245C94.2133 18.2238 94.1538 18.0884 94.1236 18.0105C94.1092 17.9733 94.1056 17.9596 94.1078 17.9673C94.1098 17.9741 94.1211 18.0138 94.1324 18.0819L87.1321 19.2486ZM88.151 21.9275C88.7766 22.9513 89.6108 23.7801 90.5558 24.4416L94.6256 18.6276C94.3561 18.4389 94.2489 18.2961 94.2066 18.2268L88.151 21.9275ZM90.5558 24.4416C91.92 25.3966 93.4836 25.7207 94.959 25.7207V18.6238C94.7281 18.6238 94.6044 18.5981 94.5607 18.5864C94.5233 18.5763 94.5584 18.5806 94.6256 18.6276L90.5558 24.4416ZM94.959 25.7207C96.9162 25.7207 98.9313 25.1032 100.408 23.4158L95.0668 18.7425C95.0932 18.7123 95.1291 18.679 95.172 18.649C95.2145 18.6193 95.2488 18.6034 95.2653 18.5969C95.2962 18.5847 95.2168 18.6238 94.959 18.6238V25.7207ZM100.401 23.4233C101.504 22.17 102.223 20.6719 102.441 18.9827L95.4022 18.0745C95.3772 18.2678 95.3065 18.4701 95.0734 18.7349L100.401 23.4233ZM102.447 18.9315C102.676 16.928 102.127 15.0568 100.963 13.4698L95.2401 17.6666C95.4123 17.9014 95.4099 18.0038 95.3959 18.1257L102.447 18.9315ZM100.995 13.5145C99.5028 11.4113 97.2302 10.6078 94.959 10.6078V17.7047C95.2895 17.7047 95.3911 17.7597 95.3608 17.7461C95.3446 17.7388 95.3119 17.7211 95.2746 17.6903C95.2373 17.6597 95.2154 17.6325 95.2078 17.6218L100.995 13.5145ZM94.959 10.6078C93.693 10.6078 92.2576 10.8619 90.9903 11.7332L95.0109 17.5814C94.8646 17.682 94.7548 17.714 94.734 17.7193C94.719 17.7231 94.7842 17.7047 94.959 17.7047V10.6078ZM90.9022 11.7958C90.1801 12.3253 89.4593 13.0156 88.9335 13.9169L95.0637 17.4928C95.0111 17.5829 94.9709 17.6243 94.9728 17.6224C94.9733 17.6218 94.9828 17.612 95.0038 17.5939C95.0248 17.5757 95.0559 17.5504 95.099 17.5188L90.9022 11.7958ZM88.8834 14.0056C88.7979 14.1624 88.7448 14.2567 88.7172 14.304C88.7018 14.3303 88.7092 14.3166 88.7319 14.2813C88.7428 14.2644 88.7732 14.2173 88.8181 14.1553C88.841 14.1235 88.8778 14.0738 88.9259 14.0143C88.9688 13.9611 89.053 13.8599 89.1706 13.7422L94.1889 18.7605C94.3997 18.5497 94.5385 18.356 94.5714 18.3104C94.6285 18.2313 94.6737 18.1625 94.7017 18.119C94.7586 18.0305 94.8095 17.9447 94.8473 17.8799C94.926 17.7451 95.0171 17.5813 95.1138 17.404L88.8834 14.0056ZM92.205 12.742L85.5099 11.74L84.4594 18.7587L91.1546 19.7607L92.205 12.742ZM88.5137 15.6196L89.9712 1.72839L82.913 0.98786L81.4556 14.8791L88.5137 15.6196ZM86.4421 4.90658H104.022V-2.19033H86.4421V4.90658ZM100.474 1.35812V6.77799H107.571V1.35812H100.474ZM104.022 3.22953H90.7689V10.3264H104.022V3.22953ZM87.2421 6.38613L86.4679 13.3545L93.5214 14.1382L94.2956 7.16985L87.2421 6.38613ZM89.9946 13.7464C92.9471 15.7147 92.9471 15.7147 92.9471 15.7147C92.9471 15.7147 92.9471 15.7147 92.9471 15.7147C92.9471 15.7147 92.9471 15.7147 92.9471 15.7147C92.9471 15.7147 92.9471 15.7147 92.9471 15.7147C92.9472 15.7146 92.9471 15.7147 92.9472 15.7146C92.9472 15.7146 92.9472 15.7146 92.9472 15.7145C92.9472 15.7145 92.9472 15.7145 92.9473 15.7145C92.9473 15.7145 92.9473 15.7145 92.9473 15.7145C92.9473 15.7144 92.9473 15.7144 92.9473 15.7144C92.9473 15.7144 92.9473 15.7144 92.9473 15.7144C92.9474 15.7143 92.9474 15.7143 92.9474 15.7143C92.9474 15.7143 92.9474 15.7143 92.9474 15.7142C92.9474 15.7142 92.9474 15.7142 92.9475 15.7142C92.9479 15.7136 92.9474 15.7142 92.9479 15.7135C92.9487 15.7124 92.9477 15.7138 92.9485 15.7126C92.9716 15.6779 92.9288 15.7422 92.9528 15.7062C92.9604 15.6948 92.9514 15.7083 92.9599 15.6955C93.105 15.4779 92.8238 15.8996 92.9699 15.6806C92.9702 15.6801 92.971 15.6789 92.9713 15.6784C92.9806 15.6645 92.9635 15.6901 92.9728 15.6762C92.9738 15.6746 92.9733 15.6754 92.9743 15.6739C92.9759 15.6716 92.9744 15.6738 92.9759 15.6715C92.9768 15.6702 92.9816 15.663 92.9827 15.6613C93.0222 15.6021 92.9579 15.6986 92.9983 15.6379C93.0173 15.6094 92.9969 15.64 93.0168 15.6101C93.0399 15.5755 92.9988 15.6372 93.0219 15.6025C93.0225 15.6016 93.0265 15.5956 93.0272 15.5946C93.0279 15.5935 93.0278 15.5937 93.0285 15.5926C93.03 15.5903 93.0283 15.5929 93.0299 15.5906C93.047 15.5649 93.0155 15.6121 93.0326 15.5865C93.0344 15.5837 93.0363 15.5809 93.0382 15.5781C93.0629 15.5411 93.0368 15.5802 93.0624 15.5418C93.0689 15.532 93.0688 15.5321 93.0756 15.522C93.1113 15.4685 93.0466 15.5654 93.0824 15.5118C93.0827 15.5113 93.083 15.5109 93.0833 15.5105C93.0836 15.51 93.0839 15.5096 93.0842 15.5092C93.0844 15.5087 93.0847 15.5083 93.085 15.5078C93.0853 15.5074 93.0856 15.507 93.0859 15.5065C93.0862 15.5061 93.0891 15.5017 93.0894 15.5012C93.1089 15.472 93.0771 15.5197 93.0966 15.4904C93.0988 15.4871 93.1018 15.4827 93.104 15.4793C93.1889 15.3521 93.0342 15.584 93.1193 15.4564C93.2063 15.326 93.0642 15.5391 93.1521 15.4073C93.1881 15.3532 93.1507 15.4094 93.1876 15.3539C93.2908 15.1992 93.122 15.4524 93.2261 15.2963C93.2268 15.2951 93.2303 15.2899 93.2311 15.2888C93.2453 15.2675 93.2219 15.3025 93.2361 15.2812C93.3637 15.0898 93.1187 15.4574 93.2464 15.2658C93.2522 15.2571 93.2509 15.2591 93.2568 15.2502C93.2574 15.2492 93.2587 15.2473 93.2594 15.2463C93.2624 15.2418 93.259 15.2469 93.262 15.2423C93.2643 15.239 93.2624 15.2417 93.2647 15.2383C93.2651 15.2377 93.2656 15.237 93.266 15.2364C93.2665 15.2357 93.2669 15.235 93.2673 15.2344C93.3859 15.0565 93.192 15.3474 93.3115 15.1682L87.4065 11.2315C87.3865 11.2615 87.4038 11.2355 87.3841 11.2651C87.3804 11.2707 87.3658 11.2925 87.3624 11.2977C87.3437 11.3257 87.3598 11.3015 87.3414 11.3292C87.335 11.3388 87.3272 11.3504 87.3211 11.3596C87.3182 11.3639 87.3041 11.3851 87.3015 11.389C87.2672 11.4404 87.3167 11.3662 87.2827 11.4173C87.2716 11.4338 87.2845 11.4145 87.2735 11.431C87.2731 11.4316 87.2727 11.4321 87.2724 11.4327C87.272 11.4333 87.2716 11.4338 87.2712 11.4344C87.2709 11.435 87.2705 11.4355 87.2701 11.4361C87.2697 11.4366 87.2694 11.4372 87.269 11.4378C87.2632 11.4464 87.2702 11.4359 87.2645 11.4445C87.2491 11.4676 87.2623 11.4478 87.2471 11.4706C87.2334 11.4912 87.2523 11.4628 87.2386 11.4833C87.2382 11.4839 87.2348 11.489 87.2345 11.4895C87.222 11.5082 87.2428 11.4771 87.2303 11.4957C87.2219 11.5083 87.2347 11.4892 87.2263 11.5018C87.2252 11.5034 87.2253 11.5033 87.2243 11.5048C87.2239 11.5053 87.2236 11.5058 87.2233 11.5063C87.2229 11.5069 87.2226 11.5074 87.2223 11.5079C87.2211 11.5096 87.2214 11.5091 87.2203 11.5108C87.218 11.5142 87.2205 11.5104 87.2183 11.5138C87.2132 11.5215 87.2194 11.5121 87.2143 11.5197C87.2031 11.5365 87.2177 11.5146 87.2066 11.5313C87.189 11.5577 87.2166 11.5164 87.199 11.5427C87.1732 11.5814 87.21 11.5262 87.1844 11.5646C87.1733 11.5813 87.1815 11.569 87.1706 11.5854C87.1549 11.6088 87.1728 11.582 87.1574 11.6051C87.1197 11.6617 87.1887 11.5581 87.1511 11.6146C87.1454 11.6231 87.1506 11.6154 87.145 11.6238C87.1387 11.6333 87.1393 11.6323 87.1332 11.6414C87.1124 11.6727 87.1318 11.6436 87.1119 11.6734C87.1106 11.6753 87.1033 11.6863 87.1023 11.6879C87.0944 11.6997 87.101 11.6897 87.0934 11.7012C87.0276 11.7998 87.1425 11.6275 87.0777 11.7247C87.0382 11.784 87.1035 11.686 87.0649 11.7439C87.063 11.7467 87.0559 11.7574 87.0549 11.7588C87.0009 11.8399 87.1009 11.6899 87.0478 11.7695C87.0439 11.7754 87.049 11.7677 87.0453 11.7733C87.0441 11.775 87.0445 11.7745 87.0435 11.7759C87.0424 11.7776 87.044 11.7753 87.0429 11.7769C87.0428 11.7771 87.0426 11.7774 87.0425 11.7775C87.0423 11.7778 87.0425 11.7775 87.0423 11.7778C87.0423 11.7778 87.0423 11.7778 87.0423 11.7778C87.0423 11.7778 87.0423 11.7778 87.0423 11.7778C87.0422 11.778 87.0423 11.7778 87.0422 11.7779C87.0422 11.778 87.0422 11.778 87.0421 11.778C87.0421 11.778 87.0421 11.778 87.0421 11.778C87.0421 11.778 87.0421 11.778 87.0421 11.778C87.0421 11.778 87.0421 11.778 87.0421 11.7781C87.0421 11.7781 87.0421 11.7781 89.9946 13.7464ZM93.3811 15.0596C93.3658 15.0843 93.3869 15.0454 93.4793 14.9424C93.5692 14.842 93.7051 14.705 93.9006 14.5312L89.1857 9.22689C88.5112 9.82638 87.8349 10.5309 87.3369 11.3401L93.3811 15.0596ZM93.9006 14.5312C94.0765 14.3748 94.4213 14.1388 95.0405 13.8826L92.327 7.32494C91.1852 7.79743 90.1028 8.41163 89.1857 9.22689L93.9006 14.5312ZM95.1353 13.8418C95.4376 13.7063 95.9893 13.5601 96.9175 13.5601V6.46323C95.2951 6.46323 93.691 6.71184 92.2322 7.36577L95.1353 13.8418ZM96.9175 13.5601C98.4335 13.5601 99.3304 13.8811 99.868 14.2394L103.805 8.33446C101.792 6.99249 99.4094 6.46323 96.9175 6.46323V13.5601ZM99.9175 14.2718C100.633 14.7321 101.047 15.2506 101.296 15.8453L107.842 13.1049C106.998 11.0884 105.59 9.48143 103.755 8.30206L99.9175 14.2718ZM101.323 15.9093C101.654 16.6582 101.789 17.4439 101.716 18.325L108.788 18.9144C108.958 16.8806 108.638 14.9032 107.815 13.0409L101.323 15.9093ZM101.716 18.325C101.648 19.1404 101.368 20.0003 100.766 20.9332L106.732 24.7776C107.892 22.9777 108.613 21.0139 108.788 18.9144L101.716 18.325ZM100.786 20.9026C100.237 21.7367 99.4605 22.4787 98.3708 23.1107L101.931 29.2497C103.878 28.1206 105.501 26.6461 106.712 24.8082L100.786 20.9026ZM98.4174 23.0841C97.5199 23.5868 96.3479 23.907 94.7768 23.907V31.0039C97.3352 31.0039 99.7461 30.474 101.885 29.2762L98.4174 23.0841ZM145.115 1.35812V-2.19033H142.005L141.597 0.892336L145.115 1.35812ZM151.855 1.35812L155.345 2.00271L156.119 -2.19033H151.855V1.35812ZM147.119 27V30.5485H150.072L150.608 27.6446L147.119 27ZM136.962 27L133.447 27.4815L133.867 30.5485H136.962V27ZM134.548 9.37406L138.064 8.89259L131.026 8.94625L134.548 9.37406ZM132.408 27V30.5485H135.551L135.93 27.4278L132.408 27ZM122.206 27L118.724 27.6864L119.288 30.5485H122.206V27ZM117.15 1.35812V-2.19033H112.834L113.669 2.04452L117.15 1.35812ZM123.891 1.35812L127.402 0.844643L126.958 -2.19033H123.891V1.35812ZM127.261 24.4039L123.75 24.9174L130.76 24.9952L127.261 24.4039ZM131.132 1.49476L134.631 2.08602L134.779 1.21279L134.499 0.372629L131.132 1.49476ZM131.087 1.35812V-2.19033H126.164L127.721 2.48026L131.087 1.35812ZM137.919 1.35812L141.411 0.73004L140.886 -2.19033H137.919V1.35812ZM142.063 24.4039L138.571 25.032L145.581 24.8697L142.063 24.4039ZM145.115 4.90658H151.855V-2.19033H145.115V4.90658ZM148.366 0.713541L143.629 26.3554L150.608 27.6446L155.345 2.00271L148.366 0.713541ZM147.119 23.4515H136.962V30.5485H147.119V23.4515ZM140.478 26.5185L138.064 8.89259L131.033 9.85553L133.447 27.4815L140.478 26.5185ZM131.026 8.94625L128.885 26.5722L135.93 27.4278L138.071 9.80186L131.026 8.94625ZM132.408 23.4515H122.206V30.5485H132.408V23.4515ZM125.687 26.3136L120.632 0.67173L113.669 2.04452L118.724 27.6864L125.687 26.3136ZM117.15 4.90658H123.891V-2.19033H117.15V4.90658ZM120.38 1.87161L123.75 24.9174L130.772 23.8904L127.402 0.844643L120.38 1.87161ZM130.76 24.9952L134.631 2.08602L127.634 0.903503L123.762 23.8127L130.76 24.9952ZM134.499 0.372629L134.453 0.235994L127.721 2.48026L127.766 2.61689L134.499 0.372629ZM131.087 4.90658H137.919V-2.19033H131.087V4.90658ZM134.426 1.98621L138.571 25.032L145.556 23.7758L141.411 0.73004L134.426 1.98621ZM145.581 24.8697L148.633 1.82391L141.597 0.892336L138.546 23.9381L145.581 24.8697ZM168.56 21.5801H172.108V18.0317H168.56V21.5801ZM168.56 27V30.5485H172.108V27H168.56ZM155.625 27H152.076V30.5485H155.625V27ZM155.625 21.5801V18.0317H152.076V21.5801H155.625ZM158.95 21.5801V25.1286H162.498V21.5801H158.95ZM158.95 6.77799H162.498V3.22953H158.95V6.77799ZM155.625 6.77799H152.076V10.3264H155.625V6.77799ZM155.625 1.35812V-2.19033H152.076V1.35812H155.625ZM168.56 1.35812H172.108V-2.19033H168.56V1.35812ZM168.56 6.77799V10.3264H172.108V6.77799H168.56ZM165.28 6.77799V3.22953H161.732V6.77799H165.28ZM165.28 21.5801H161.732V25.1286H165.28V21.5801ZM165.011 21.5801V27H172.108V21.5801H165.011ZM168.56 23.4515H155.625V30.5485H168.56V23.4515ZM159.173 27V21.5801H152.076V27H159.173ZM155.625 25.1286H158.95V18.0317H155.625V25.1286ZM162.498 21.5801V6.77799H155.401V21.5801H162.498ZM158.95 3.22953H155.625V10.3264H158.95V3.22953ZM159.173 6.77799V1.35812H152.076V6.77799H159.173ZM155.625 4.90658H168.56V-2.19033H155.625V4.90658ZM165.011 1.35812V6.77799H172.108V1.35812H165.011ZM168.56 3.22953H165.28V10.3264H168.56V3.22953ZM161.732 6.77799V21.5801H168.829V6.77799H161.732ZM165.28 25.1286H168.56V18.0317H165.28V25.1286ZM191.197 1.35812V-2.19033H187.649V1.35812H191.197ZM197.847 1.35812H201.395V-2.19033H197.847V1.35812ZM197.847 27V30.5485H201.395V27H197.847ZM185.641 27L182.167 27.7265L182.758 30.5485H185.641V27ZM180.858 4.13637L184.332 3.40989L183.742 0.587917H180.858V4.13637ZM180.767 4.13637V0.587917H177.219V4.13637H180.767ZM180.767 27V30.5485H184.316V27H180.767ZM174.163 27H170.615V30.5485H174.163V27ZM174.163 1.35812V-2.19033H170.615V1.35812H174.163ZM185.459 1.35812L188.903 0.507189L188.237 -2.19033H185.459V1.35812ZM191.106 24.2218L187.661 25.0727L188.327 27.7702H191.106V24.2218ZM191.197 24.2218V27.7702H194.746V24.2218H191.197ZM191.197 4.90658H197.847V-2.19033H191.197V4.90658ZM194.298 1.35812V27H201.395V1.35812H194.298ZM197.847 23.4515H185.641V30.5485H197.847V23.4515ZM189.114 26.2735L184.332 3.40989L177.385 4.86286L182.167 27.7265L189.114 26.2735ZM180.858 0.587917H180.767V7.68483H180.858V0.587917ZM177.219 4.13637V27H184.316V4.13637H177.219ZM180.767 23.4515H174.163V30.5485H180.767V23.4515ZM177.712 27V1.35812H170.615V27H177.712ZM174.163 4.90658H185.459V-2.19033H174.163V4.90658ZM182.014 2.20906L187.661 25.0727L194.551 23.3708L188.903 0.507189L182.014 2.20906ZM191.106 27.7702H191.197V20.6733H191.106V27.7702ZM194.746 24.2218V1.35812H187.649V24.2218H194.746ZM219.885 1.35812V-2.19033H216.337V1.35812H219.885ZM226.535 1.35812H230.083V-2.19033H226.535V1.35812ZM226.535 27V30.5485H230.083V27H226.535ZM214.329 27L210.855 27.7265L211.446 30.5485H214.329V27ZM209.547 4.13637L213.02 3.40989L212.43 0.587917H209.547V4.13637ZM209.455 4.13637V0.587917H205.907V4.13637H209.455ZM209.455 27V30.5485H213.004V27H209.455ZM202.851 27H199.303V30.5485H202.851V27ZM202.851 1.35812V-2.19033H199.303V1.35812H202.851ZM214.147 1.35812L217.591 0.507189L216.925 -2.19033H214.147V1.35812ZM219.794 24.2218L216.349 25.0727L217.016 27.7702H219.794V24.2218ZM219.885 24.2218V27.7702H223.434V24.2218H219.885ZM219.885 4.90658H226.535V-2.19033H219.885V4.90658ZM222.986 1.35812V27H230.083V1.35812H222.986ZM226.535 23.4515H214.329V30.5485H226.535V23.4515ZM217.802 26.2735L213.02 3.40989L206.073 4.86286L210.855 27.7265L217.802 26.2735ZM209.547 0.587917H209.455V7.68483H209.547V0.587917ZM205.907 4.13637V27H213.004V4.13637H205.907ZM209.455 23.4515H202.851V30.5485H209.455V23.4515ZM206.4 27V1.35812H199.303V27H206.4ZM202.851 4.90658H214.147V-2.19033H202.851V4.90658ZM210.702 2.20906L216.349 25.0727L223.239 23.3708L217.591 0.507189L210.702 2.20906ZM219.794 27.7702H219.885V20.6733H219.794V27.7702ZM223.434 24.2218V1.35812H216.337V24.2218H223.434ZM237.551 21.9445H234.003V25.493H237.551V21.9445ZM251.215 21.9445H254.763V18.396H251.215V21.9445ZM251.215 27V30.5485H254.763V27H251.215ZM231.312 27H227.763V30.5485H231.312V27ZM231.312 1.35812V-2.19033H227.763V1.35812H231.312ZM250.714 1.35812H254.262V-2.19033H250.714V1.35812ZM250.714 6.77799V10.3264H254.262V6.77799H250.714ZM237.551 6.77799V3.22953H234.003V6.77799H237.551ZM237.551 11.4691H234.003V15.0176H237.551V11.4691ZM247.344 11.4691H250.892V7.92067H247.344V11.4691ZM247.344 16.5702V20.1186H250.892V16.5702H247.344ZM237.551 16.5702V13.0217H234.003V16.5702H237.551ZM237.551 25.493H251.215V18.396H237.551V25.493ZM247.666 21.9445V27H254.763V21.9445H247.666ZM251.215 23.4515H231.312V30.5485H251.215V23.4515ZM234.86 27V1.35812H227.763V27H234.86ZM231.312 4.90658H250.714V-2.19033H231.312V4.90658ZM247.165 1.35812V6.77799H254.262V1.35812H247.165ZM250.714 3.22953H237.551V10.3264H250.714V3.22953ZM234.003 6.77799V11.4691H241.1V6.77799H234.003ZM237.551 15.0176H247.344V7.92067H237.551V15.0176ZM243.795 11.4691V16.5702H250.892V11.4691H243.795ZM247.344 13.0217H237.551V20.1186H247.344V13.0217ZM234.003 16.5702V21.9445H241.1V16.5702H234.003ZM255.152 27H251.603V30.5485H255.152V27ZM255.152 1.35812V-2.19033H251.603V1.35812H255.152ZM273.506 3.13438L275.353 0.10421V0.104208L273.506 3.13438ZM274.873 14.4751L272.115 12.2424L272.098 12.2625L272.082 12.2828L274.873 14.4751ZM272.687 16.9801L270.272 19.5804L270.368 19.6693L270.47 19.751L272.687 16.9801ZM273.643 18.4375L270.244 19.4572L270.276 19.5618L270.313 19.6642L273.643 18.4375ZM274.144 20.2138L270.664 20.9097V20.9097L274.144 20.2138ZM274.645 21.8534L271.394 23.2757L271.411 23.3151L271.429 23.354L274.645 21.8534ZM275.647 22.7643L274.525 26.1307L274.654 26.1738L274.786 26.2068L275.647 22.7643ZM277.697 22.3999H281.245V17.0914L276.34 19.1211L277.697 22.3999ZM277.697 25.8614L280.006 28.5556L281.245 27.4934V25.8614H277.697ZM274.873 27.2733L274.157 23.7977L274.108 23.8077L274.06 23.8191L274.873 27.2733ZM271.912 27.0911L273.193 23.7819L273.164 23.7705L273.134 23.7595L271.912 27.0911ZM269.635 25.1327L266.6 26.9718L266.613 26.9927L266.626 27.0133L269.635 25.1327ZM268.542 19.1207L265.033 19.6471L265.048 19.7499L265.07 19.8517L268.542 19.1207ZM267.722 17.6177L265.398 20.2992L267.722 17.6177ZM265.582 16.8434L265.034 20.3494L265.087 20.3578L265.141 20.3645L265.582 16.8434ZM261.528 16.8434L261.218 13.3086L257.98 13.5926V16.8434H261.528ZM261.528 27V30.5485H265.076V27H261.528ZM261.528 12.38H257.98V15.9285H261.528V12.38ZM268.132 12.3345L268.01 8.78814L268.132 12.3345ZM270.09 11.7424L272.4 14.4366L272.407 14.4303L272.414 14.4239L270.09 11.7424ZM269.954 7.32453L267.606 9.9853L267.689 10.058L267.775 10.1255L269.954 7.32453ZM267.631 6.55026L267.416 10.0922L267.423 10.0926L267.631 6.55026ZM261.528 6.45917V2.91072H257.98V6.45917H261.528ZM258.7 27V1.35812H251.603V27H258.7ZM255.152 4.90658H265.582V-2.19033H255.152V4.90658ZM265.582 4.90658C268.556 4.90658 270.475 5.44234 271.66 6.16455L275.353 0.104208C272.652 -1.54192 269.287 -2.19033 265.582 -2.19033V4.90658ZM271.66 6.16455C272.294 6.55114 272.873 7.21843 272.873 9.10079H279.97C279.97 5.39628 278.605 2.08597 275.353 0.10421L271.66 6.16455ZM272.873 9.10079C272.873 10.9205 272.463 11.8121 272.115 12.2424L277.631 16.7078C279.347 14.5876 279.97 11.8963 279.97 9.10079H272.873ZM272.082 12.2828C271.804 12.6376 271.5 12.8395 270.774 12.8395V19.9365C273.509 19.9365 275.938 18.8631 277.663 16.6674L272.082 12.2828ZM270.774 19.9365C270.935 19.9365 270.939 19.9565 270.84 19.9258C270.727 19.8908 270.504 19.7961 270.272 19.5804L275.101 14.3798C273.77 13.144 272.108 12.8395 270.774 12.8395V19.9365ZM270.47 19.751C270.407 19.7006 270.347 19.6353 270.301 19.5646C270.256 19.4961 270.243 19.4522 270.244 19.4572L277.042 17.4179C276.671 16.1834 275.971 15.0631 274.903 14.2092L270.47 19.751ZM270.313 19.6642C270.462 20.0671 270.579 20.4817 270.664 20.9097L277.624 19.5179C277.466 18.7314 277.249 17.9618 276.973 17.2108L270.313 19.6642ZM270.664 20.9097C270.828 21.7261 271.064 22.5216 271.394 23.2757L277.896 20.4311C277.801 20.2136 277.703 19.916 277.624 19.5179L270.664 20.9097ZM271.429 23.354C272.032 24.6459 273.097 25.6549 274.525 26.1307L276.769 19.3979C276.98 19.4681 277.22 19.5958 277.442 19.7971C277.66 19.9957 277.79 20.2027 277.861 20.3528L271.429 23.354ZM274.786 26.2068C276.427 26.6169 278.013 26.1092 279.053 25.6788L276.34 19.1211C276.204 19.1775 276.098 19.2149 276.02 19.239C275.982 19.2509 275.953 19.2588 275.933 19.2638C275.912 19.2689 275.903 19.2706 275.903 19.2706C275.903 19.2706 275.915 19.2684 275.938 19.2662C275.962 19.2639 275.999 19.2614 276.048 19.2614C276.145 19.2614 276.305 19.2712 276.508 19.3218L274.786 26.2068ZM274.148 22.3999V25.8614H281.245V22.3999H274.148ZM275.387 23.1672C274.964 23.5299 274.564 23.714 274.157 23.7977L275.588 30.7488C277.246 30.4075 278.729 29.6503 280.006 28.5556L275.387 23.1672ZM274.06 23.8191C273.687 23.907 273.432 23.8744 273.193 23.7819L270.631 30.4003C272.275 31.0365 273.994 31.1254 275.685 30.7274L274.06 23.8191ZM273.134 23.7595C273.092 23.744 272.912 23.6804 272.644 23.252L266.626 27.0133C267.573 28.5281 268.911 29.7702 270.691 30.4227L273.134 23.7595ZM272.67 23.2935C272.517 23.042 272.273 22.4065 272.273 21.0791H265.176C265.176 23.1525 265.538 25.2193 266.6 26.9718L272.67 23.2935ZM272.273 21.0791C272.273 20.1598 272.197 19.2554 272.014 18.3897L265.07 19.8517C265.13 20.1398 265.176 20.541 265.176 21.0791H272.273ZM272.051 18.5943C271.837 17.1676 271.154 15.8964 270.046 14.9362L265.398 20.2992C265.324 20.2348 265.231 20.1308 265.154 19.9887C265.077 19.8475 265.044 19.7231 265.033 19.6471L272.051 18.5943ZM270.046 14.9362C268.822 13.8755 267.295 13.4815 266.022 13.3224L265.141 20.3645C265.285 20.3825 265.397 20.4028 265.482 20.4219C265.567 20.4411 265.617 20.4573 265.638 20.465C265.688 20.4828 265.572 20.4502 265.398 20.2992L270.046 14.9362ZM266.129 13.3375C264.737 13.12 263.052 13.1477 261.218 13.3086L261.838 20.3783C263.465 20.2356 264.483 20.2633 265.034 20.3494L266.129 13.3375ZM257.98 16.8434V27H265.076V16.8434H257.98ZM261.528 23.4515H255.152V30.5485H261.528V23.4515ZM261.528 15.9285H264.716V8.83158H261.528V15.9285ZM264.716 15.9285C266.133 15.9285 267.317 15.9132 268.254 15.8808L268.01 8.78814C267.186 8.81653 266.093 8.83158 264.716 8.83158V15.9285ZM268.254 15.8808C269.506 15.8377 271.1 15.5507 272.4 14.4366L267.781 9.04821C268.015 8.84782 268.211 8.78058 268.255 8.76707C268.294 8.75548 268.227 8.78063 268.01 8.78814L268.254 15.8808ZM272.414 14.4239C274.036 13.0183 274.322 11.0184 274.322 9.64733H267.225C267.225 9.90095 267.194 9.93139 267.229 9.8225C267.271 9.693 267.411 9.36921 267.766 9.06087L272.414 14.4239ZM274.322 9.64733C274.322 8.10812 273.966 5.94971 272.132 4.52355L267.775 10.1255C267.419 9.84872 267.269 9.53773 267.223 9.40504C267.186 9.30167 267.225 9.35015 267.225 9.64733H274.322ZM272.302 4.66376C270.958 3.47791 269.284 3.09289 267.839 3.00793L267.423 10.0926C267.561 10.1007 267.665 10.114 267.74 10.1273C267.815 10.1405 267.854 10.1525 267.864 10.1557C267.882 10.1617 267.765 10.1254 267.606 9.9853L272.302 4.66376ZM267.846 3.0083C266.747 2.94172 265.425 2.91072 263.896 2.91072V10.0076C265.343 10.0076 266.511 10.0373 267.416 10.0922L267.846 3.0083ZM263.896 2.91072H261.528V10.0076H263.896V2.91072ZM257.98 6.45917V12.38H265.076V6.45917H257.98ZM287.768 26.9545L288.593 23.5033L287.768 26.9545ZM283.987 25.3604L282.001 28.3006L282.028 28.3193L282.056 28.3374L283.987 25.3604ZM281.255 22.4455L278.164 24.1889L278.181 24.2187L278.198 24.2481L281.255 22.4455ZM280.253 18.1643V14.6158H276.704V18.1643H280.253ZM286.629 18.1643H290.177V14.6158H286.629V18.1643ZM286.811 19.0296L283.42 20.0732L283.47 20.2366L283.536 20.3944L286.811 19.0296ZM287.631 20.2138L285.031 22.6283L285.075 22.6765L285.122 22.7229L287.631 20.2138ZM289.407 21.3069L288.089 24.6015L288.167 24.6327L288.247 24.6601L289.407 21.3069ZM294.326 21.5801L294.853 25.0893L294.326 21.5801ZM295.875 21.0336L297.794 24.0185L297.867 23.9715L297.937 23.9211L295.875 21.0336ZM295.601 18.1643L293.707 21.1644L293.741 21.1861L293.776 21.207L295.601 18.1643ZM293.279 17.2989L292.392 20.7348L292.456 20.7513L292.52 20.7654L293.279 17.2989ZM290.136 16.5702L289.386 20.0385L289.396 20.0405L289.405 20.0425L290.136 16.5702ZM283.669 14.2018L281.634 17.1088L281.689 17.1473L281.745 17.1836L283.669 14.2018ZM281.528 11.7879L278.335 13.336L278.364 13.3949L278.394 13.4527L281.528 11.7879ZM280.936 8.05325L277.396 7.81404L277.395 7.82522L277.394 7.8364L280.936 8.05325ZM284.124 2.81557L286.017 5.81684L286.034 5.8065L286.05 5.79597L284.124 2.81557ZM297.651 1.90467L296.312 5.19086L296.323 5.19513L296.333 5.19933L297.651 1.90467ZM301.704 4.95618L298.873 7.09531L298.888 7.11513L298.903 7.13473L301.704 4.95618ZM303.299 10.1483V13.6968H306.847V10.1483H303.299ZM297.15 10.1483H293.602V13.6968H297.15V10.1483ZM296.194 8.05325L293.977 10.8241L294.052 10.8845L294.131 10.9407L296.194 8.05325ZM293.962 7.0968L293.338 10.59L293.348 10.5919L293.359 10.5937L293.962 7.0968ZM288.815 7.27898L287.613 3.94028L287.591 3.94823L287.569 3.95646L288.815 7.27898ZM288.633 10.5127L286.699 13.4879L286.753 13.5226L286.807 13.5555L288.633 10.5127ZM291.001 11.4236L290.141 14.8661L290.192 14.8788L290.243 14.8901L291.001 11.4236ZM294.19 12.1068L293.459 15.5791L293.51 15.59L293.563 15.5994L294.19 12.1068ZM297.697 12.9266L296.71 16.3351L297.697 12.9266ZM300.794 14.3385L298.825 17.291L298.882 17.3285L298.939 17.3639L300.794 14.3385ZM302.98 16.6613L299.846 18.326L299.866 18.3637L299.887 18.4009L302.98 16.6613ZM303.617 20.396L300.08 20.113L300.079 20.1332L300.077 20.1535L303.617 20.396ZM300.247 25.5881L298.434 22.5376L298.425 22.5434L298.415 22.5493L300.247 25.5881ZM292.049 23.907C290.865 23.907 289.715 23.7717 288.593 23.5033L286.942 30.4056C288.613 30.8052 290.318 31.0039 292.049 31.0039V23.907ZM288.593 23.5033C287.561 23.2564 286.679 22.8768 285.918 22.3834L282.056 28.3374C283.543 29.3014 285.181 29.9845 286.942 30.4056L288.593 23.5033ZM285.974 22.4202C285.294 21.9604 284.746 21.3797 284.311 20.6429L278.198 24.2481C279.16 25.8796 280.434 27.2422 282.001 28.3006L285.974 22.4202ZM284.345 20.7021C284.039 20.1587 283.801 19.3617 283.801 18.1643H276.704C276.704 20.3068 277.135 22.364 278.164 24.1889L284.345 20.7021ZM280.253 21.7127H286.629V14.6158H280.253V21.7127ZM283.081 18.1643C283.081 18.9247 283.292 19.6581 283.42 20.0732L290.203 17.9861C290.183 17.9233 290.17 17.8748 290.16 17.8392C290.151 17.803 290.147 17.7862 290.147 17.7862C290.147 17.7867 290.148 17.7935 290.151 17.806C290.153 17.8185 290.156 17.839 290.16 17.8667C290.163 17.8942 290.168 17.9325 290.171 17.9802C290.174 18.0274 290.177 18.0896 290.177 18.1643H283.081ZM283.536 20.3944C283.906 21.2821 284.472 22.0269 285.031 22.6283L290.231 17.7992C290.126 17.686 290.071 17.6124 290.048 17.5791C290.024 17.5446 290.049 17.5736 290.087 17.6648L283.536 20.3944ZM285.122 22.7229C285.986 23.5865 287.035 24.1798 288.089 24.6015L290.725 18.0122C290.261 17.8266 290.127 17.6912 290.14 17.7046L285.122 22.7229ZM288.247 24.6601C289.558 25.1142 291.046 25.2652 292.55 25.2652V18.1683C291.443 18.1683 290.835 18.0461 290.568 17.9536L288.247 24.6601ZM292.55 25.2652C293.314 25.2652 294.082 25.2049 294.853 25.0893L293.8 18.0709C293.356 18.1376 292.94 18.1683 292.55 18.1683V25.2652ZM294.853 25.0893C295.851 24.9395 296.866 24.6148 297.794 24.0185L293.956 18.0487C294.033 17.9989 294.016 18.0386 293.8 18.0709L294.853 25.0893ZM297.937 23.9211C299.456 22.8364 300.061 21.2072 300.061 19.6672H292.964C292.964 19.5585 292.984 19.2934 293.137 18.9637C293.3 18.6152 293.548 18.335 293.812 18.1461L297.937 23.9211ZM300.061 19.6672C300.061 17.6261 298.961 16.042 297.427 15.1215L293.776 21.207C293.687 21.1538 293.454 20.9885 293.25 20.6524C293.036 20.2997 292.964 19.9376 292.964 19.6672H300.061ZM297.496 15.1641C296.45 14.5033 295.244 14.0964 294.037 13.8324L292.52 20.7654C293.257 20.9265 293.599 21.0965 293.707 21.1644L297.496 15.1641ZM294.165 13.863C293.163 13.6043 292.062 13.3495 290.867 13.0978L289.405 20.0425C290.517 20.2767 291.512 20.5076 292.392 20.7348L294.165 13.863ZM290.886 13.1019C289.882 12.8848 288.874 12.6125 287.86 12.2839L285.671 19.0346C286.905 19.4347 288.143 19.7697 289.386 20.0385L290.886 13.1019ZM287.86 12.2839C287.013 12.0092 286.262 11.652 285.592 11.2201L281.745 17.1836C282.958 17.9662 284.271 18.5807 285.671 19.0346L287.86 12.2839ZM285.704 11.2948C285.247 10.9751 284.912 10.5943 284.662 10.1232L278.394 13.4527C279.176 14.9248 280.269 16.1533 281.634 17.1088L285.704 11.2948ZM284.721 10.2398C284.576 9.94122 284.412 9.34788 284.478 8.2701L277.394 7.8364C277.278 9.73423 277.508 11.6307 278.335 13.336L284.721 10.2398ZM284.476 8.29247C284.548 7.22389 284.961 6.48279 286.017 5.81684L282.231 -0.185711C279.339 1.63814 277.627 4.38883 277.396 7.81404L284.476 8.29247ZM286.05 5.79597C287.23 5.03321 289.21 4.45113 292.368 4.45113V-2.64578C288.481 -2.64578 284.965 -1.95259 282.198 -0.164841L286.05 5.79597ZM292.368 4.45113C293.821 4.45113 295.124 4.70683 296.312 5.19086L298.99 -1.38153C296.899 -2.23348 294.68 -2.64578 292.368 -2.64578V4.45113ZM296.333 5.19933C297.434 5.63981 298.251 6.27125 298.873 7.09531L304.536 2.81706C303.094 0.908413 301.208 -0.494495 298.969 -1.38999L296.333 5.19933ZM298.903 7.13473C299.386 7.75549 299.75 8.67134 299.75 10.1483H306.847C306.847 7.43516 306.148 4.88959 304.505 2.77764L298.903 7.13473ZM303.299 6.59987H297.15V13.6968H303.299V6.59987ZM300.698 10.1483C300.698 8.32255 300.02 6.42599 298.256 5.16575L294.131 10.9407C293.955 10.8152 293.787 10.6204 293.683 10.3923C293.589 10.1865 293.602 10.0738 293.602 10.1483H300.698ZM298.41 5.28237C297.269 4.36959 295.947 3.83826 294.565 3.59994L293.359 10.5937C293.738 10.659 293.903 10.7653 293.977 10.8241L298.41 5.28237ZM294.586 3.60361C293.576 3.42326 292.589 3.32062 291.639 3.32062V10.4175C292.086 10.4175 292.648 10.4667 293.338 10.59L294.586 3.60361ZM291.639 3.32062C290.255 3.32062 288.877 3.48549 287.613 3.94028L290.017 10.6177C290.272 10.5259 290.777 10.4175 291.639 10.4175V3.32062ZM287.569 3.95646C286.667 4.29467 285.742 4.8936 285.069 5.8757C284.398 6.85383 284.174 7.92519 284.174 8.87306H291.271C291.271 9.03148 291.228 9.44244 290.922 9.88921C290.613 10.3399 290.234 10.5366 290.061 10.6015L287.569 3.95646ZM284.174 8.87306C284.174 10.8252 285.13 12.4678 286.699 13.4879L290.567 7.5375C290.672 7.60559 290.881 7.77543 291.052 8.08345C291.226 8.39681 291.271 8.69111 291.271 8.87306H284.174ZM286.807 13.5555C287.811 14.1574 288.958 14.5704 290.141 14.8661L291.862 7.98108C291.101 7.79093 290.67 7.59672 290.459 7.46991L286.807 13.5555ZM290.243 14.8901C291.225 15.1049 292.297 15.3346 293.459 15.5791L294.921 8.63442C293.774 8.39309 292.721 8.16733 291.76 7.9571L290.243 14.8901ZM293.563 15.5994C294.626 15.7902 295.675 16.0354 296.71 16.3351L298.683 9.51805C297.411 9.14973 296.122 8.8484 294.816 8.61412L293.563 15.5994ZM296.71 16.3351C297.549 16.5779 298.244 16.9036 298.825 17.291L302.762 11.386C301.521 10.5588 300.152 9.94322 298.683 9.51805L296.71 16.3351ZM298.939 17.3639C299.342 17.6108 299.628 17.9161 299.846 18.326L306.113 14.9965C305.299 13.4632 304.128 12.2199 302.648 11.3131L298.939 17.3639ZM299.887 18.4009C299.982 18.5699 300.165 19.0477 300.08 20.113L307.155 20.6789C307.312 18.7079 307.07 16.6959 306.072 14.9216L299.887 18.4009ZM300.077 20.1535C300.014 21.0809 299.641 21.8204 298.434 22.5376L302.06 28.6387C305.043 26.866 306.917 24.1441 307.158 20.6384L300.077 20.1535ZM298.415 22.5493C297.085 23.351 295.056 23.907 292.049 23.907V31.0039C295.843 31.0039 299.28 30.315 302.079 28.6269L298.415 22.5493Z" fill="white" mask="url(#path-1-outside-1_697_15734)"/>
</g>
<defs>
<filter id="filter0_d_697_15734" x="0.652588" y="0.902672" width="306.542" height="31.8277" filterUnits="userSpaceOnUse" color-interpolation-filters="sRGB">
<feFlood flood-opacity="0" result="BackgroundImageFix"/>
<feColorMatrix in="SourceAlpha" type="matrix" values="0 0 0 0 0 0 0 0 0 0 0 0 0 0 0 0 0 0 127 0" result="hardAlpha"/>
<feOffset dx="3.39518" dy="5.09277"/>
<feComposite in2="hardAlpha" operator="out"/>
<feColorMatrix type="matrix" values="0 0 0 0 0 0 0 0 0 0 0 0 0 0 0 0 0 0 1 0"/>
<feBlend mode="normal" in2="BackgroundImageFix" result="effect1_dropShadow_697_15734"/>
<feBlend mode="normal" in="SourceGraphic" in2="effect1_dropShadow_697_15734" result="shape"/>
</filter>
<linearGradient id="paint0_linear_697_15734" x1="145.621" y1="-6.2112" x2="145.095" y2="37.8612" gradientUnits="userSpaceOnUse">
<stop offset="0.376" stop-color="#25D5FF"/>
<stop offset="1" stop-color="#0008FF"/>
</linearGradient>
</defs>
</svg>
