<svg width="27" height="180" viewBox="0 0 27 180" fill="none" xmlns="http://www.w3.org/2000/svg">
<rect x="0.966518" y="178.643" width="19.2857" height="19.2857" transform="rotate(-90 0.966518 178.643)" fill="white"/>
<rect x="0.966518" y="178.643" width="19.2857" height="19.2857" transform="rotate(-90 0.966518 178.643)" stroke="#007800" stroke-width="1.28571"/>
<circle cx="10.6092" cy="169" r="5.14286" transform="rotate(-90 10.6092 169)" fill="#007800"/>
<path d="M6.3821 152.721L5.28835 152.682L5.875 153.606L5.45739 153.845L4.95028 152.871L4.44318 153.845L4.02557 153.606L4.61222 152.682L3.51847 152.721V152.244L4.61222 152.284L4.02557 151.359L4.44318 151.121L4.95028 152.095L5.45739 151.121L5.875 151.359L5.28835 152.284L6.3821 152.244V152.721ZM5.10938 146.02V146.636C4.93205 146.673 4.77628 146.737 4.64205 146.828C4.50781 146.917 4.39512 147.027 4.30398 147.156C4.21117 147.283 4.14157 147.425 4.09517 147.581C4.04877 147.737 4.02557 147.899 4.02557 148.068C4.02557 148.376 4.10346 148.656 4.25923 148.906C4.41501 149.154 4.64453 149.352 4.9478 149.5C5.25107 149.646 5.62311 149.719 6.06392 149.719C6.50473 149.719 6.87678 149.646 7.18004 149.5C7.48331 149.352 7.71283 149.154 7.86861 148.906C8.02438 148.656 8.10227 148.376 8.10227 148.068C8.10227 147.899 8.07907 147.737 8.03267 147.581C7.98627 147.425 7.9175 147.283 7.82635 147.156C7.73355 147.027 7.62003 146.917 7.4858 146.828C7.34991 146.737 7.19413 146.673 7.01847 146.636V146.02C7.27865 146.066 7.51148 146.151 7.71697 146.273C7.92247 146.396 8.0973 146.548 8.24148 146.731C8.384 146.913 8.49254 147.118 8.56712 147.345C8.64169 147.57 8.67898 147.811 8.67898 148.068C8.67898 148.502 8.57292 148.888 8.3608 149.226C8.14867 149.565 7.84706 149.831 7.45597 150.024C7.06487 150.218 6.60085 150.315 6.06392 150.315C5.52699 150.315 5.06297 150.218 4.67188 150.024C4.28078 149.831 3.97917 149.565 3.76705 149.226C3.55492 148.888 3.44886 148.502 3.44886 148.068C3.44886 147.811 3.48615 147.57 3.56072 147.345C3.6353 147.118 3.74467 146.913 3.88885 146.731C4.03137 146.548 4.20537 146.396 4.41087 146.273C4.6147 146.151 4.84754 146.066 5.10938 146.02ZM8.60938 145.103H4.79119V144.536H5.3679V144.497C5.17898 144.427 5.02569 144.301 4.90803 144.119C4.79036 143.936 4.73153 143.731 4.73153 143.502C4.73153 143.459 4.73236 143.405 4.73402 143.341C4.73568 143.276 4.73816 143.227 4.74148 143.194H5.33807C5.3331 143.214 5.32564 143.26 5.3157 143.331C5.3041 143.4 5.2983 143.474 5.2983 143.552C5.2983 143.738 5.33724 143.903 5.41513 144.049C5.49136 144.193 5.59742 144.308 5.73331 144.392C5.86754 144.475 6.02083 144.516 6.19318 144.516H8.60938V145.103ZM8.68892 141.014C8.68892 141.382 8.60772 141.699 8.44531 141.966C8.28125 142.231 8.05256 142.436 7.75923 142.58C7.46425 142.723 7.12121 142.794 6.73011 142.794C6.33902 142.794 5.99432 142.723 5.69602 142.58C5.39607 142.436 5.16241 142.235 4.99503 141.978C4.82599 141.72 4.74148 141.418 4.74148 141.074C4.74148 140.875 4.77462 140.678 4.84091 140.485C4.9072 140.291 5.01491 140.114 5.16406 139.955C5.31155 139.796 5.5071 139.669 5.75071 139.575C5.99432 139.48 6.29427 139.433 6.65057 139.433H6.89915V142.376H6.39205V140.03C6.17661 140.03 5.98437 140.073 5.81534 140.159C5.64631 140.243 5.5129 140.364 5.41513 140.522C5.31735 140.678 5.26847 140.862 5.26847 141.074C5.26847 141.307 5.32647 141.51 5.44247 141.68C5.55682 141.849 5.70597 141.979 5.88991 142.07C6.07386 142.162 6.27107 142.207 6.48153 142.207H6.8196C7.10795 142.207 7.35239 142.157 7.55291 142.058C7.75178 141.957 7.90341 141.817 8.00781 141.638C8.11056 141.459 8.16193 141.251 8.16193 141.014C8.16193 140.86 8.14039 140.721 8.0973 140.596C8.05256 140.47 7.98627 140.362 7.89844 140.271C7.80895 140.18 7.69792 140.109 7.56534 140.059L7.72443 139.493C7.91667 139.552 8.0857 139.653 8.23153 139.793C8.37571 139.934 8.4884 140.108 8.5696 140.316C8.64915 140.523 8.68892 140.755 8.68892 141.014ZM8.69886 137.417C8.69886 137.659 8.65329 137.879 8.56214 138.076C8.46934 138.273 8.33594 138.43 8.16193 138.546C7.98627 138.662 7.77415 138.72 7.52557 138.72C7.30682 138.72 7.1295 138.677 6.99361 138.59C6.85606 138.504 6.74834 138.389 6.67045 138.245C6.59257 138.101 6.53456 137.942 6.49645 137.768C6.45668 137.592 6.42519 137.415 6.40199 137.238C6.37216 137.006 6.34979 136.818 6.33487 136.674C6.3183 136.528 6.29096 136.422 6.25284 136.356C6.21473 136.288 6.14844 136.254 6.05398 136.254H6.03409C5.78883 136.254 5.59825 136.321 5.46236 136.455C5.32647 136.588 5.25852 136.789 5.25852 137.059C5.25852 137.339 5.31984 137.559 5.44247 137.718C5.5651 137.877 5.69602 137.989 5.83523 138.053L5.63636 138.61C5.40436 138.511 5.22372 138.378 5.09446 138.213C4.96354 138.045 4.8724 137.863 4.82102 137.666C4.76799 137.467 4.74148 137.271 4.74148 137.079C4.74148 136.956 4.75639 136.816 4.78622 136.656C4.81439 136.496 4.87322 136.341 4.96271 136.192C5.0522 136.041 5.18726 135.916 5.3679 135.816C5.54853 135.717 5.79048 135.667 6.09375 135.667H8.60938V136.254H8.09233V136.284C8.17519 136.323 8.26385 136.39 8.35831 136.482C8.45277 136.575 8.53314 136.699 8.59943 136.853C8.66572 137.007 8.69886 137.195 8.69886 137.417ZM8.17188 137.328C8.17188 137.096 8.1263 136.9 8.03516 136.741C7.94401 136.58 7.82635 136.459 7.68217 136.378C7.538 136.295 7.38636 136.254 7.22727 136.254H6.69034C6.72017 136.279 6.74751 136.333 6.77237 136.418C6.79557 136.501 6.81629 136.597 6.83452 136.706C6.85109 136.814 6.866 136.919 6.87926 137.022C6.89086 137.123 6.9008 137.205 6.90909 137.268C6.92898 137.42 6.96129 137.563 7.00604 137.695C7.04912 137.826 7.11458 137.932 7.20241 138.014C7.28859 138.093 7.40625 138.133 7.5554 138.133C7.75923 138.133 7.91335 138.058 8.01776 137.907C8.1205 137.754 8.17188 137.561 8.17188 137.328ZM4.79119 132.936H5.28835V134.914H4.79119V132.936ZM3.87642 134.338V133.751H7.51563C7.68134 133.751 7.80563 133.727 7.88849 133.679C7.9697 133.629 8.02438 133.566 8.05256 133.49C8.07907 133.412 8.09233 133.33 8.09233 133.244C8.09233 133.179 8.08902 133.126 8.08239 133.085C8.0741 133.044 8.06747 133.01 8.0625 132.986L8.58949 132.866C8.6044 132.906 8.61932 132.961 8.63423 133.033C8.6508 133.104 8.65909 133.194 8.65909 133.304C8.65909 133.469 8.62346 133.632 8.5522 133.791C8.48094 133.948 8.3724 134.079 8.22656 134.184C8.08073 134.286 7.89678 134.338 7.67472 134.338H3.87642ZM8.60938 132.053H4.79119V131.467H8.60938V132.053ZM4.15483 131.755C4.15483 131.869 4.11589 131.968 4.038 132.051C3.96011 132.132 3.86648 132.173 3.7571 132.173C3.64773 132.173 3.5541 132.132 3.47621 132.051C3.39832 131.968 3.35938 131.869 3.35938 131.755C3.35938 131.641 3.39832 131.543 3.47621 131.462C3.5541 131.379 3.64773 131.337 3.7571 131.337C3.86648 131.337 3.96011 131.379 4.038 131.462C4.11589 131.543 4.15483 131.641 4.15483 131.755ZM4.79119 127.27L8.60938 128.682V129.279L4.79119 130.691V130.054L7.83381 129V128.96L4.79119 127.906V127.27ZM8.68892 125.032C8.68892 125.399 8.60772 125.717 8.44531 125.984C8.28125 126.249 8.05256 126.453 7.75923 126.598C7.46425 126.74 7.12121 126.811 6.73011 126.811C6.33902 126.811 5.99432 126.74 5.69602 126.598C5.39607 126.453 5.16241 126.253 4.99503 125.996C4.82599 125.738 4.74148 125.436 4.74148 125.091C4.74148 124.892 4.77462 124.696 4.84091 124.502C4.9072 124.308 5.01491 124.132 5.16406 123.973C5.31155 123.814 5.5071 123.687 5.75071 123.592C5.99432 123.498 6.29427 123.451 6.65057 123.451H6.89915V126.394H6.39205V124.047C6.17661 124.047 5.98437 124.09 5.81534 124.176C5.64631 124.261 5.5129 124.382 5.41513 124.539C5.31735 124.695 5.26847 124.879 5.26847 125.091C5.26847 125.325 5.32647 125.527 5.44247 125.698C5.55682 125.867 5.70597 125.997 5.88991 126.088C6.07386 126.179 6.27107 126.225 6.48153 126.225H6.8196C7.10795 126.225 7.35239 126.175 7.55291 126.076C7.75178 125.975 7.90341 125.835 8.00781 125.656C8.11056 125.477 8.16193 125.269 8.16193 125.032C8.16193 124.877 8.14039 124.738 8.0973 124.614C8.05256 124.488 7.98627 124.379 7.89844 124.288C7.80895 124.197 7.69792 124.127 7.56534 124.077L7.72443 123.51C7.91667 123.57 8.0857 123.67 8.23153 123.811C8.37571 123.952 8.4884 124.126 8.5696 124.333C8.64915 124.54 8.68892 124.773 8.68892 125.032ZM3.51847 120.301L7.80398 118.79V118.73L3.51847 117.219L3.51847 116.572L8.60938 118.442L8.60938 119.078L3.51847 120.947V120.301ZM8.60938 115.859H4.79119V115.272H8.60938V115.859ZM4.15483 115.561C4.15483 115.675 4.11589 115.774 4.038 115.857C3.96011 115.938 3.86648 115.978 3.7571 115.978C3.64773 115.978 3.5541 115.938 3.47621 115.857C3.39832 115.774 3.35938 115.675 3.35938 115.561C3.35938 115.446 3.39832 115.349 3.47621 115.267C3.5541 115.185 3.64773 115.143 3.7571 115.143C3.86648 115.143 3.96011 115.185 4.038 115.267C4.11589 115.349 4.15483 115.446 4.15483 115.561ZM5.64631 111.493L5.79545 112.02C5.70762 112.053 5.62228 112.102 5.53942 112.167C5.4549 112.23 5.3853 112.316 5.33061 112.425C5.27592 112.535 5.24858 112.675 5.24858 112.846C5.24858 113.079 5.30244 113.274 5.41016 113.43C5.51622 113.584 5.65128 113.661 5.81534 113.661C5.96117 113.661 6.07635 113.608 6.16087 113.502C6.24538 113.396 6.31581 113.23 6.37216 113.005L6.51136 112.438C6.59422 112.097 6.721 111.842 6.89169 111.675C7.06072 111.507 7.27865 111.424 7.54545 111.424C7.7642 111.424 7.95975 111.487 8.1321 111.613C8.30445 111.737 8.44034 111.911 8.53977 112.135C8.6392 112.358 8.68892 112.619 8.68892 112.915C8.68892 113.305 8.6044 113.627 8.43537 113.882C8.26634 114.137 8.01941 114.299 7.6946 114.367L7.5554 113.81C7.76089 113.757 7.91501 113.657 8.01776 113.509C8.1205 113.36 8.17188 113.165 8.17188 112.925C8.17188 112.652 8.11387 112.435 7.99787 112.274C7.88021 112.111 7.73935 112.03 7.57528 112.03C7.44271 112.03 7.33168 112.077 7.24219 112.169C7.15104 112.262 7.0831 112.405 7.03835 112.597L6.8892 113.233C6.80634 113.583 6.67791 113.84 6.50391 114.004C6.32824 114.166 6.10866 114.248 5.84517 114.248C5.62973 114.248 5.43916 114.187 5.27344 114.066C5.10772 113.943 4.97763 113.777 4.88317 113.566C4.78871 113.354 4.74148 113.114 4.74148 112.846C4.74148 112.468 4.82434 112.171 4.99006 111.956C5.15578 111.739 5.37453 111.584 5.64631 111.493ZM7.0483 108.134H4.79119L4.79119 107.548H8.60938V108.134H7.96307V108.174C8.15696 108.264 8.32185 108.403 8.45774 108.592C8.59197 108.781 8.65909 109.019 8.65909 109.308C8.65909 109.546 8.60689 109.758 8.50249 109.944C8.39643 110.13 8.23733 110.275 8.02521 110.382C7.81143 110.488 7.54214 110.541 7.21733 110.541H4.79119V109.954H7.17756C7.45597 109.954 7.67803 109.876 7.84375 109.72C8.00947 109.563 8.09233 109.362 8.09233 109.119C8.09233 108.973 8.05504 108.825 7.98047 108.674C7.90589 108.521 7.79155 108.394 7.63743 108.291C7.48331 108.187 7.28693 108.134 7.0483 108.134ZM8.69886 105.35C8.69886 105.592 8.65329 105.811 8.56214 106.008C8.46934 106.206 8.33594 106.362 8.16193 106.478C7.98627 106.594 7.77415 106.652 7.52557 106.652C7.30682 106.652 7.1295 106.609 6.99361 106.523C6.85606 106.437 6.74834 106.322 6.67045 106.177C6.59257 106.033 6.53456 105.874 6.49645 105.7C6.45668 105.525 6.42519 105.348 6.40199 105.171C6.37216 104.939 6.34979 104.751 6.33487 104.606C6.3183 104.461 6.29096 104.355 6.25284 104.288C6.21473 104.22 6.14844 104.186 6.05398 104.186H6.03409C5.78883 104.186 5.59825 104.253 5.46236 104.388C5.32647 104.52 5.25852 104.722 5.25852 104.992C5.25852 105.272 5.31984 105.491 5.44247 105.65C5.5651 105.81 5.69602 105.921 5.83523 105.986L5.63636 106.543C5.40436 106.443 5.22372 106.311 5.09446 106.145C4.96354 105.978 4.8724 105.795 4.82102 105.598C4.76799 105.399 4.74148 105.204 4.74148 105.012C4.74148 104.889 4.75639 104.748 4.78622 104.589C4.81439 104.428 4.87322 104.273 4.96271 104.124C5.0522 103.973 5.18726 103.848 5.3679 103.749C5.54853 103.649 5.79048 103.6 6.09375 103.6H8.60938V104.186H8.09233V104.216C8.17519 104.256 8.26385 104.322 8.35831 104.415C8.45277 104.508 8.53314 104.631 8.59943 104.785C8.66572 104.94 8.69886 105.128 8.69886 105.35ZM8.17188 105.26C8.17188 105.028 8.1263 104.833 8.03516 104.674C7.94401 104.513 7.82635 104.392 7.68217 104.311C7.538 104.228 7.38636 104.186 7.22727 104.186H6.69034C6.72017 104.211 6.74751 104.266 6.77237 104.35C6.79557 104.433 6.81629 104.529 6.83452 104.639C6.85109 104.746 6.866 104.852 6.87926 104.954C6.89086 105.056 6.9008 105.138 6.90909 105.201C6.92898 105.353 6.96129 105.496 7.00604 105.628C7.04912 105.759 7.11458 105.865 7.20241 105.946C7.28859 106.026 7.40625 106.066 7.5554 106.066C7.75923 106.066 7.91335 105.99 8.01776 105.839C8.1205 105.687 8.17188 105.494 8.17188 105.26ZM3.51847 101.942H8.60938V102.529H3.51847L3.51847 101.942ZM8.60938 100.868H4.79119V100.281H8.60938V100.868ZM4.15483 100.569C4.15483 100.684 4.11589 100.782 4.038 100.865C3.96011 100.947 3.86648 100.987 3.7571 100.987C3.64773 100.987 3.5541 100.947 3.47621 100.865C3.39832 100.782 3.35938 100.684 3.35938 100.569C3.35938 100.455 3.39832 100.357 3.47621 100.276C3.5541 100.193 3.64773 100.152 3.7571 100.152C3.86648 100.152 3.96011 100.193 4.038 100.276C4.11589 100.357 4.15483 100.455 4.15483 100.569ZM8.60938 99.316H8.16193L5.37784 97.1484H5.33807V99.2464H4.79119V96.3927H5.25852L8.02273 98.5007H8.0625V96.3231H8.60938V99.316ZM8.69886 94.296C8.69886 94.5379 8.65329 94.7575 8.56214 94.9547C8.46934 95.1519 8.33594 95.3085 8.16193 95.4245C7.98627 95.5405 7.77415 95.5985 7.52557 95.5985C7.30682 95.5985 7.1295 95.5554 6.99361 95.4693C6.85606 95.3831 6.74834 95.2679 6.67045 95.1237C6.59257 94.9796 6.53456 94.8205 6.49645 94.6465C6.45668 94.4708 6.42519 94.2943 6.40199 94.117C6.37216 93.885 6.34979 93.6969 6.33487 93.5527C6.3183 93.4069 6.29096 93.3008 6.25284 93.2345C6.21473 93.1666 6.14844 93.1326 6.05398 93.1326H6.03409C5.78883 93.1326 5.59825 93.1997 5.46236 93.334C5.32647 93.4665 5.25852 93.6679 5.25852 93.938C5.25852 94.2181 5.31984 94.4377 5.44247 94.5968C5.5651 94.7558 5.69602 94.8677 5.83523 94.9323L5.63636 95.4892C5.40436 95.3897 5.22372 95.2571 5.09446 95.0914C4.96354 94.924 4.8724 94.7418 4.82102 94.5446C4.76799 94.3457 4.74148 94.1501 4.74148 93.9579C4.74148 93.8353 4.75639 93.6944 4.78622 93.5353C4.81439 93.3746 4.87322 93.2196 4.96271 93.0705C5.0522 92.9197 5.18726 92.7946 5.3679 92.6951C5.54853 92.5957 5.79048 92.546 6.09375 92.546H8.60938V93.1326H8.09233V93.1624C8.17519 93.2022 8.26385 93.2685 8.35831 93.3613C8.45277 93.4541 8.53314 93.5776 8.59943 93.7317C8.66572 93.8858 8.69886 94.0739 8.69886 94.296ZM8.17188 94.2065C8.17188 93.9745 8.1263 93.7789 8.03516 93.6198C7.94401 93.4591 7.82635 93.3381 7.68217 93.2569C7.538 93.174 7.38636 93.1326 7.22727 93.1326H6.69034C6.72017 93.1575 6.74751 93.2122 6.77237 93.2967C6.79557 93.3795 6.81629 93.4757 6.83452 93.585C6.85109 93.6928 6.866 93.798 6.87926 93.9007C6.89086 94.0018 6.9008 94.0838 6.90909 94.1468C6.92898 94.2993 6.96129 94.4418 7.00604 94.5744C7.04912 94.7053 7.11458 94.8114 7.20241 94.8926C7.28859 94.9721 7.40625 95.0119 7.5554 95.0119C7.75923 95.0119 7.91335 94.9365 8.01776 94.7857C8.1205 94.6332 8.17188 94.4401 8.17188 94.2065ZM4.79119 89.8147H5.28835V91.7934H4.79119V89.8147ZM3.87642 91.2167V90.63H7.51563C7.68134 90.63 7.80563 90.606 7.88849 90.558C7.9697 90.5082 8.02438 90.4453 8.05256 90.369C8.07907 90.2911 8.09233 90.2091 8.09233 90.1229C8.09233 90.0583 8.08902 90.0053 8.08239 89.9639C8.0741 89.9224 8.06747 89.8893 8.0625 89.8644L8.58949 89.7451C8.6044 89.7849 8.61932 89.8404 8.63423 89.9116C8.6508 89.9829 8.65909 90.0732 8.65909 90.1826C8.65909 90.3483 8.62346 90.5107 8.5522 90.6698C8.48094 90.8273 8.3724 90.9582 8.22656 91.0626C8.08073 91.1653 7.89678 91.2167 7.67472 91.2167H3.87642ZM8.60938 88.9322H4.79119V88.3456H8.60938V88.9322ZM4.15483 88.6339C4.15483 88.7483 4.11589 88.8469 4.038 88.9298C3.96011 89.011 3.86648 89.0516 3.7571 89.0516C3.64773 89.0516 3.5541 89.011 3.47621 88.9298C3.39832 88.8469 3.35938 88.7483 3.35938 88.6339C3.35938 88.5196 3.39832 88.4218 3.47621 88.3406C3.5541 88.2578 3.64773 88.2163 3.7571 88.2163C3.86648 88.2163 3.96011 88.2578 4.038 88.3406C4.11589 88.4218 4.15483 88.5196 4.15483 88.6339ZM8.68892 85.72C8.68892 86.0647 8.60689 86.3671 8.44283 86.6273C8.27876 86.8858 8.04924 87.088 7.75426 87.2338C7.45928 87.378 7.11458 87.4501 6.72017 87.4501C6.32244 87.4501 5.97526 87.378 5.67862 87.2338C5.38198 87.088 5.15163 86.8858 4.98757 86.6273C4.82351 86.3671 4.74148 86.0647 4.74148 85.72C4.74148 85.3753 4.82351 85.0737 4.98757 84.8151C5.15163 84.555 5.38198 84.3528 5.67862 84.2086C5.97526 84.0628 6.32244 83.9899 6.72017 83.9899C7.11458 83.9899 7.45928 84.0628 7.75426 84.2086C8.04924 84.3528 8.27876 84.555 8.44283 84.8151C8.60689 85.0737 8.68892 85.3753 8.68892 85.72ZM8.16193 85.72C8.16193 85.4581 8.09482 85.2427 7.96058 85.0737C7.82635 84.9046 7.64986 84.7795 7.43111 84.6983C7.21236 84.6171 6.97538 84.5765 6.72017 84.5765C6.46496 84.5765 6.22715 84.6171 6.00675 84.6983C5.78634 84.7795 5.60819 84.9046 5.4723 85.0737C5.33641 85.2427 5.26847 85.4581 5.26847 85.72C5.26847 85.9818 5.33641 86.1972 5.4723 86.3663C5.60819 86.5353 5.78634 86.6604 6.00675 86.7416C6.22715 86.8228 6.46496 86.8634 6.72017 86.8634C6.97538 86.8634 7.21236 86.8228 7.43111 86.7416C7.64986 86.6604 7.82635 86.5353 7.96058 86.3663C8.09482 86.1972 8.16193 85.9818 8.16193 85.72ZM6.3125 82.5077H8.60938V83.0944H4.79119V82.5276H5.38778V82.4779C5.19389 82.3884 5.03812 82.2525 4.92045 82.0702C4.80114 81.8879 4.74148 81.6526 4.74148 81.3642C4.74148 81.1057 4.79451 80.8795 4.90057 80.6856C5.00497 80.4917 5.16406 80.3409 5.37784 80.2332C5.58996 80.1255 5.85843 80.0716 6.18324 80.0716H8.60938V80.6583H6.22301C5.92306 80.6583 5.68939 80.7362 5.52202 80.8919C5.35298 81.0477 5.26847 81.2615 5.26847 81.5333C5.26847 81.7205 5.30907 81.8879 5.39027 82.0354C5.47147 82.1812 5.58996 82.2964 5.74574 82.3809C5.90151 82.4654 6.09044 82.5077 6.3125 82.5077ZM8.68892 75.4797C8.68892 75.8244 8.60689 76.1269 8.44283 76.3871C8.27876 76.6456 8.04924 76.8478 7.75426 76.9936C7.45928 77.1378 7.11458 77.2099 6.72017 77.2099C6.32244 77.2099 5.97526 77.1378 5.67862 76.9936C5.38198 76.8478 5.15163 76.6456 4.98757 76.3871C4.82351 76.1269 4.74148 75.8244 4.74148 75.4797C4.74148 75.135 4.82351 74.8334 4.98757 74.5749C5.15163 74.3147 5.38198 74.1126 5.67862 73.9684C5.97526 73.8225 6.32244 73.7496 6.72017 73.7496C7.11458 73.7496 7.45928 73.8225 7.75426 73.9684C8.04924 74.1126 8.27876 74.3147 8.44283 74.5749C8.60689 74.8334 8.68892 75.135 8.68892 75.4797ZM8.16193 75.4797C8.16193 75.2179 8.09482 75.0025 7.96058 74.8334C7.82635 74.6644 7.64986 74.5393 7.43111 74.4581C7.21236 74.3769 6.97538 74.3363 6.72017 74.3363C6.46496 74.3363 6.22715 74.3769 6.00675 74.4581C5.78634 74.5393 5.60819 74.6644 5.4723 74.8334C5.33641 75.0025 5.26847 75.2179 5.26847 75.4797C5.26847 75.7416 5.33641 75.957 5.4723 76.126C5.60819 76.2951 5.78634 76.4202 6.00675 76.5014C6.22715 76.5826 6.46496 76.6232 6.72017 76.6232C6.97538 76.6232 7.21236 76.5826 7.43111 76.5014C7.64986 76.4202 7.82635 76.2951 7.96058 76.126C8.09482 75.957 8.16193 75.7416 8.16193 75.4797ZM6.3125 72.2675H8.60938V72.8541H4.79119V72.2874H5.38778V72.2376C5.19389 72.1482 5.03812 72.0123 4.92045 71.83C4.80114 71.6477 4.74148 71.4124 4.74148 71.124C4.74148 70.8655 4.79451 70.6393 4.90057 70.4454C5.00497 70.2515 5.16406 70.1007 5.37784 69.993C5.58996 69.8853 5.85843 69.8314 6.18324 69.8314H8.60938V70.418H6.22301C5.92306 70.418 5.68939 70.4959 5.52202 70.6517C5.35298 70.8075 5.26847 71.0213 5.26847 71.293C5.26847 71.4803 5.30907 71.6477 5.39027 71.7952C5.47147 71.941 5.58996 72.0562 5.74574 72.1407C5.90151 72.2252 6.09044 72.2675 6.3125 72.2675ZM3.51847 68.1727H8.60938V68.7594H3.51847V68.1727ZM10.0412 66.7204C10.0412 66.8199 10.0329 66.9085 10.0163 66.9864C10.0014 67.0643 9.98651 67.1181 9.97159 67.148L9.45455 66.9988C9.491 66.8563 9.50426 66.7304 9.49432 66.621C9.48438 66.5116 9.43549 66.4147 9.34766 66.3302C9.26148 66.244 9.12145 66.1653 8.92756 66.094L8.62926 65.9846L4.79119 67.3966V66.7602L7.83381 65.7062V65.6664L4.79119 64.6125V63.9761L9.16619 65.5968C9.3634 65.6698 9.52663 65.7601 9.65589 65.8678C9.78681 65.9755 9.88376 66.1006 9.94673 66.2431C10.0097 66.384 10.0412 66.5431 10.0412 66.7204Z" fill="white"/>
<path d="M14.3821 152.817L13.2884 152.777L13.875 153.702L13.4574 153.941L12.9503 152.966L12.4432 153.941L12.0256 153.702L12.6122 152.777L11.5185 152.817V152.34L12.6122 152.38L12.0256 151.455L12.4432 151.216L12.9503 152.191L13.4574 151.216L13.875 151.455L13.2884 152.38L14.3821 152.34V152.817ZM11.5185 150.212V149.476L15.7443 147.746V147.687L11.5185 145.956V145.221H16.6094V145.797H12.7415V145.847L16.6094 147.438V147.995L12.7415 149.586V149.635H16.6094V150.212H11.5185ZM16.6094 143.985H11.5185V142.264C11.5185 141.867 11.5864 141.54 11.7223 141.285C11.8565 141.03 12.0413 140.841 12.2766 140.718C12.512 140.596 12.7796 140.534 13.0795 140.534C13.3795 140.534 13.6455 140.596 13.8775 140.718C14.1095 140.841 14.2918 141.029 14.4244 141.282C14.5553 141.536 14.6207 141.86 14.6207 142.254V143.646H14.0639V142.274C14.0639 142.003 14.0241 141.784 13.9446 141.618C13.8651 141.451 13.7524 141.33 13.6065 141.255C13.459 141.179 13.2834 141.141 13.0795 141.141C12.8757 141.141 12.6976 141.179 12.5451 141.255C12.3926 141.331 12.275 141.453 12.1921 141.621C12.1076 141.788 12.0653 142.009 12.0653 142.284V143.368H16.6094V143.985ZM14.3224 141.588L16.6094 140.335V141.051L14.3224 142.284V141.588ZM16.6094 139.507H11.5185L11.5185 137.787C11.5185 137.387 11.5906 137.061 11.7347 136.807C11.8772 136.552 12.0703 136.363 12.3139 136.241C12.5575 136.118 12.8293 136.057 13.1293 136.057C13.4292 136.057 13.7018 136.118 13.9471 136.241C14.1924 136.362 14.3879 136.549 14.5337 136.802C14.6779 137.056 14.75 137.381 14.75 137.777V139.01H14.2031V137.797C14.2031 137.523 14.1559 137.304 14.0614 137.138C13.967 136.972 13.8394 136.852 13.6786 136.778C13.5162 136.701 13.3331 136.663 13.1293 136.663C12.9254 136.663 12.7431 136.701 12.5824 136.778C12.4216 136.852 12.2957 136.973 12.2045 137.141C12.1117 137.308 12.0653 137.53 12.0653 137.807V138.891H16.6094V139.507ZM16.6094 133.174H12.7912V132.588H16.6094V133.174ZM12.1548 132.876C12.1548 132.99 12.1159 133.089 12.038 133.172C11.9601 133.253 11.8665 133.294 11.7571 133.294C11.6477 133.294 11.5541 133.253 11.4762 133.172C11.3983 133.089 11.3594 132.99 11.3594 132.876C11.3594 132.762 11.3983 132.664 11.4762 132.583C11.5541 132.5 11.6477 132.459 11.7571 132.459C11.8665 132.459 11.9601 132.5 12.038 132.583C12.1159 132.664 12.1548 132.762 12.1548 132.876ZM14.3125 130.927H16.6094V131.513H12.7912V130.947H13.3878V130.897C13.1939 130.807 13.0381 130.671 12.9205 130.489C12.8011 130.307 12.7415 130.072 12.7415 129.783C12.7415 129.525 12.7945 129.298 12.9006 129.105C13.005 128.911 13.1641 128.76 13.3778 128.652C13.59 128.544 13.8584 128.491 14.1832 128.491H16.6094V129.077H14.223C13.9231 129.077 13.6894 129.155 13.522 129.311C13.353 129.467 13.2685 129.68 13.2685 129.952C13.2685 130.139 13.3091 130.307 13.3903 130.454C13.4715 130.6 13.59 130.715 13.7457 130.8C13.9015 130.884 14.0904 130.927 14.3125 130.927ZM16.6889 125.867C16.6889 126.225 16.6044 126.534 16.4354 126.792C16.2663 127.051 16.0335 127.25 15.7369 127.389C15.4402 127.528 15.1013 127.598 14.7202 127.598C14.3324 127.598 13.9902 127.526 13.6935 127.384C13.3952 127.24 13.1624 127.039 12.995 126.782C12.826 126.524 12.7415 126.222 12.7415 125.877C12.7415 125.609 12.7912 125.367 12.8906 125.152C12.9901 124.936 13.1293 124.76 13.3082 124.622C13.4872 124.485 13.696 124.399 13.9347 124.366V124.953C13.7607 124.997 13.6065 125.097 13.4723 125.251C13.3364 125.403 13.2685 125.609 13.2685 125.867C13.2685 126.096 13.3281 126.297 13.4474 126.469C13.5651 126.64 13.7317 126.773 13.9471 126.869C14.1609 126.964 14.4119 127.011 14.7003 127.011C14.9953 127.011 15.2521 126.965 15.4709 126.872C15.6896 126.777 15.8595 126.645 15.9805 126.474C16.1014 126.302 16.1619 126.099 16.1619 125.867C16.1619 125.715 16.1354 125.577 16.0824 125.452C16.0294 125.328 15.9531 125.223 15.8537 125.137C15.7543 125.05 15.6349 124.989 15.4957 124.953V124.366C15.7211 124.399 15.9241 124.481 16.1048 124.612C16.2837 124.741 16.4263 124.913 16.5323 125.127C16.6367 125.339 16.6889 125.586 16.6889 125.867ZM11.5185 122.922H16.6094V123.508H11.5185V122.922ZM15.0483 119.441H12.7912V118.854H16.6094V119.441H15.9631V119.481C16.157 119.57 16.3219 119.71 16.4577 119.898C16.592 120.087 16.6591 120.326 16.6591 120.614C16.6591 120.853 16.6069 121.065 16.5025 121.251C16.3964 121.436 16.2373 121.582 16.0252 121.688C15.8114 121.794 15.5421 121.847 15.2173 121.847H12.7912V121.261H15.1776C15.456 121.261 15.678 121.183 15.8438 121.027C16.0095 120.87 16.0923 120.669 16.0923 120.425C16.0923 120.28 16.055 120.131 15.9805 119.98C15.9059 119.828 15.7915 119.7 15.6374 119.598C15.4833 119.493 15.2869 119.441 15.0483 119.441ZM13.6463 115.075L13.7955 115.602C13.7076 115.635 13.6223 115.684 13.5394 115.749C13.4549 115.812 13.3853 115.898 13.3306 116.008C13.2759 116.117 13.2486 116.257 13.2486 116.428C13.2486 116.661 13.3024 116.856 13.4102 117.012C13.5162 117.166 13.6513 117.243 13.8153 117.243C13.9612 117.243 14.0763 117.19 14.1609 117.084C14.2454 116.978 14.3158 116.812 14.3722 116.587L14.5114 116.02C14.5942 115.679 14.721 115.424 14.8917 115.257C15.0607 115.089 15.2786 115.006 15.5455 115.006C15.7642 115.006 15.9598 115.069 16.1321 115.195C16.3045 115.319 16.4403 115.493 16.5398 115.717C16.6392 115.94 16.6889 116.201 16.6889 116.497C16.6889 116.887 16.6044 117.209 16.4354 117.464C16.2663 117.719 16.0194 117.881 15.6946 117.949L15.5554 117.392C15.7609 117.339 15.915 117.239 16.0178 117.091C16.1205 116.942 16.1719 116.747 16.1719 116.507C16.1719 116.234 16.1139 116.017 15.9979 115.856C15.8802 115.693 15.7393 115.612 15.5753 115.612C15.4427 115.612 15.3317 115.659 15.2422 115.751C15.151 115.844 15.0831 115.987 15.0384 116.179L14.8892 116.815C14.8063 117.165 14.6779 117.422 14.5039 117.586C14.3282 117.748 14.1087 117.83 13.8452 117.83C13.6297 117.83 13.4392 117.769 13.2734 117.648C13.1077 117.526 12.9776 117.359 12.8832 117.149C12.7887 116.936 12.7415 116.696 12.7415 116.428C12.7415 116.05 12.8243 115.753 12.9901 115.538C13.1558 115.321 13.3745 115.167 13.6463 115.075ZM16.6094 114.123H12.7912V113.536H16.6094V114.123ZM12.1548 113.824C12.1548 113.939 12.1159 114.037 12.038 114.12C11.9601 114.201 11.8665 114.242 11.7571 114.242C11.6477 114.242 11.5541 114.201 11.4762 114.12C11.3983 114.037 11.3594 113.939 11.3594 113.824C11.3594 113.71 11.3983 113.612 11.4762 113.531C11.5541 113.448 11.6477 113.407 11.7571 113.407C11.8665 113.407 11.9601 113.448 12.038 113.531C12.1159 113.612 12.1548 113.71 12.1548 113.824ZM12.7912 109.339L16.6094 110.751V111.348L12.7912 112.76V112.123L15.8338 111.069V111.03L12.7912 109.976V109.339ZM16.6889 107.101C16.6889 107.469 16.6077 107.786 16.4453 108.053C16.2813 108.318 16.0526 108.523 15.7592 108.667C15.4643 108.809 15.1212 108.881 14.7301 108.881C14.339 108.881 13.9943 108.809 13.696 108.667C13.3961 108.523 13.1624 108.322 12.995 108.065C12.826 107.807 12.7415 107.505 12.7415 107.161C12.7415 106.962 12.7746 106.765 12.8409 106.571C12.9072 106.378 13.0149 106.201 13.1641 106.042C13.3116 105.883 13.5071 105.756 13.7507 105.662C13.9943 105.567 14.2943 105.52 14.6506 105.52H14.8991V108.463H14.392V106.117C14.1766 106.117 13.9844 106.16 13.8153 106.246C13.6463 106.33 13.5129 106.451 13.4151 106.609C13.3174 106.765 13.2685 106.948 13.2685 107.161C13.2685 107.394 13.3265 107.596 13.4425 107.767C13.5568 107.936 13.706 108.066 13.8899 108.157C14.0739 108.249 14.2711 108.294 14.4815 108.294H14.8196C15.108 108.294 15.3524 108.244 15.5529 108.145C15.7518 108.044 15.9034 107.904 16.0078 107.725C16.1106 107.546 16.1619 107.338 16.1619 107.101C16.1619 106.947 16.1404 106.808 16.0973 106.683C16.0526 106.557 15.9863 106.449 15.8984 106.358C15.8089 106.267 15.6979 106.196 15.5653 106.146L15.7244 105.58C15.9167 105.639 16.0857 105.74 16.2315 105.88C16.3757 106.021 16.4884 106.195 16.5696 106.402C16.6491 106.61 16.6889 106.842 16.6889 107.101ZM16.6889 101.108C16.6889 101.452 16.6069 101.755 16.4428 102.015C16.2788 102.274 16.0492 102.476 15.7543 102.622C15.4593 102.766 15.1146 102.838 14.7202 102.838C14.3224 102.838 13.9753 102.766 13.6786 102.622C13.382 102.476 13.1516 102.274 12.9876 102.015C12.8235 101.755 12.7415 101.452 12.7415 101.108C12.7415 100.763 12.8235 100.461 12.9876 100.203C13.1516 99.9427 13.382 99.7405 13.6786 99.5963C13.9753 99.4505 14.3224 99.3776 14.7202 99.3776C15.1146 99.3776 15.4593 99.4505 15.7543 99.5963C16.0492 99.7405 16.2788 99.9427 16.4428 100.203C16.6069 100.461 16.6889 100.763 16.6889 101.108ZM16.1619 101.108C16.1619 100.846 16.0948 100.63 15.9606 100.461C15.8263 100.292 15.6499 100.167 15.4311 100.086C15.2124 100.005 14.9754 99.9642 14.7202 99.9642C14.465 99.9642 14.2272 100.005 14.0067 100.086C13.7863 100.167 13.6082 100.292 13.4723 100.461C13.3364 100.63 13.2685 100.846 13.2685 101.108C13.2685 101.37 13.3364 101.585 13.4723 101.754C13.6082 101.923 13.7863 102.048 14.0067 102.129C14.2272 102.211 14.465 102.251 14.7202 102.251C14.9754 102.251 15.2124 102.211 15.4311 102.129C15.6499 102.048 15.8263 101.923 15.9606 101.754C16.0948 101.585 16.1619 101.37 16.1619 101.108ZM12.7912 96.7818H13.2884V98.84H12.7912V96.7818ZM16.6094 98.2235H12.2642C12.0455 98.2235 11.8632 98.1722 11.7173 98.0694C11.5715 97.9667 11.4621 97.8333 11.3892 97.6692C11.3163 97.5051 11.2798 97.332 11.2798 97.1497C11.2798 97.0055 11.2914 96.8878 11.3146 96.7967C11.3378 96.7055 11.3594 96.6376 11.3793 96.5928L11.8864 96.7619C11.8764 96.7917 11.864 96.8331 11.8491 96.8862C11.8342 96.9375 11.8267 97.0055 11.8267 97.09C11.8267 97.2839 11.8756 97.4239 11.9734 97.5101C12.0711 97.5946 12.2145 97.6369 12.4034 97.6369H16.6094V98.2235ZM16.6989 92.8673C16.6989 93.1092 16.6533 93.3288 16.5621 93.526C16.4693 93.7232 16.3359 93.8798 16.1619 93.9958C15.9863 94.1118 15.7741 94.1698 15.5256 94.1698C15.3068 94.1698 15.1295 94.1267 14.9936 94.0406C14.8561 93.9544 14.7483 93.8392 14.6705 93.695C14.5926 93.5509 14.5346 93.3918 14.4964 93.2178C14.4567 93.0421 14.4252 92.8656 14.402 92.6883C14.3722 92.4563 14.3498 92.2682 14.3349 92.124C14.3183 91.9782 14.291 91.8721 14.2528 91.8058C14.2147 91.7379 14.1484 91.7039 14.054 91.7039H14.0341C13.7888 91.7039 13.5982 91.771 13.4624 91.9053C13.3265 92.0378 13.2585 92.2392 13.2585 92.5093C13.2585 92.7894 13.3198 93.0089 13.4425 93.168C13.5651 93.3271 13.696 93.439 13.8352 93.5036L13.6364 94.0604C13.4044 93.961 13.2237 93.8284 13.0945 93.6627C12.9635 93.4953 12.8724 93.313 12.821 93.1158C12.768 92.917 12.7415 92.7214 12.7415 92.5292C12.7415 92.4066 12.7564 92.2657 12.7862 92.1066C12.8144 91.9459 12.8732 91.7909 12.9627 91.6418C13.0522 91.491 13.1873 91.3658 13.3679 91.2664C13.5485 91.167 13.7905 91.1173 14.0938 91.1173H16.6094V91.7039H16.0923V91.7337C16.1752 91.7735 16.2638 91.8398 16.3583 91.9326C16.4528 92.0254 16.5331 92.1489 16.5994 92.303C16.6657 92.4571 16.6989 92.6452 16.6989 92.8673ZM16.1719 92.7778C16.1719 92.5458 16.1263 92.3502 16.0352 92.1911C15.944 92.0304 15.8263 91.9094 15.6822 91.8282C15.538 91.7453 15.3864 91.7039 15.2273 91.7039H14.6903C14.7202 91.7288 14.7475 91.7835 14.7724 91.868C14.7956 91.9508 14.8163 92.0469 14.8345 92.1563C14.8511 92.264 14.866 92.3693 14.8793 92.472C14.8909 92.5731 14.9008 92.6551 14.9091 92.7181C14.929 92.8706 14.9613 93.0131 15.006 93.1457C15.0491 93.2766 15.1146 93.3826 15.2024 93.4639C15.2886 93.5434 15.4062 93.5832 15.5554 93.5832C15.7592 93.5832 15.9134 93.5078 16.0178 93.357C16.1205 93.2045 16.1719 93.0114 16.1719 92.7778ZM11.5185 89.4599H16.6094V90.0465H11.5185V89.4599ZM11.5185 87.7987H16.6094V88.3854H11.5185V87.7987ZM12.7912 83.095H13.2884V85.0737H12.7912V83.095ZM11.8764 84.497V83.9103H15.5156C15.6813 83.9103 15.8056 83.8863 15.8885 83.8382C15.9697 83.7885 16.0244 83.7255 16.0526 83.6493C16.0791 83.5714 16.0923 83.4894 16.0923 83.4032C16.0923 83.3386 16.089 83.2856 16.0824 83.2441C16.0741 83.2027 16.0675 83.1696 16.0625 83.1447L16.5895 83.0254C16.6044 83.0651 16.6193 83.1207 16.6342 83.1919C16.6508 83.2632 16.6591 83.3535 16.6591 83.4629C16.6591 83.6286 16.6235 83.791 16.5522 83.9501C16.4809 84.1075 16.3724 84.2384 16.2266 84.3428C16.0807 84.4456 15.8968 84.497 15.6747 84.497H11.8764ZM16.6989 81.0889C16.6989 81.3309 16.6533 81.5505 16.5621 81.7477C16.4693 81.9449 16.3359 82.1015 16.1619 82.2175C15.9863 82.3335 15.7741 82.3915 15.5256 82.3915C15.3068 82.3915 15.1295 82.3484 14.9936 82.2622C14.8561 82.1761 14.7483 82.0609 14.6705 81.9167C14.5926 81.7725 14.5346 81.6134 14.4964 81.4394C14.4567 81.2638 14.4252 81.0873 14.402 80.91C14.3722 80.678 14.3498 80.4899 14.3349 80.3457C14.3183 80.1999 14.291 80.0938 14.2528 80.0275C14.2147 79.9596 14.1484 79.9256 14.054 79.9256H14.0341C13.7888 79.9256 13.5982 79.9927 13.4624 80.1269C13.3265 80.2595 13.2585 80.4609 13.2585 80.731C13.2585 81.0111 13.3198 81.2306 13.4425 81.3897C13.5651 81.5488 13.696 81.6607 13.8352 81.7253L13.6364 82.2821C13.4044 82.1827 13.2237 82.0501 13.0945 81.8844C12.9635 81.717 12.8724 81.5347 12.821 81.3375C12.768 81.1387 12.7415 80.9431 12.7415 80.7509C12.7415 80.6282 12.7564 80.4874 12.7862 80.3283C12.8144 80.1675 12.8732 80.0126 12.9627 79.8634C13.0522 79.7126 13.1873 79.5875 13.3679 79.4881C13.5485 79.3887 13.7905 79.3389 14.0938 79.3389H16.6094V79.9256H16.0923V79.9554C16.1752 79.9952 16.2638 80.0615 16.3583 80.1543C16.4528 80.2471 16.5331 80.3705 16.5994 80.5247C16.6657 80.6788 16.6989 80.8669 16.6989 81.0889ZM16.1719 80.9995C16.1719 80.7674 16.1263 80.5719 16.0352 80.4128C15.944 80.2521 15.8263 80.1311 15.6822 80.0499C15.538 79.967 15.3864 79.9256 15.2273 79.9256H14.6903C14.7202 79.9504 14.7475 80.0051 14.7724 80.0896C14.7956 80.1725 14.8163 80.2686 14.8345 80.378C14.8511 80.4857 14.866 80.591 14.8793 80.6937C14.8909 80.7948 14.9008 80.8768 14.9091 80.9398C14.929 81.0923 14.9613 81.2348 15.006 81.3673C15.0491 81.4983 15.1146 81.6043 15.2024 81.6855C15.2886 81.7651 15.4062 81.8048 15.5554 81.8048C15.7592 81.8048 15.9134 81.7294 16.0178 81.5786C16.1205 81.4262 16.1719 81.2331 16.1719 80.9995ZM12.7912 77.8307L14.3523 76.9159L12.7912 76.0011V75.325L14.7003 76.558L16.6094 75.325V76.0011L15.1278 76.9159L16.6094 77.8307V78.5068L14.7003 77.2938L12.7912 78.5068V77.8307ZM16.6889 73.0443C16.6889 73.4122 16.6077 73.7295 16.4453 73.9963C16.2813 74.2615 16.0526 74.4662 15.7592 74.6103C15.4643 74.7529 15.1212 74.8241 14.7301 74.8241C14.339 74.8241 13.9943 74.7529 13.696 74.6103C13.3961 74.4662 13.1624 74.2656 12.995 74.0088C12.826 73.7502 12.7415 73.4486 12.7415 73.1039C12.7415 72.9051 12.7746 72.7087 12.8409 72.5148C12.9072 72.3209 13.0149 72.1444 13.1641 71.9853C13.3116 71.8262 13.5071 71.6995 13.7507 71.605C13.9943 71.5105 14.2943 71.4633 14.6506 71.4633H14.8991V74.4065H14.392V72.0599C14.1766 72.0599 13.9844 72.103 13.8153 72.1892C13.6463 72.2737 13.5129 72.3947 13.4151 72.5521C13.3174 72.7079 13.2685 72.8918 13.2685 73.1039C13.2685 73.3376 13.3265 73.5398 13.4425 73.7105C13.5568 73.8795 13.706 74.0096 13.8899 74.1007C14.0739 74.1919 14.2711 74.2375 14.4815 74.2375H14.8196C15.108 74.2375 15.3524 74.1877 15.5529 74.0883C15.7518 73.9872 15.9034 73.8472 16.0078 73.6682C16.1106 73.4892 16.1619 73.2813 16.1619 73.0443C16.1619 72.8902 16.1404 72.751 16.0973 72.6267C16.0526 72.5007 15.9863 72.3922 15.8984 72.301C15.8089 72.2099 15.6979 72.1395 15.5653 72.0897L15.7244 71.523C15.9167 71.5826 16.0857 71.6829 16.2315 71.8238C16.3757 71.9646 16.4884 72.1386 16.5696 72.3458C16.6491 72.5529 16.6889 72.7858 16.6889 73.0443ZM13.6463 67.8664L13.7955 68.3934C13.7076 68.4265 13.6223 68.4754 13.5394 68.54C13.4549 68.603 13.3853 68.6892 13.3306 68.7985C13.2759 68.9079 13.2486 69.048 13.2486 69.2186C13.2486 69.4523 13.3024 69.647 13.4102 69.8028C13.5162 69.9569 13.6513 70.034 13.8153 70.034C13.9612 70.034 14.0763 69.981 14.1609 69.8749C14.2454 69.7688 14.3158 69.6031 14.3722 69.3777L14.5114 68.811C14.5942 68.4696 14.721 68.2152 14.8917 68.0478C15.0607 67.8805 15.2786 67.7968 15.5455 67.7968C15.7642 67.7968 15.9598 67.8597 16.1321 67.9857C16.3045 68.11 16.4403 68.284 16.5398 68.5077C16.6392 68.7314 16.6889 68.9916 16.6889 69.2882C16.6889 69.6777 16.6044 70 16.4354 70.2552C16.2663 70.5104 16.0194 70.672 15.6946 70.74L15.5554 70.1831C15.7609 70.1301 15.915 70.0298 16.0178 69.8824C16.1205 69.7332 16.1719 69.5385 16.1719 69.2982C16.1719 69.0248 16.1139 68.8077 15.9979 68.6469C15.8802 68.4845 15.7393 68.4033 15.5753 68.4033C15.4427 68.4033 15.3317 68.4497 15.2422 68.5425C15.151 68.6353 15.0831 68.7778 15.0384 68.9701L14.8892 69.6064C14.8063 69.9561 14.6779 70.213 14.5039 70.377C14.3282 70.5394 14.1087 70.6206 13.8452 70.6206C13.6297 70.6206 13.4392 70.5601 13.2734 70.4392C13.1077 70.3165 12.9776 70.15 12.8832 69.9395C12.7887 69.7274 12.7415 69.4871 12.7415 69.2186C12.7415 68.8408 12.8243 68.5442 12.9901 68.3287C13.1558 68.1116 13.3745 67.9575 13.6463 67.8664ZM17.206 62.0117C17.206 62.5188 17.1364 62.9671 16.9972 63.3565C16.8596 63.746 16.6566 64.0733 16.3881 64.3384C16.1197 64.6036 15.7907 64.8041 15.4013 64.94C15.0118 65.0759 14.5661 65.1438 14.0639 65.1438C13.5784 65.1438 13.1442 65.075 12.7614 64.9375C12.3786 64.7983 12.0537 64.5969 11.7869 64.3334C11.5185 64.0683 11.3138 63.7468 11.1729 63.3689C11.0321 62.9894 10.9616 62.5602 10.9616 62.0813C10.9616 61.6156 11.0379 61.208 11.1903 60.8583C11.3411 60.507 11.5458 60.2136 11.8043 59.9783C12.0612 59.7413 12.3504 59.564 12.6719 59.4464C12.9934 59.327 13.3248 59.2674 13.6662 59.2674C13.9065 59.2674 14.1501 59.279 14.397 59.3022C14.6439 59.3254 14.871 59.3743 15.0781 59.4488C15.2836 59.5234 15.4493 59.6386 15.5753 59.7944C15.7012 59.9485 15.7642 60.1573 15.7642 60.4208C15.7642 60.5368 15.746 60.6644 15.7095 60.8036C15.6731 60.9428 15.6126 61.0663 15.5281 61.174C15.4435 61.2817 15.33 61.3455 15.1875 61.3654V61.3952C15.2836 61.435 15.3748 61.4963 15.4609 61.5792C15.5471 61.6604 15.6159 61.7673 15.6673 61.8998C15.7186 62.0308 15.741 62.1907 15.7344 62.3796C15.7261 62.595 15.678 62.7848 15.5902 62.9488C15.5007 63.1129 15.3797 63.2505 15.2273 63.3615C15.0732 63.4709 14.895 63.5537 14.6928 63.6101C14.489 63.6648 14.2694 63.6921 14.0341 63.6921C13.8104 63.6921 13.6057 63.659 13.4201 63.5927C13.2345 63.5264 13.0721 63.4344 12.9329 63.3167C12.7937 63.1974 12.6826 63.0582 12.5998 62.8991C12.5153 62.7384 12.4631 62.5652 12.4432 62.3796C12.4266 62.2139 12.4341 62.0631 12.4656 61.9272C12.4954 61.7913 12.541 61.6794 12.6023 61.5916C12.6619 61.5038 12.7282 61.4483 12.8011 61.4251V61.3952H12.5227V60.8682H14.7699C14.9091 60.8682 15.0317 60.8293 15.1378 60.7514C15.2438 60.6735 15.2969 60.56 15.2969 60.4108C15.2969 60.2418 15.2389 60.1126 15.1229 60.0231C15.0069 59.9319 14.8279 59.8698 14.5859 59.8366C14.344 59.8018 14.0341 59.7844 13.6563 59.7844C13.4342 59.7844 13.2154 59.8151 13 59.8764C12.7829 59.9361 12.5799 60.0272 12.391 60.1498C12.2021 60.2708 12.0355 60.4241 11.8913 60.6097C11.7472 60.7953 11.6345 61.0132 11.5533 61.2635C11.4704 61.5121 11.429 61.7946 11.429 62.1111C11.429 62.5006 11.4895 62.8494 11.6104 63.1577C11.7298 63.4642 11.9046 63.7252 12.1349 63.9407C12.3636 64.1545 12.642 64.3177 12.9702 64.4304C13.2966 64.5414 13.6679 64.5969 14.0838 64.5969C14.5064 64.5969 14.8817 64.5414 15.2099 64.4304C15.538 64.3177 15.8147 64.152 16.0401 63.9332C16.2655 63.7128 16.437 63.4402 16.5547 63.1154C16.6707 62.7906 16.7287 62.4161 16.7287 61.9918C16.7287 61.8095 16.7113 61.6297 16.6765 61.4524C16.6417 61.2751 16.6036 61.1185 16.5621 60.9826C16.5207 60.8467 16.4901 60.7489 16.4702 60.6893L16.9276 60.5501C16.9706 60.6528 17.0137 60.787 17.0568 60.9528C17.0999 61.1168 17.1355 61.2925 17.1637 61.4797C17.1919 61.6653 17.206 61.8427 17.206 62.0117ZM15.2273 62.3001C15.2273 62.078 15.1825 61.8982 15.093 61.7606C15.0036 61.6231 14.8685 61.5228 14.6879 61.4599C14.5072 61.3969 14.2794 61.3654 14.0043 61.3654C13.7259 61.3654 13.5088 61.4002 13.353 61.4698C13.1972 61.5394 13.0878 61.6421 13.0249 61.778C12.9619 61.9139 12.9304 62.0813 12.9304 62.2802C12.9304 62.4691 12.9801 62.6307 13.0795 62.7649C13.1773 62.8975 13.3082 62.9994 13.4723 63.0707C13.6347 63.1403 13.812 63.1751 14.0043 63.1751C14.2164 63.1751 14.4161 63.1469 14.6033 63.0905C14.7889 63.0342 14.9397 62.9422 15.0558 62.8146C15.1701 62.687 15.2273 62.5155 15.2273 62.3001ZM16.6094 58.3097H11.5185V56.5896C11.5185 56.1918 11.5864 55.8654 11.7223 55.6102C11.8565 55.3549 12.0413 55.166 12.2766 55.0434C12.512 54.9208 12.7796 54.8594 13.0795 54.8594C13.3795 54.8594 13.6455 54.9208 13.8775 55.0434C14.1095 55.166 14.2918 55.3541 14.4244 55.6077C14.5553 55.8612 14.6207 56.1852 14.6207 56.5796V57.9717H14.0639V56.5995C14.0639 56.3277 14.0241 56.109 13.9446 55.9433C13.8651 55.7759 13.7524 55.6549 13.6065 55.5803C13.459 55.5041 13.2834 55.466 13.0795 55.466C12.8757 55.466 12.6976 55.5041 12.5451 55.5803C12.3926 55.6566 12.275 55.7784 12.1921 55.9457C12.1076 56.1131 12.0653 56.3344 12.0653 56.6094L12.0653 57.6933H16.6094V58.3097ZM14.3224 55.9134L16.6094 54.6606V55.3765L14.3224 56.6094V55.9134ZM13.6463 51.2072L13.7955 51.7342C13.7076 51.7673 13.6223 51.8162 13.5394 51.8808C13.4549 51.9438 13.3853 52.03 13.3306 52.1394C13.2759 52.2487 13.2486 52.3888 13.2486 52.5595C13.2486 52.7931 13.3024 52.9879 13.4102 53.1436C13.5162 53.2977 13.6513 53.3748 13.8153 53.3748C13.9612 53.3748 14.0763 53.3218 14.1609 53.2157C14.2454 53.1097 14.3158 52.9439 14.3722 52.7186L14.5114 52.1518C14.5942 51.8104 14.721 51.556 14.8917 51.3887C15.0607 51.2213 15.2786 51.1376 15.5455 51.1376C15.7642 51.1376 15.9598 51.2006 16.1321 51.3265C16.3045 51.4508 16.4403 51.6248 16.5398 51.8485C16.6392 52.0722 16.6889 52.3324 16.6889 52.6291C16.6889 53.0185 16.6044 53.3408 16.4354 53.596C16.2663 53.8512 16.0194 54.0128 15.6946 54.0808L15.5554 53.524C15.7609 53.4709 15.915 53.3707 16.0178 53.2232C16.1205 53.074 16.1719 52.8793 16.1719 52.639C16.1719 52.3656 16.1139 52.1485 15.9979 51.9877C15.8802 51.8253 15.7393 51.7441 15.5753 51.7441C15.4427 51.7441 15.3317 51.7905 15.2422 51.8833C15.151 51.9761 15.0831 52.1187 15.0384 52.3109L14.8892 52.9472C14.8063 53.2969 14.6779 53.5538 14.5039 53.7178C14.3282 53.8803 14.1087 53.9615 13.8452 53.9615C13.6297 53.9615 13.4392 53.901 13.2734 53.78C13.1077 53.6574 12.9776 53.4908 12.8832 53.2803C12.7887 53.0682 12.7415 52.8279 12.7415 52.5595C12.7415 52.1816 12.8243 51.885 12.9901 51.6696C13.1558 51.4525 13.3745 51.2983 13.6463 51.2072ZM11.5185 46.5059H16.6094V47.1224H12.1648V47.1522L12.9901 48.3951H12.3636L11.5185 47.1224V46.5059ZM16.679 43.3813C16.679 43.7558 16.5771 44.0748 16.3732 44.3383C16.1677 44.6018 15.8703 44.8032 15.4808 44.9424C15.0897 45.0816 14.6174 45.1512 14.0639 45.1512C13.5137 45.1512 13.0439 45.0816 12.6545 44.9424C12.2634 44.8015 11.9651 44.5993 11.7596 44.3358C11.5524 44.0707 11.4489 43.7525 11.4489 43.3813C11.4489 43.0101 11.5524 42.6927 11.7596 42.4292C11.9651 42.1641 12.2634 41.9619 12.6545 41.8227C13.0439 41.6818 13.5137 41.6114 14.0639 41.6114C14.6174 41.6114 15.0897 41.681 15.4808 41.8202C15.8703 41.9594 16.1677 42.1608 16.3732 42.4243C16.5771 42.6877 16.679 43.0068 16.679 43.3813ZM16.1321 43.3813C16.1321 43.0101 15.9531 42.7217 15.5952 42.5162C15.2372 42.3107 14.7268 42.208 14.0639 42.208C13.6231 42.208 13.2478 42.2552 12.9379 42.3497C12.628 42.4425 12.3918 42.5767 12.2294 42.7524C12.067 42.9264 11.9858 43.136 11.9858 43.3813C11.9858 43.7492 12.1673 44.0367 12.5302 44.2439C12.8915 44.451 13.4027 44.5546 14.0639 44.5546C14.5047 44.5546 14.8793 44.5082 15.1875 44.4154C15.4957 44.3226 15.7302 44.1892 15.891 44.0152C16.0517 43.8395 16.1321 43.6282 16.1321 43.3813ZM11.2798 38.8571L17.375 40.4978V41.0347L11.2798 39.3941V38.8571ZM14.1534 35.9742H14.7003V38.2015H14.1534V35.9742ZM12.7912 31.273H13.2884V33.3312H12.7912V31.273ZM16.6094 32.7147H12.2642C12.0455 32.7147 11.8632 32.6634 11.7173 32.5606C11.5715 32.4579 11.4621 32.3245 11.3892 32.1604C11.3163 31.9963 11.2798 31.8232 11.2798 31.6409C11.2798 31.4967 11.2914 31.379 11.3146 31.2879C11.3378 31.1967 11.3594 31.1288 11.3793 31.0841L11.8864 31.2531C11.8764 31.2829 11.864 31.3243 11.8491 31.3774C11.8342 31.4288 11.8267 31.4967 11.8267 31.5812C11.8267 31.7751 11.8756 31.9151 11.9734 32.0013C12.0711 32.0858 12.2145 32.1281 12.4034 32.1281H16.6094V32.7147ZM16.6889 29.0569C16.6889 29.4016 16.6069 29.704 16.4428 29.9642C16.2788 30.2227 16.0492 30.4249 15.7543 30.5707C15.4593 30.7149 15.1146 30.787 14.7202 30.787C14.3224 30.787 13.9753 30.7149 13.6786 30.5707C13.382 30.4249 13.1516 30.2227 12.9876 29.9642C12.8235 29.704 12.7415 29.4016 12.7415 29.0569C12.7415 28.7122 12.8235 28.4106 12.9876 28.1521C13.1516 27.8919 13.382 27.6897 13.6786 27.5455C13.9753 27.3997 14.3224 27.3268 14.7202 27.3268C15.1146 27.3268 15.4593 27.3997 15.7543 27.5455C16.0492 27.6897 16.2788 27.8919 16.4428 28.1521C16.6069 28.4106 16.6889 28.7122 16.6889 29.0569ZM16.1619 29.0569C16.1619 28.7951 16.0948 28.5796 15.9606 28.4106C15.8263 28.2415 15.6499 28.1164 15.4311 28.0352C15.2124 27.954 14.9754 27.9134 14.7202 27.9134C14.465 27.9134 14.2272 27.954 14.0067 28.0352C13.7863 28.1164 13.6082 28.2415 13.4723 28.4106C13.3364 28.5796 13.2685 28.7951 13.2685 29.0569C13.2685 29.3187 13.3364 29.5342 13.4723 29.7032C13.6082 29.8722 13.7863 29.9973 14.0067 30.0786C14.2272 30.1598 14.465 30.2004 14.7202 30.2004C14.9754 30.2004 15.2124 30.1598 15.4311 30.0786C15.6499 29.9973 15.8263 29.8722 15.9606 29.7032C16.0948 29.5342 16.1619 29.3187 16.1619 29.0569ZM16.6094 26.4313H12.7912V25.8645H13.3679V25.8247C13.179 25.7551 13.0257 25.6292 12.908 25.4469C12.7904 25.2646 12.7315 25.0591 12.7315 24.8304C12.7315 24.7873 12.7324 24.7335 12.734 24.6688C12.7357 24.6042 12.7382 24.5553 12.7415 24.5222H13.3381C13.3331 24.5421 13.3256 24.5876 13.3157 24.6589C13.3041 24.7285 13.2983 24.8022 13.2983 24.8801C13.2983 25.0657 13.3372 25.2315 13.4151 25.3773C13.4914 25.5215 13.5974 25.6358 13.7333 25.7203C13.8675 25.8032 14.0208 25.8446 14.1932 25.8446H16.6094V26.4313ZM11.5185 20.0782H16.6094V20.6947H12.1648V20.7245L12.9901 21.9674H12.3636L11.5185 20.6947V20.0782ZM16.679 16.9834C16.679 17.3248 16.6185 17.6264 16.4975 17.8882C16.3749 18.1484 16.2067 18.3514 15.9929 18.4972C15.7775 18.6431 15.5322 18.7152 15.2571 18.7135C15.0417 18.7152 14.8428 18.6729 14.6605 18.5867C14.4766 18.5005 14.3233 18.3829 14.2006 18.2337C14.0763 18.0829 13.9976 17.9147 13.9645 17.7291H13.9347C13.8717 17.9727 13.735 18.1666 13.5245 18.3108C13.3124 18.455 13.0713 18.5262 12.8011 18.5246C12.5426 18.5262 12.3114 18.4608 12.1076 18.3282C11.9038 18.1956 11.743 18.0133 11.6254 17.7813C11.5077 17.5477 11.4489 17.2817 11.4489 16.9834C11.4489 16.6884 11.5077 16.4249 11.6254 16.1929C11.743 15.9609 11.9038 15.7786 12.1076 15.646C12.3114 15.5118 12.5426 15.4438 12.8011 15.4422C13.0713 15.4438 13.3124 15.5176 13.5245 15.6634C13.735 15.8076 13.8717 15.999 13.9347 16.2376H13.9645C13.9976 16.0537 14.0763 15.888 14.2006 15.7405C14.3233 15.593 14.4766 15.4753 14.6605 15.3875C14.8428 15.2997 15.0417 15.2549 15.2571 15.2533C15.5322 15.2549 15.7775 15.3295 15.9929 15.477C16.2067 15.6228 16.3749 15.8258 16.4975 16.086C16.6185 16.3445 16.679 16.6437 16.679 16.9834ZM16.1321 16.9834C16.1321 16.753 16.0948 16.5542 16.0202 16.3868C15.9457 16.2194 15.8404 16.0902 15.7045 15.999C15.5687 15.9079 15.4096 15.8615 15.2273 15.8598C15.035 15.8615 14.8652 15.9112 14.7177 16.0089C14.5702 16.1067 14.4542 16.2401 14.3697 16.4092C14.2852 16.5765 14.2429 16.7679 14.2429 16.9834C14.2429 17.2005 14.2852 17.3944 14.3697 17.5651C14.4542 17.7341 14.5702 17.8675 14.7177 17.9653C14.8652 18.0614 15.035 18.1086 15.2273 18.107C15.4096 18.1086 15.5687 18.0647 15.7045 17.9752C15.8404 17.8841 15.9457 17.754 16.0202 17.5849C16.0948 17.4159 16.1321 17.2154 16.1321 16.9834ZM13.7159 16.9834C13.7159 16.8011 13.6795 16.6395 13.6065 16.4987C13.5336 16.3561 13.4317 16.2443 13.3008 16.1631C13.1699 16.0819 13.0166 16.0404 12.8409 16.0388C12.6686 16.0404 12.5186 16.081 12.391 16.1606C12.2617 16.2401 12.1623 16.3503 12.0927 16.4912C12.0214 16.6321 11.9858 16.7961 11.9858 16.9834C11.9858 17.174 12.0214 17.3405 12.0927 17.483C12.1623 17.6255 12.2617 17.7357 12.391 17.8136C12.5186 17.8915 12.6686 17.9296 12.8409 17.928C13.0166 17.9296 13.1699 17.8907 13.3008 17.8112C13.4317 17.7299 13.5336 17.6181 13.6065 17.4756C13.6795 17.3331 13.7159 17.169 13.7159 16.9834ZM16.679 12.6401C16.679 13.0146 16.5771 13.3336 16.3732 13.5971C16.1677 13.8606 15.8703 14.062 15.4808 14.2012C15.0897 14.3404 14.6174 14.41 14.0639 14.41C13.5137 14.41 13.0439 14.3404 12.6545 14.2012C12.2634 14.0603 11.9651 13.8581 11.7596 13.5946C11.5524 13.3295 11.4489 13.0113 11.4489 12.6401C11.4489 12.2689 11.5524 11.9515 11.7596 11.688C11.9651 11.4229 12.2634 11.2207 12.6545 11.0815C13.0439 10.9406 13.5137 10.8702 14.0639 10.8702C14.6174 10.8702 15.0897 10.9398 15.4808 11.079C15.8703 11.2182 16.1677 11.4196 16.3732 11.683C16.5771 11.9465 16.679 12.2655 16.679 12.6401ZM16.1321 12.6401C16.1321 12.2689 15.9531 11.9805 15.5952 11.775C15.2372 11.5695 14.7268 11.4668 14.0639 11.4668C13.6231 11.4668 13.2478 11.514 12.9379 11.6085C12.628 11.7013 12.3918 11.8355 12.2294 12.0112C12.067 12.1852 11.9858 12.3948 11.9858 12.6401C11.9858 13.008 12.1673 13.2955 12.5302 13.5026C12.8915 13.7098 13.4027 13.8134 14.0639 13.8134C14.5047 13.8134 14.8793 13.767 15.1875 13.6742C15.4957 13.5814 15.7302 13.448 15.891 13.274C16.0517 13.0983 16.1321 12.887 16.1321 12.6401ZM16.6094 7.94689H12.7912V7.38013H13.3878V7.33042C13.1839 7.25087 13.0257 7.12244 12.913 6.94512C12.7987 6.7678 12.7415 6.55485 12.7415 6.30627C12.7415 6.05437 12.7987 5.84474 12.913 5.67736C13.0257 5.50833 13.1839 5.37658 13.3878 5.28212V5.24235C13.1906 5.14457 13.034 4.99791 12.918 4.80236C12.8003 4.60681 12.7415 4.37232 12.7415 4.09888C12.7415 3.7575 12.8484 3.47826 13.0621 3.26117C13.2743 3.04408 13.6049 2.93553 14.054 2.93553H16.6094V3.52218H14.054C13.7723 3.52218 13.5709 3.59924 13.4499 3.75336C13.329 3.90748 13.2685 4.08894 13.2685 4.29775C13.2685 4.56621 13.3497 4.77419 13.5121 4.92168C13.6728 5.06917 13.8767 5.14292 14.1236 5.14292H16.6094V5.73951H13.9943C13.7772 5.73951 13.6024 5.80994 13.4698 5.9508C13.3356 6.09166 13.2685 6.27312 13.2685 6.49519C13.2685 6.64765 13.3091 6.79017 13.3903 6.92275C13.4715 7.05366 13.5842 7.15973 13.7283 7.24093C13.8709 7.32047 14.0357 7.36025 14.223 7.36025H16.6094V7.94689ZM11.5185 1.27626H16.6094V1.86291H11.5185V1.27626Z" fill="white"/>
<path d="M22.3821 152.242L21.2884 152.202L21.875 153.127L21.4574 153.366L20.9503 152.391L20.4432 153.366L20.0256 153.127L20.6122 152.202L19.5185 152.242V151.765L20.6122 151.804L20.0256 150.88L20.4432 150.641L20.9503 151.616L21.4574 150.641L21.875 150.88L21.2884 151.804L22.3821 151.765V152.242ZM20.0653 149.915H19.5185V146.097H20.0653V147.698H24.6094V148.314H20.0653V149.915ZM24.679 144.023C24.679 144.357 24.6177 144.646 24.495 144.888C24.3724 145.13 24.2042 145.316 23.9904 145.447C23.7766 145.578 23.5322 145.643 23.2571 145.643C23.045 145.643 22.8569 145.599 22.6928 145.509C22.5271 145.418 22.3738 145.293 22.233 145.134C22.0904 144.973 21.9479 144.788 21.8054 144.58L21.2585 143.844C21.1641 143.7 21.063 143.584 20.9553 143.498C20.8475 143.41 20.7067 143.366 20.5327 143.366C20.4034 143.366 20.2783 143.424 20.1573 143.538C20.0363 143.651 19.9759 143.799 19.9759 143.983C19.9759 144.112 20.009 144.227 20.0753 144.326C20.1399 144.424 20.2228 144.501 20.3239 144.557C20.4233 144.612 20.526 144.639 20.6321 144.639C20.7514 144.639 20.8724 144.607 20.995 144.542C21.116 144.476 21.2403 144.392 21.3679 144.291C21.4938 144.188 21.6231 144.082 21.7557 143.973L24.6094 141.636V142.342L22.2827 144.271C22.0672 144.45 21.8717 144.613 21.696 144.759C21.5204 144.904 21.3472 145.02 21.1765 145.107C21.0058 145.193 20.821 145.236 20.6222 145.236C20.3935 145.236 20.1929 145.185 20.0206 145.084C19.8466 144.981 19.7115 144.838 19.6154 144.654C19.5176 144.468 19.4688 144.251 19.4688 144.003C19.4688 143.748 19.5185 143.528 19.6179 143.344C19.7157 143.16 19.8458 143.018 20.0082 142.919C20.1689 142.82 20.3438 142.77 20.5327 142.77C20.7763 142.77 20.9876 142.83 21.1665 142.951C21.3455 143.072 21.5121 143.237 21.6662 143.446L22.4219 144.46C22.5909 144.689 22.755 144.844 22.9141 144.925C23.0732 145.006 23.1875 145.047 23.2571 145.047C23.4162 145.047 23.5645 145.005 23.7021 144.923C23.8396 144.84 23.9506 144.723 24.0352 144.572C24.1197 144.421 24.1619 144.245 24.1619 144.043C24.1619 143.85 24.1213 143.663 24.0401 143.481C23.9573 143.299 23.8379 143.134 23.6822 142.986C23.5264 142.837 23.3391 142.719 23.1204 142.633C22.9016 142.545 22.6555 142.501 22.3821 142.501V141.935C22.7202 141.935 22.9961 141.974 23.2099 142.051C23.4237 142.129 23.591 142.217 23.712 142.315C23.833 142.413 23.9233 142.491 23.983 142.551C24.0078 142.571 24.0327 142.589 24.0575 142.606C24.0824 142.622 24.1072 142.641 24.1321 142.66C24.3161 142.825 24.4536 143.032 24.5447 143.282C24.6342 143.532 24.679 143.779 24.679 144.023ZM21.1094 136.811V137.427C20.9321 137.464 20.7763 137.528 20.642 137.619C20.5078 137.708 20.3951 137.818 20.304 137.947C20.2112 138.074 20.1416 138.216 20.0952 138.372C20.0488 138.528 20.0256 138.69 20.0256 138.859C20.0256 139.167 20.1035 139.447 20.2592 139.697C20.415 139.945 20.6445 140.143 20.9478 140.291C21.2511 140.437 21.6231 140.51 22.0639 140.51C22.5047 140.51 22.8768 140.437 23.18 140.291C23.4833 140.143 23.7128 139.945 23.8686 139.697C24.0244 139.447 24.1023 139.167 24.1023 138.859C24.1023 138.69 24.0791 138.528 24.0327 138.372C23.9863 138.216 23.9175 138.074 23.8263 137.947C23.7335 137.818 23.62 137.708 23.4858 137.619C23.3499 137.528 23.1941 137.464 23.0185 137.427V136.811C23.2786 136.857 23.5115 136.942 23.717 137.064C23.9225 137.187 24.0973 137.339 24.2415 137.522C24.384 137.704 24.4925 137.909 24.5671 138.136C24.6417 138.361 24.679 138.602 24.679 138.859C24.679 139.293 24.5729 139.679 24.3608 140.017C24.1487 140.356 23.8471 140.622 23.456 140.815C23.0649 141.009 22.6009 141.106 22.0639 141.106C21.527 141.106 21.063 141.009 20.6719 140.815C20.2808 140.622 19.9792 140.356 19.767 140.017C19.5549 139.679 19.4489 139.293 19.4489 138.859C19.4489 138.602 19.4862 138.361 19.5607 138.136C19.6353 137.909 19.7447 137.704 19.8888 137.522C20.0314 137.339 20.2054 137.187 20.4109 137.064C20.6147 136.942 20.8475 136.857 21.1094 136.811ZM24.6989 132.802C24.6989 133.044 24.6533 133.263 24.5621 133.461C24.4693 133.658 24.3359 133.814 24.1619 133.93C23.9863 134.046 23.7741 134.104 23.5256 134.104C23.3068 134.104 23.1295 134.061 22.9936 133.975C22.8561 133.889 22.7483 133.774 22.6705 133.63C22.5926 133.485 22.5346 133.326 22.4964 133.152C22.4567 132.977 22.4252 132.8 22.402 132.623C22.3722 132.391 22.3498 132.203 22.3349 132.059C22.3183 131.913 22.291 131.807 22.2528 131.74C22.2147 131.672 22.1484 131.638 22.054 131.638H22.0341C21.7888 131.638 21.5982 131.706 21.4624 131.84C21.3265 131.972 21.2585 132.174 21.2585 132.444C21.2585 132.724 21.3198 132.944 21.4425 133.103C21.5651 133.262 21.696 133.374 21.8352 133.438L21.6364 133.995C21.4044 133.896 21.2237 133.763 21.0945 133.597C20.9635 133.43 20.8724 133.248 20.821 133.05C20.768 132.852 20.7415 132.656 20.7415 132.464C20.7415 132.341 20.7564 132.2 20.7862 132.041C20.8144 131.88 20.8732 131.725 20.9627 131.576C21.0522 131.426 21.1873 131.3 21.3679 131.201C21.5485 131.102 21.7905 131.052 22.0938 131.052H24.6094V131.638H24.0923V131.668C24.1752 131.708 24.2638 131.774 24.3583 131.867C24.4528 131.96 24.5331 132.083 24.5994 132.238C24.6657 132.392 24.6989 132.58 24.6989 132.802ZM24.1719 132.712C24.1719 132.48 24.1263 132.285 24.0352 132.126C23.944 131.965 23.8263 131.844 23.6822 131.763C23.538 131.68 23.3864 131.638 23.2273 131.638H22.6903C22.7202 131.663 22.7475 131.718 22.7724 131.803C22.7956 131.885 22.8163 131.982 22.8345 132.091C22.8511 132.199 22.866 132.304 22.8793 132.407C22.8909 132.508 22.9008 132.59 22.9091 132.653C22.929 132.805 22.9613 132.948 23.006 133.08C23.0491 133.211 23.1146 133.317 23.2024 133.398C23.2886 133.478 23.4062 133.518 23.5554 133.518C23.7592 133.518 23.9134 133.442 24.0178 133.292C24.1205 133.139 24.1719 132.946 24.1719 132.712ZM26.0412 129.981H20.7912V129.414H21.3977V129.345C21.3314 129.302 21.2469 129.242 21.1442 129.166C21.0398 129.088 20.947 128.977 20.8658 128.833C20.7829 128.687 20.7415 128.49 20.7415 128.241C20.7415 127.92 20.8219 127.636 20.9826 127.391C21.1433 127.146 21.3712 126.954 21.6662 126.817C21.9612 126.679 22.3092 126.61 22.7102 126.61C23.1146 126.61 23.4651 126.679 23.7617 126.817C24.0567 126.954 24.2854 127.145 24.4478 127.388C24.6085 127.632 24.6889 127.913 24.6889 128.231C24.6889 128.476 24.6483 128.673 24.5671 128.82C24.4843 128.968 24.3906 129.081 24.2862 129.161C24.1802 129.24 24.0923 129.302 24.0227 129.345V129.394H26.0412V129.981ZM22.7003 129.404C22.9886 129.404 23.243 129.362 23.4634 129.278C23.6822 129.193 23.8537 129.07 23.978 128.907C24.1006 128.745 24.1619 128.546 24.1619 128.311C24.1619 128.065 24.0973 127.861 23.968 127.697C23.8371 127.531 23.6615 127.407 23.4411 127.324C23.219 127.239 22.9721 127.197 22.7003 127.197C22.4318 127.197 22.1899 127.238 21.9744 127.321C21.7573 127.402 21.5858 127.526 21.4599 127.692C21.3323 127.856 21.2685 128.062 21.2685 128.311C21.2685 128.549 21.329 128.75 21.4499 128.912C21.5692 129.075 21.7366 129.197 21.9521 129.28C22.1658 129.363 22.4152 129.404 22.7003 129.404ZM26.0412 125.715H20.7912V125.149H21.3977V125.079C21.3314 125.036 21.2469 124.976 21.1442 124.9C21.0398 124.822 20.947 124.711 20.8658 124.567C20.7829 124.421 20.7415 124.224 20.7415 123.975C20.7415 123.654 20.8219 123.371 20.9826 123.125C21.1433 122.88 21.3712 122.689 21.6662 122.551C21.9612 122.413 22.3092 122.345 22.7102 122.345C23.1146 122.345 23.4651 122.413 23.7617 122.551C24.0567 122.689 24.2854 122.879 24.4478 123.123C24.6085 123.366 24.6889 123.647 24.6889 123.965C24.6889 124.211 24.6483 124.407 24.5671 124.555C24.4843 124.702 24.3906 124.816 24.2862 124.895C24.1802 124.975 24.0923 125.036 24.0227 125.079V125.129H26.0412V125.715ZM22.7003 125.139C22.9886 125.139 23.243 125.096 23.4634 125.012C23.6822 124.927 23.8537 124.804 23.978 124.642C24.1006 124.479 24.1619 124.28 24.1619 124.045C24.1619 123.8 24.0973 123.595 23.968 123.431C23.8371 123.265 23.6615 123.141 23.4411 123.058C23.219 122.974 22.9721 122.931 22.7003 122.931C22.4318 122.931 22.1899 122.973 21.9744 123.056C21.7573 123.137 21.5858 123.26 21.4599 123.426C21.3323 123.59 21.2685 123.796 21.2685 124.045C21.2685 124.284 21.329 124.484 21.4499 124.647C21.5692 124.809 21.7366 124.932 21.9521 125.014C22.1658 125.097 22.4152 125.139 22.7003 125.139ZM19.5185 120.863H24.6094V121.45H19.5185V120.863ZM26.0412 119.411C26.0412 119.51 26.0329 119.599 26.0163 119.677C26.0014 119.755 25.9865 119.809 25.9716 119.838L25.4545 119.689C25.491 119.547 25.5043 119.421 25.4943 119.311C25.4844 119.202 25.4355 119.105 25.3477 119.021C25.2615 118.934 25.1214 118.856 24.9276 118.784L24.6293 118.675L20.7912 120.087V119.451L23.8338 118.397V118.357L20.7912 117.303V116.667L25.1662 118.287C25.3634 118.36 25.5266 118.451 25.6559 118.558C25.7868 118.666 25.8838 118.791 25.9467 118.934C26.0097 119.074 26.0412 119.234 26.0412 119.411ZM24.6491 115.704C24.6491 115.827 24.6052 115.932 24.5174 116.02C24.4296 116.107 24.3243 116.151 24.2017 116.151C24.0791 116.151 23.9738 116.107 23.886 116.02C23.7982 115.932 23.7543 115.827 23.7543 115.704C23.7543 115.581 23.7982 115.476 23.886 115.388C23.9738 115.3 24.0791 115.256 24.2017 115.256C24.2829 115.256 24.3575 115.277 24.4254 115.319C24.4934 115.358 24.5481 115.412 24.5895 115.48C24.6293 115.546 24.6491 115.621 24.6491 115.704ZM19.5185 111.947L23.804 110.435V110.376L19.5185 108.864V108.218L24.6094 110.087V110.724L19.5185 112.593V111.947ZM24.6094 107.505H20.7912V106.918H24.6094V107.505ZM20.1548 107.206C20.1548 107.321 20.1159 107.419 20.038 107.502C19.9601 107.583 19.8665 107.624 19.7571 107.624C19.6477 107.624 19.5541 107.583 19.4762 107.502C19.3983 107.419 19.3594 107.321 19.3594 107.206C19.3594 107.092 19.3983 106.994 19.4762 106.913C19.5541 106.83 19.6477 106.789 19.7571 106.789C19.8665 106.789 19.9601 106.83 20.038 106.913C20.1159 106.994 20.1548 107.092 20.1548 107.206ZM21.6463 103.139L21.7955 103.666C21.7076 103.699 21.6223 103.748 21.5394 103.812C21.4549 103.875 21.3853 103.962 21.3306 104.071C21.2759 104.18 21.2486 104.32 21.2486 104.491C21.2486 104.725 21.3024 104.919 21.4102 105.075C21.5162 105.229 21.6513 105.306 21.8153 105.306C21.9612 105.306 22.0763 105.253 22.1609 105.147C22.2454 105.041 22.3158 104.876 22.3722 104.65L22.5114 104.083C22.5942 103.742 22.721 103.488 22.8917 103.32C23.0607 103.153 23.2786 103.069 23.5455 103.069C23.7642 103.069 23.9598 103.132 24.1321 103.258C24.3045 103.382 24.4403 103.556 24.5398 103.78C24.6392 104.004 24.6889 104.264 24.6889 104.561C24.6889 104.95 24.6044 105.272 24.4354 105.528C24.2663 105.783 24.0194 105.944 23.6946 106.012L23.5554 105.456C23.7609 105.403 23.915 105.302 24.0178 105.155C24.1205 105.006 24.1719 104.811 24.1719 104.571C24.1719 104.297 24.1139 104.08 23.9979 103.919C23.8802 103.757 23.7393 103.676 23.5753 103.676C23.4427 103.676 23.3317 103.722 23.2422 103.815C23.151 103.908 23.0831 104.05 23.0384 104.243L22.8892 104.879C22.8063 105.229 22.6779 105.485 22.5039 105.649C22.3282 105.812 22.1087 105.893 21.8452 105.893C21.6297 105.893 21.4392 105.833 21.2734 105.712C21.1077 105.589 20.9776 105.422 20.8832 105.212C20.7887 105 20.7415 104.76 20.7415 104.491C20.7415 104.113 20.8243 103.817 20.9901 103.601C21.1558 103.384 21.3745 103.23 21.6463 103.139ZM24.6094 102.186H20.7912V101.6H24.6094V102.186ZM20.1548 101.888C20.1548 102.002 20.1159 102.101 20.038 102.184C19.9601 102.265 19.8665 102.305 19.7571 102.305C19.6477 102.305 19.5541 102.265 19.4762 102.184C19.3983 102.101 19.3594 102.002 19.3594 101.888C19.3594 101.774 19.3983 101.676 19.4762 101.595C19.5541 101.512 19.6477 101.47 19.7571 101.47C19.8665 101.47 19.9601 101.512 20.038 101.595C20.1159 101.676 20.1548 101.774 20.1548 101.888ZM20.7912 98.8645H21.2884V100.843H20.7912V98.8645ZM19.8764 100.266V99.6798H23.5156C23.6813 99.6798 23.8056 99.6558 23.8885 99.6078C23.9697 99.558 24.0244 99.4951 24.0526 99.4188C24.0791 99.341 24.0923 99.2589 24.0923 99.1727C24.0923 99.1081 24.089 99.0551 24.0824 99.0137C24.0741 98.9722 24.0675 98.9391 24.0625 98.9142L24.5895 98.7949C24.6044 98.8347 24.6193 98.8902 24.6342 98.9615C24.6508 99.0327 24.6591 99.123 24.6591 99.2324C24.6591 99.3981 24.6235 99.5605 24.5522 99.7196C24.4809 99.8771 24.3724 100.008 24.2266 100.112C24.0807 100.215 23.8968 100.266 23.6747 100.266H19.8764ZM24.6094 95.9338H19.5185V95.3471H21.3977V95.2974C21.3314 95.2543 21.2469 95.1946 21.1442 95.1184C21.0398 95.0405 20.947 94.9295 20.8658 94.7853C20.7829 94.6395 20.7415 94.4423 20.7415 94.1937C20.7415 93.8722 20.8219 93.5888 20.9826 93.3436C21.1433 93.0983 21.3712 92.9069 21.6662 92.7693C21.9612 92.6318 22.3092 92.563 22.7102 92.563C23.1146 92.563 23.4651 92.6318 23.7617 92.7693C24.0567 92.9069 24.2854 93.0975 24.4478 93.3411C24.6085 93.5847 24.6889 93.8656 24.6889 94.1838C24.6889 94.429 24.6483 94.6254 24.5671 94.7729C24.4843 94.9204 24.3906 95.0339 24.2862 95.1134C24.1802 95.193 24.0923 95.2543 24.0227 95.2974V95.367H24.6094V95.9338ZM22.7003 95.3571C22.9886 95.3571 23.243 95.3148 23.4634 95.2303C23.6822 95.1458 23.8537 95.0223 23.978 94.8599C24.1006 94.6975 24.1619 94.4986 24.1619 94.2633C24.1619 94.018 24.0973 93.8134 23.968 93.6493C23.8371 93.4836 23.6615 93.3593 23.4411 93.2764C23.219 93.1919 22.9721 93.1497 22.7003 93.1497C22.4318 93.1497 22.1899 93.1911 21.9744 93.274C21.7573 93.3552 21.5858 93.4786 21.4599 93.6443C21.3323 93.8084 21.2685 94.0147 21.2685 94.2633C21.2685 94.5019 21.329 94.7025 21.4499 94.8649C21.5692 95.0273 21.7366 95.1499 21.9521 95.2328C22.1658 95.3156 22.4152 95.3571 22.7003 95.3571ZM24.6094 91.6656H20.7912V91.079H24.6094V91.6656ZM20.1548 91.3673C20.1548 91.4817 20.1159 91.5803 20.038 91.6632C19.9601 91.7444 19.8665 91.785 19.7571 91.785C19.6477 91.785 19.5541 91.7444 19.4762 91.6632C19.3983 91.5803 19.3594 91.4817 19.3594 91.3673C19.3594 91.253 19.3983 91.1552 19.4762 91.074C19.5541 90.9912 19.6477 90.9497 19.7571 90.9497C19.8665 90.9497 19.9601 90.9912 20.038 91.074C20.1159 91.1552 20.1548 91.253 20.1548 91.3673ZM20.7912 88.344H21.2884V90.3227H20.7912V88.344ZM19.8764 89.746V89.1593H23.5156C23.6813 89.1593 23.8056 89.1353 23.8885 89.0873C23.9697 89.0375 24.0244 88.9746 24.0526 88.8983C24.0791 88.8204 24.0923 88.7384 24.0923 88.6522C24.0923 88.5876 24.089 88.5346 24.0824 88.4931C24.0741 88.4517 24.0675 88.4186 24.0625 88.3937L24.5895 88.2744C24.6044 88.3142 24.6193 88.3697 24.6342 88.4409C24.6508 88.5122 24.6591 88.6025 24.6591 88.7119C24.6591 88.8776 24.6235 89.04 24.5522 89.1991C24.4809 89.3565 24.3724 89.4875 24.2266 89.5919C24.0807 89.6946 23.8968 89.746 23.6747 89.746H19.8764ZM24.6491 87.034C24.6491 87.1566 24.6052 87.2619 24.5174 87.3497C24.4296 87.4375 24.3243 87.4814 24.2017 87.4814C24.0791 87.4814 23.9738 87.4375 23.886 87.3497C23.7982 87.2619 23.7543 87.1566 23.7543 87.034C23.7543 86.9114 23.7982 86.8061 23.886 86.7183C23.9738 86.6305 24.0791 86.5865 24.2017 86.5865C24.2829 86.5865 24.3575 86.6073 24.4254 86.6487C24.4934 86.6885 24.5481 86.7423 24.5895 86.8103C24.6293 86.8766 24.6491 86.9511 24.6491 87.034ZM19.5185 84.9472H24.6094V85.5338H19.5185V84.9472ZM26.0412 83.4948C26.0412 83.5943 26.0329 83.6829 26.0163 83.7608C26.0014 83.8387 25.9865 83.8926 25.9716 83.9224L25.4545 83.7732C25.491 83.6307 25.5043 83.5048 25.4943 83.3954C25.4844 83.286 25.4355 83.1891 25.3477 83.1046C25.2615 83.0184 25.1214 82.9397 24.9276 82.8684L24.6293 82.759L20.7912 84.171V83.5346L23.8338 82.4806V82.4409L20.7912 81.3869V80.7505L25.1662 82.3713C25.3634 82.4442 25.5266 82.5345 25.6559 82.6422C25.7868 82.7499 25.8838 82.875 25.9467 83.0176C26.0097 83.1584 26.0412 83.3175 26.0412 83.4948ZM19.2798 78.573L25.375 80.2136V80.7505L19.2798 79.1099V78.573ZM20.0653 78.0764H19.5185V74.2582H20.0653V75.8591H24.6094V76.4756H20.0653V78.0764ZM21.1094 70.0386C20.942 70.0933 20.792 70.1654 20.6594 70.2549C20.5252 70.3427 20.4109 70.4479 20.3164 70.5706C20.2219 70.6915 20.1499 70.8291 20.1001 70.9832C20.0504 71.1373 20.0256 71.3064 20.0256 71.4903C20.0256 71.7919 20.1035 72.0662 20.2592 72.3131C20.415 72.56 20.6445 72.7564 20.9478 72.9022C21.2511 73.0481 21.6231 73.121 22.0639 73.121C22.5047 73.121 22.8768 73.0472 23.18 72.8998C23.4833 72.7523 23.7128 72.5526 23.8686 72.3007C24.0244 72.0488 24.1023 71.7654 24.1023 71.4505C24.1023 71.1589 24.0401 70.902 23.9158 70.6799C23.7899 70.4562 23.6126 70.2822 23.3839 70.1579C23.1535 70.032 22.8826 69.969 22.571 69.969L22.6108 69.7801V71.3113H22.0639V69.3724H22.6108C23.0301 69.3724 23.3946 69.4619 23.7045 69.6409C24.0144 69.8182 24.2547 70.0635 24.4254 70.3767C24.5945 70.6882 24.679 71.0462 24.679 71.4505C24.679 71.9013 24.5729 72.2974 24.3608 72.6387C24.1487 72.9785 23.8471 73.2436 23.456 73.4342C23.0649 73.6231 22.6009 73.7176 22.0639 73.7176C21.6612 73.7176 21.2991 73.6637 20.9776 73.556C20.6545 73.4466 20.3794 73.2925 20.1523 73.0936C19.9253 72.8948 19.7513 72.6595 19.6303 72.3877C19.5094 72.1159 19.4489 71.8168 19.4489 71.4903C19.4489 71.2218 19.4895 70.9716 19.5707 70.7396C19.6502 70.5059 19.7637 70.298 19.9112 70.1157C20.0571 69.9317 20.2319 69.7784 20.4357 69.6558C20.6379 69.5332 20.8625 69.4486 21.1094 69.4022V70.0386ZM24.6094 68.3166H19.5185V66.5964C19.5185 66.197 19.5906 65.8705 19.7347 65.617C19.8772 65.3618 20.0703 65.1729 20.3139 65.0502C20.5575 64.9276 20.8293 64.8663 21.1293 64.8663C21.4292 64.8663 21.7018 64.9276 21.9471 65.0502C22.1924 65.1712 22.3879 65.3585 22.5337 65.612C22.6779 65.8656 22.75 66.1904 22.75 66.5865V67.8194H22.2031V66.6063C22.2031 66.3329 22.1559 66.1133 22.0614 65.9476C21.967 65.7819 21.8394 65.6617 21.6786 65.5872C21.5162 65.5109 21.3331 65.4728 21.1293 65.4728C20.9254 65.4728 20.7431 65.5109 20.5824 65.5872C20.4216 65.6617 20.2957 65.7827 20.2045 65.9501C20.1117 66.1175 20.0653 66.3395 20.0653 66.6163V67.7001H24.6094V68.3166ZM21.7905 62.0865H22.3374V64.3138H21.7905V62.0865ZM20.0653 61.7727H19.5185V57.9545H20.0653V59.5554H24.6094V60.1719H20.0653V61.7727ZM21.1094 53.1184V53.7349C20.9321 53.7713 20.7763 53.8352 20.642 53.9263C20.5078 54.0158 20.3951 54.1252 20.304 54.2544C20.2112 54.382 20.1416 54.5237 20.0952 54.6795C20.0488 54.8353 20.0256 54.9977 20.0256 55.1667C20.0256 55.4749 20.1035 55.7542 20.2592 56.0044C20.415 56.253 20.6445 56.451 20.9478 56.5985C21.2511 56.7444 21.6231 56.8173 22.0639 56.8173C22.5047 56.8173 22.8768 56.7444 23.18 56.5985C23.4833 56.451 23.7128 56.253 23.8686 56.0044C24.0244 55.7542 24.1023 55.4749 24.1023 55.1667C24.1023 54.9977 24.0791 54.8353 24.0327 54.6795C23.9863 54.5237 23.9175 54.382 23.8263 54.2544C23.7335 54.1252 23.62 54.0158 23.4858 53.9263C23.3499 53.8352 23.1941 53.7713 23.0185 53.7349V53.1184C23.2786 53.1648 23.5115 53.2493 23.717 53.372C23.9225 53.4946 24.0973 53.6471 24.2415 53.8294C24.384 54.0116 24.4925 54.2163 24.5671 54.4433C24.6417 54.6687 24.679 54.9098 24.679 55.1667C24.679 55.6009 24.5729 55.987 24.3608 56.3251C24.1487 56.6632 23.8471 56.9291 23.456 57.123C23.0649 57.3169 22.6009 57.4139 22.0639 57.4139C21.527 57.4139 21.063 57.3169 20.6719 57.123C20.2808 56.9291 19.9792 56.6632 19.767 56.3251C19.5549 55.987 19.4489 55.6009 19.4489 55.1667C19.4489 54.9098 19.4862 54.6687 19.5607 54.4433C19.6353 54.2163 19.7447 54.0116 19.8888 53.8294C20.0314 53.6471 20.2054 53.4946 20.4109 53.372C20.6147 53.2493 20.8475 53.1648 21.1094 53.1184Z" fill="white"/>
</svg>
