<svg width="154" height="154" viewBox="0 0 154 154" fill="none" xmlns="http://www.w3.org/2000/svg">
<g filter="url(#filter0_d_967_1114)">
<ellipse cx="77" cy="74.402" rx="61.25" ry="61.25" transform="rotate(90 77 74.402)" fill="url(#paint0_radial_967_1114)" shape-rendering="crispEdges"/>
<path d="M77 134.057C44.0535 134.057 17.3451 107.349 17.3451 74.402C17.3451 41.4555 44.0535 14.7471 77 14.7471C109.947 14.7471 136.655 41.4555 136.655 74.402C136.655 107.349 109.947 134.057 77 134.057Z" stroke="white" stroke-width="3.1901" shape-rendering="crispEdges"/>
</g>
<rect x="59.8633" y="61.2309" width="8.66667" height="26" rx="4.33333" fill="#1D55FD"/>
<rect x="46.4648" y="67.9301" width="8.66667" height="13" rx="4.33333" fill="#1D55FD"/>
<rect x="73.2617" y="52.2983" width="8.8" height="44" rx="4.4" fill="#1D55FD"/>
<rect x="86.6602" y="61.2309" width="8.66667" height="26" rx="4.33333" fill="#1D55FD"/>
<rect x="100.059" y="67.9301" width="8.66667" height="13" rx="4.33333" fill="#1D55FD"/>
<defs>
<filter id="filter0_d_967_1114" x="0.4375" y="0.391622" width="153.125" height="153.125" filterUnits="userSpaceOnUse" color-interpolation-filters="sRGB">
<feFlood flood-opacity="0" result="BackgroundImageFix"/>
<feColorMatrix in="SourceAlpha" type="matrix" values="0 0 0 0 0 0 0 0 0 0 0 0 0 0 0 0 0 0 127 0" result="hardAlpha"/>
<feOffset dy="2.55208"/>
<feGaussianBlur stdDeviation="7.65625"/>
<feComposite in2="hardAlpha" operator="out"/>
<feColorMatrix type="matrix" values="0 0 0 0 0 0 0 0 0 0 0 0 0 0 0 0 0 0 0.15 0"/>
<feBlend mode="normal" in2="BackgroundImageFix" result="effect1_dropShadow_967_1114"/>
<feBlend mode="normal" in="SourceGraphic" in2="effect1_dropShadow_967_1114" result="shape"/>
</filter>
<radialGradient id="paint0_radial_967_1114" cx="0" cy="0" r="1" gradientUnits="userSpaceOnUse" gradientTransform="translate(71.1597 78.6228) rotate(45.9535) scale(72.0286)">
<stop offset="0.396" stop-color="white"/>
<stop offset="1" stop-color="#EFEFEF" stop-opacity="0.7"/>
</radialGradient>
</defs>
</svg>
