<svg width="322" height="53" viewBox="0 0 322 53" fill="none" xmlns="http://www.w3.org/2000/svg">
<g filter="url(#filter0_d_697_15701)">
<g filter="url(#filter1_d_697_15701)">
<path d="M313.157 26.4737C313.157 30.354 312.371 33.3778 310.798 35.5451C309.26 37.6775 307.057 39.1632 304.191 40.0022C301.324 40.8412 297.951 41.2607 294.071 41.2607H285.628V11.7392H294.071C297.951 11.7392 301.324 12.2985 304.191 13.4171C307.057 14.5008 309.26 16.1263 310.798 18.2937C312.371 20.461 313.157 23.1877 313.157 26.4737ZM292.865 35.283H296.325C298.213 35.283 299.821 35.0557 301.15 34.6013C302.513 34.1119 303.544 33.2379 304.243 31.9795C304.977 30.6861 305.344 28.8333 305.344 26.4213C305.344 23.6247 304.54 21.5272 302.932 20.1289C301.359 18.7306 299.157 18.0315 296.325 18.0315H292.865V35.283Z" fill="url(#paint0_linear_697_15701)"/>
</g>
<g filter="url(#filter2_d_697_15701)">
<path d="M264.841 35.4403H280.572V41.2607H257.657V11.7392H279.995V17.9791H264.841V23.38H276.114V29.2528H264.841V35.4403Z" fill="url(#paint1_linear_697_15701)"/>
</g>
<g filter="url(#filter3_d_697_15701)">
<path d="M244.502 11.7392H252.157V41.2607H238.104L232.599 14.9378H232.494V41.2607H224.891V11.7392H237.895L244.397 38.0621H244.502V11.7392Z" fill="url(#paint2_linear_697_15701)"/>
</g>
<g filter="url(#filter4_d_697_15701)">
<path d="M203.877 41.785C200.976 41.785 198.424 41.2256 196.222 40.107C194.019 38.9534 192.324 37.258 191.135 35.0207C189.982 32.7834 189.44 30.0043 189.51 26.6834C189.615 23.3275 190.331 20.4959 191.66 18.1887C193.023 15.8816 194.858 14.1512 197.166 12.9976C199.473 11.809 202.077 11.2148 204.979 11.2148C209.313 11.2148 212.564 12.0887 214.732 13.8366C216.934 15.5844 218.42 18.1363 219.189 21.4922L212.11 22.5934C211.83 21.3699 211.288 20.4435 210.484 19.8143C209.715 19.1501 208.824 18.6956 207.81 18.4509C206.831 18.2062 205.887 18.0839 204.979 18.0839C202.042 18.0839 199.927 18.8529 198.634 20.3911C197.34 21.8942 196.711 23.7994 196.746 26.1066C196.746 28.9381 197.533 31.0705 199.106 32.5038C200.714 33.937 203.003 34.6537 205.975 34.6537C206.849 34.6537 207.758 34.5663 208.702 34.3915C209.645 34.1817 210.519 33.8322 211.323 33.3428C212.127 32.8534 212.739 32.1367 213.159 31.1929H208.387V25.9493H219.765V41.2606H214.889L213.316 37.4852H213.211C212.547 38.6738 211.411 39.6875 209.803 40.5265C208.23 41.3655 206.254 41.785 203.877 41.785Z" fill="url(#paint3_linear_697_15701)"/>
</g>
<g filter="url(#filter5_d_697_15701)">
<path d="M185.103 35.0208V41.2607H170.211V35.0208H174.039V17.9791H170.211V11.7392H185.103V17.9791H181.328V35.0208H185.103Z" fill="url(#paint4_linear_697_15701)"/>
</g>
<g filter="url(#filter6_d_697_15701)">
<path d="M151.073 41.785C149.395 41.785 147.752 41.5927 146.144 41.2082C144.536 40.8236 143.085 40.2119 141.792 39.3729C140.498 38.499 139.45 37.3803 138.646 36.017C137.876 34.6537 137.492 33.0107 137.492 31.088H144.833C144.833 31.2978 144.903 31.6299 145.043 32.0843C145.218 32.5038 145.532 32.9582 145.987 33.4476C146.476 33.937 147.158 34.3565 148.032 34.7061C148.94 35.0207 150.147 35.178 151.65 35.178C152.314 35.178 152.996 35.1256 153.695 35.0207C154.394 34.9158 154.988 34.7061 155.478 34.3915C155.967 34.0419 156.212 33.5176 156.212 32.8184C156.212 32.0843 155.862 31.5075 155.163 31.088C154.499 30.6685 153.607 30.3364 152.489 30.0917C151.405 29.8121 150.199 29.5324 148.871 29.2528C147.577 28.9731 146.284 28.6235 144.99 28.204C143.697 27.7845 142.508 27.2252 141.425 26.5261C140.376 25.792 139.554 24.8656 138.96 23.747C138.401 22.5934 138.174 21.1601 138.278 19.4472C138.453 16.8604 139.677 14.8503 141.949 13.4171C144.221 11.9489 147.385 11.2148 151.44 11.2148C153.607 11.2148 155.635 11.5993 157.523 12.3683C159.445 13.1374 161.001 14.3085 162.189 15.8816C163.413 17.4546 164.025 19.4472 164.025 21.8593H156.946C156.946 20.7756 156.579 19.9716 155.845 19.4472C155.145 18.8879 154.289 18.5208 153.275 18.3461C152.296 18.1713 151.405 18.0839 150.601 18.0839C149.308 18.0839 148.224 18.2412 147.35 18.5558C146.511 18.8704 146.091 19.4822 146.091 20.3911C146.091 21.1951 146.441 21.8243 147.14 22.2788C147.839 22.6982 148.748 23.0478 149.867 23.3275C150.985 23.5722 152.209 23.8344 153.537 24.114C154.901 24.3587 156.247 24.6733 157.575 25.0579C158.903 25.4424 160.092 25.9842 161.141 26.6834C162.224 27.3476 163.063 28.239 163.658 29.3576C164.287 30.4763 164.531 31.9095 164.392 33.6574C164.217 36.2093 162.923 38.2018 160.511 39.6351C158.134 41.0683 154.988 41.785 151.073 41.785Z" fill="url(#paint5_linear_697_15701)"/>
</g>
<g filter="url(#filter7_d_697_15701)">
<path d="M124.23 20.2862L118.253 20.5484L122.972 24.2714L117.728 28.0992L115.683 22.4361L113.586 28.0992L108.342 24.2714L113.114 20.5484L107.084 20.2862L109.076 14.2037L114.058 17.5596L112.485 11.7392H118.934L117.256 17.5596L122.238 14.2037L124.23 20.2862Z" fill="url(#paint6_linear_697_15701)"/>
</g>
<g filter="url(#filter8_d_697_15701)">
<path d="M94.9771 11.7392H102.633V41.2607H88.5799L83.0741 14.9378H82.9692V41.2607H75.366V11.7392H88.3701L94.8722 38.0621H94.9771V11.7392Z" fill="url(#paint7_linear_697_15701)"/>
</g>
<g filter="url(#filter9_d_697_15701)">
<path d="M68.9143 35.0208V41.2607H54.0225V35.0208H57.8503V17.9791H54.0225V11.7392H68.9143V17.9791H65.1389V35.0208H68.9143Z" fill="url(#paint8_linear_697_15701)"/>
</g>
<g filter="url(#filter10_d_697_15701)">
<path d="M41.9225 11.7392H49.6831L44.2297 41.2607H32.5365L29.7574 20.9679L27.2929 41.2607H15.5472L9.72681 11.7392H17.4873L21.3676 38.2718L25.8247 11.8965L25.7722 11.7392H33.6376L38.4093 38.2718L41.9225 11.7392Z" fill="url(#paint9_linear_697_15701)"/>
</g>
<path fill-rule="evenodd" clip-rule="evenodd" d="M281.543 45.3459V7.65372H294.071C298.323 7.65372 302.215 8.2642 305.656 9.60335C309.146 10.9268 312.045 12.9996 314.117 15.9118C316.293 18.9187 317.243 22.5324 317.243 26.4736C317.243 30.8445 316.365 34.8296 314.104 37.9447C311.963 40.9074 308.948 42.8663 305.338 43.9229C302.007 44.898 298.23 45.3459 294.071 45.3459H281.543ZM310.798 18.2936C309.259 16.1262 307.057 14.5007 304.191 13.417C301.324 12.2984 297.951 11.7391 294.071 11.7391H285.628V41.2606H294.071C297.951 41.2606 301.324 40.8411 304.191 40.0021C307.057 39.1631 309.259 37.6774 310.798 35.545C312.371 33.3777 313.157 30.3539 313.157 26.4736C313.157 23.1876 312.371 20.4609 310.798 18.2936ZM300.681 29.979L300.69 29.9628C300.922 29.5541 301.259 28.5201 301.259 26.4212C301.259 24.4145 300.708 23.609 300.251 23.2116L300.235 23.197L300.218 23.1822C299.678 22.7026 298.724 22.2236 296.95 22.1323V31.187C298.192 31.1439 299.12 30.9729 299.795 30.7466C300.217 30.5901 300.461 30.3749 300.672 29.9954L300.681 29.979ZM292.864 35.2828H296.325C296.537 35.2828 296.745 35.28 296.95 35.2743C298.57 35.229 299.97 35.0047 301.149 34.6012C302.513 34.1118 303.544 33.2378 304.243 31.9794C304.977 30.6859 305.344 28.8332 305.344 26.4212C305.344 23.6246 304.54 21.5271 302.932 20.1288C301.477 18.8351 299.483 18.1398 296.95 18.0431C296.745 18.0353 296.537 18.0314 296.325 18.0314H292.864V35.2828Z" fill="white"/>
<path fill-rule="evenodd" clip-rule="evenodd" d="M284.657 31.3548V45.3459H253.572V7.65372H284.08V22.0643H280.2V31.3548H284.657ZM264.841 35.4402V29.2527H276.115V23.3799H264.841V17.9789H279.995V11.7391H257.657V41.2606H280.572V35.4402H264.841Z" fill="white"/>
<path fill-rule="evenodd" clip-rule="evenodd" d="M256.243 7.65372V45.3459H220.805V7.65372H256.243ZM244.502 38.062H244.397L237.895 11.7391H224.891V41.2606H232.494V14.9377H232.599L238.105 41.2606H252.158V11.7391H244.502V38.062Z" fill="white"/>
<path fill-rule="evenodd" clip-rule="evenodd" d="M194.349 43.738L194.326 43.7261C191.38 42.1828 189.094 39.887 187.527 36.9375L187.516 36.9154L187.504 36.8931C185.955 33.8885 185.346 30.3889 185.425 26.5975L185.426 26.5767L185.426 26.5559C185.547 22.6999 186.379 19.1729 188.119 16.1504L188.131 16.1304L188.142 16.1105C189.885 13.1614 192.288 10.8742 195.316 9.35473C198.262 7.84212 201.512 7.12955 204.978 7.12955C209.749 7.12955 214.084 8.07275 217.283 10.6465C220.357 13.0909 222.244 16.5343 223.171 20.5798L223.465 21.8641H223.851V23.5471L224.15 24.855L223.851 24.9016V45.3461H212.165L211.671 44.16C209.355 45.3811 206.688 45.8704 203.877 45.8704C200.445 45.8704 197.239 45.2062 194.371 43.7495L194.349 43.738ZM219.765 41.2607V25.9494H208.387V31.193H213.158C212.739 32.1369 212.127 32.8535 211.323 33.3429C211.292 33.3622 211.26 33.3812 211.228 33.4C211.035 33.5143 210.837 33.6207 210.636 33.719C210.027 34.0161 209.383 34.2403 208.701 34.3916C208.596 34.4111 208.491 34.4295 208.387 34.4469C207.555 34.5848 206.751 34.6538 205.975 34.6538C205.391 34.6538 204.833 34.6261 204.301 34.5707C202.129 34.3444 200.398 33.6554 199.106 32.5039C197.532 31.0707 196.746 28.9383 196.746 26.1067C196.711 23.7995 197.34 21.8944 198.634 20.3912C199.927 18.8531 202.042 18.084 204.978 18.084C205.887 18.084 206.831 18.2064 207.81 18.4511C208.824 18.6958 209.715 19.1502 210.484 19.8144C211.12 20.3119 211.592 20.9951 211.9 21.8641C211.981 22.0942 212.051 22.3373 212.11 22.5935L219.189 21.4923C218.855 20.0356 218.386 18.7304 217.782 17.5767C216.995 16.0725 215.978 14.8258 214.732 13.8367C212.564 12.0888 209.313 11.2149 204.978 11.2149C202.077 11.2149 199.473 11.8092 197.165 12.9977C194.858 14.1513 193.023 15.8817 191.66 18.1889C190.331 20.4961 189.615 23.3276 189.51 26.6835C189.44 30.0045 189.982 32.7836 191.135 35.0208C192.324 37.2581 194.019 38.9536 196.222 40.1071C198.424 41.2258 200.976 41.7851 203.877 41.7851C206.254 41.7851 208.229 41.3656 209.803 40.5266C209.901 40.4753 209.997 40.4234 210.092 40.3708C211.523 39.5769 212.552 38.6341 213.178 37.5425C213.189 37.5235 213.2 37.5045 213.211 37.4853H213.316L214.889 41.2607H219.765ZM204.301 22.1883C202.534 22.2919 201.95 22.7945 201.76 23.0205L201.745 23.0383L201.73 23.0558C201.194 23.6796 200.808 24.5633 200.831 26.0448L200.831 26.0758V26.1067C200.831 28.1637 201.377 29.0379 201.841 29.4693C202.292 29.8644 203.038 30.2644 204.301 30.4545V22.1883Z" fill="white"/>
<path fill-rule="evenodd" clip-rule="evenodd" d="M189.188 30.9353V45.3459H166.126V30.9353H169.954V22.0643H166.126V7.65372H189.188V22.0643H185.413V30.9353H189.188ZM174.039 35.0207H170.211V41.2606H185.103V35.0207H181.328V17.9789H185.103V11.7391H170.211V17.9789H174.039V35.0207Z" fill="white"/>
<path fill-rule="evenodd" clip-rule="evenodd" d="M139.536 42.7796L139.505 42.7581C137.701 41.5396 136.234 39.9709 135.127 38.0924L135.107 38.0586L135.087 38.0243C133.902 35.9233 133.407 33.5549 133.407 31.0881V27.0028H136.179C135.877 26.5783 135.601 26.1317 135.352 25.6638L135.317 25.5972L135.284 25.5294C134.332 23.566 134.067 21.3827 134.201 19.1977L134.202 19.1848L134.203 19.1719C134.469 15.2358 136.433 12.0734 139.751 9.97351C142.934 7.92439 146.975 7.12955 151.44 7.12955C154.098 7.12955 156.648 7.60262 159.052 8.58009C161.615 9.60782 163.777 11.214 165.432 13.3968C167.311 15.8237 168.11 18.7457 168.11 21.8594V25.9447H166.313C166.657 26.4003 166.968 26.8857 167.243 27.3996C168.368 29.4245 168.642 31.715 168.466 33.9604C168.183 37.9804 166.031 41.1033 162.61 43.1403C159.389 45.0791 155.437 45.8704 151.073 45.8704C149.08 45.8704 147.118 45.6417 145.194 45.1816C143.166 44.6968 141.28 43.9103 139.569 42.8005L139.536 42.7796ZM160.511 39.6352C162.924 38.202 164.217 36.2094 164.392 33.6575C164.532 31.9096 164.287 30.4764 163.658 29.3578C163.063 28.2391 162.224 27.3477 161.141 26.6835C160.736 26.4139 160.311 26.1676 159.865 25.9447C159.154 25.5898 158.391 25.2942 157.575 25.058C157.366 24.9974 157.156 24.9386 156.946 24.8814C155.822 24.5761 154.686 24.3203 153.538 24.1142C153.309 24.066 153.083 24.0183 152.861 23.9712C151.791 23.7447 150.793 23.5302 149.867 23.3276C148.748 23.048 147.839 22.6984 147.14 22.2789C146.441 21.8244 146.092 21.1952 146.092 20.3912C146.092 19.4823 146.511 18.8705 147.35 18.5559C148.224 18.2413 149.308 18.084 150.601 18.084C151.405 18.084 152.297 18.1714 153.275 18.3462C154.289 18.521 155.146 18.888 155.845 19.4473C156.262 19.7454 156.561 20.1339 156.741 20.6127C156.877 20.9762 156.946 21.3918 156.946 21.8594H164.025C164.025 20.3287 163.778 18.9669 163.286 17.7741C163.002 17.0873 162.637 16.4565 162.189 15.8817C161.001 14.3086 159.445 13.1375 157.523 12.3685C155.635 11.5994 153.607 11.2149 151.44 11.2149C147.385 11.2149 144.221 11.949 141.949 13.4172C139.677 14.8505 138.453 16.8605 138.279 19.4473C138.174 21.1603 138.401 22.5935 138.96 23.7471C139.555 24.8657 140.376 25.7921 141.425 26.5262C141.683 26.693 141.948 26.8519 142.218 27.0028C143.036 27.4586 143.907 27.8418 144.833 28.1523C144.885 28.1698 144.938 28.1871 144.99 28.2042C146.284 28.6237 147.577 28.9732 148.871 29.2529C148.887 29.2562 148.903 29.2596 148.918 29.263C150.228 29.5393 151.418 29.8156 152.489 30.0919C153.607 30.3366 154.499 30.6687 155.163 31.0881C155.862 31.5076 156.212 32.0844 156.212 32.8185C156.212 33.5177 155.967 34.042 155.478 34.3916C154.988 34.7062 154.394 34.916 153.695 35.0208C152.996 35.1257 152.314 35.1782 151.65 35.1782C150.147 35.1782 148.941 35.0208 148.032 34.7062C147.158 34.3567 146.476 33.9372 145.987 33.4478C145.701 33.1404 145.471 32.8468 145.296 32.567C145.192 32.4013 145.108 32.2404 145.043 32.0844C144.903 31.63 144.833 31.2979 144.833 31.0881H137.492C137.492 32.6297 137.739 33.9915 138.234 35.1735C138.356 35.4657 138.493 35.7469 138.646 36.0171C139.45 37.3805 140.498 38.4991 141.792 39.373C143.085 40.212 144.536 40.8238 146.144 41.2083C147.752 41.5928 149.395 41.7851 151.073 41.7851C154.988 41.7851 158.134 41.0685 160.511 39.6352Z" fill="white"/>
<path fill-rule="evenodd" clip-rule="evenodd" d="M129.412 24.1481L129.789 24.1316L124.438 7.79564L124.295 7.89156L124.364 7.65372H107.149L107.256 8.05135L106.876 7.79564L102.633 20.75V25.1615L115.54 34.5841L115.635 34.3298L115.736 34.6113L129.728 24.3975L129.412 24.1481ZM122.972 24.2713L118.253 20.5483L124.23 20.2861L122.238 14.2036L117.256 17.5595L118.934 11.7391H112.485L114.058 17.5595L109.076 14.2036L107.084 20.2861L113.114 20.5483L108.342 24.2713L113.586 28.0991L115.683 22.436L117.728 28.0991L122.972 24.2713Z" fill="white"/>
<path fill-rule="evenodd" clip-rule="evenodd" d="M106.718 7.65372V45.3459H71.2808V7.65372H106.718ZM94.9772 38.062H94.8723L88.3702 11.7391H75.3661V41.2606H82.9693V14.9377H83.0742L88.58 41.2606H102.633V11.7391H94.9772V38.062Z" fill="white"/>
<path fill-rule="evenodd" clip-rule="evenodd" d="M72.9995 30.9353V45.3459H49.937V30.9353H53.7648V22.0643H49.937V7.65372H72.9995V22.0643H69.2241V30.9353H72.9995ZM57.8502 35.0207H54.0224V41.2606H68.9142V35.0207H65.1388V17.9789H68.9142V11.7391H54.0224V17.9789H57.8502V35.0207Z" fill="white"/>
<path fill-rule="evenodd" clip-rule="evenodd" d="M38.3424 7.65372H54.5922L47.6295 45.3459H12.1886L4.75732 7.65372H37.0538L37.796 11.7808L38.3424 7.65372ZM38.4093 38.2717L33.6376 11.7391H25.7722L25.8246 11.8964L21.3676 38.2717L17.4873 11.7391H9.72676L15.5472 41.2606H27.2928L29.7573 20.9678L32.5364 41.2606H44.2297L49.683 11.7391H41.9225L38.4093 38.2717Z" fill="white"/>
</g>
<defs>
<filter id="filter0_d_697_15701" x="4.75732" y="7.12955" width="316.485" height="44.7409" filterUnits="userSpaceOnUse" color-interpolation-filters="sRGB">
<feFlood flood-opacity="0" result="BackgroundImageFix"/>
<feColorMatrix in="SourceAlpha" type="matrix" values="0 0 0 0 0 0 0 0 0 0 0 0 0 0 0 0 0 0 127 0" result="hardAlpha"/>
<feOffset dx="4" dy="6"/>
<feComposite in2="hardAlpha" operator="out"/>
<feColorMatrix type="matrix" values="0 0 0 0 0 0 0 0 0 0 0 0 0 0 0 0 0 0 1 0"/>
<feBlend mode="normal" in2="BackgroundImageFix" result="effect1_dropShadow_697_15701"/>
<feBlend mode="normal" in="SourceGraphic" in2="effect1_dropShadow_697_15701" result="shape"/>
</filter>
<filter id="filter1_d_697_15701" x="285.628" y="11.7392" width="31.4377" height="35.3848" filterUnits="userSpaceOnUse" color-interpolation-filters="sRGB">
<feFlood flood-opacity="0" result="BackgroundImageFix"/>
<feColorMatrix in="SourceAlpha" type="matrix" values="0 0 0 0 0 0 0 0 0 0 0 0 0 0 0 0 0 0 127 0" result="hardAlpha"/>
<feOffset dx="3.90887" dy="5.86331"/>
<feComposite in2="hardAlpha" operator="out"/>
<feColorMatrix type="matrix" values="0 0 0 0 0 0 0 0 0 0 0 0 0 0 0 0 0 0 1 0"/>
<feBlend mode="normal" in2="BackgroundImageFix" result="effect1_dropShadow_697_15701"/>
<feBlend mode="normal" in="SourceGraphic" in2="effect1_dropShadow_697_15701" result="shape"/>
</filter>
<filter id="filter2_d_697_15701" x="257.657" y="11.7392" width="26.8234" height="35.3848" filterUnits="userSpaceOnUse" color-interpolation-filters="sRGB">
<feFlood flood-opacity="0" result="BackgroundImageFix"/>
<feColorMatrix in="SourceAlpha" type="matrix" values="0 0 0 0 0 0 0 0 0 0 0 0 0 0 0 0 0 0 127 0" result="hardAlpha"/>
<feOffset dx="3.90887" dy="5.86331"/>
<feComposite in2="hardAlpha" operator="out"/>
<feColorMatrix type="matrix" values="0 0 0 0 0 0 0 0 0 0 0 0 0 0 0 0 0 0 1 0"/>
<feBlend mode="normal" in2="BackgroundImageFix" result="effect1_dropShadow_697_15701"/>
<feBlend mode="normal" in="SourceGraphic" in2="effect1_dropShadow_697_15701" result="shape"/>
</filter>
<filter id="filter3_d_697_15701" x="224.891" y="11.7392" width="31.1757" height="35.3848" filterUnits="userSpaceOnUse" color-interpolation-filters="sRGB">
<feFlood flood-opacity="0" result="BackgroundImageFix"/>
<feColorMatrix in="SourceAlpha" type="matrix" values="0 0 0 0 0 0 0 0 0 0 0 0 0 0 0 0 0 0 127 0" result="hardAlpha"/>
<feOffset dx="3.90887" dy="5.86331"/>
<feComposite in2="hardAlpha" operator="out"/>
<feColorMatrix type="matrix" values="0 0 0 0 0 0 0 0 0 0 0 0 0 0 0 0 0 0 1 0"/>
<feBlend mode="normal" in2="BackgroundImageFix" result="effect1_dropShadow_697_15701"/>
<feBlend mode="normal" in="SourceGraphic" in2="effect1_dropShadow_697_15701" result="shape"/>
</filter>
<filter id="filter4_d_697_15701" x="189.504" y="11.2148" width="34.1703" height="36.4335" filterUnits="userSpaceOnUse" color-interpolation-filters="sRGB">
<feFlood flood-opacity="0" result="BackgroundImageFix"/>
<feColorMatrix in="SourceAlpha" type="matrix" values="0 0 0 0 0 0 0 0 0 0 0 0 0 0 0 0 0 0 127 0" result="hardAlpha"/>
<feOffset dx="3.90887" dy="5.86331"/>
<feComposite in2="hardAlpha" operator="out"/>
<feColorMatrix type="matrix" values="0 0 0 0 0 0 0 0 0 0 0 0 0 0 0 0 0 0 1 0"/>
<feBlend mode="normal" in2="BackgroundImageFix" result="effect1_dropShadow_697_15701"/>
<feBlend mode="normal" in="SourceGraphic" in2="effect1_dropShadow_697_15701" result="shape"/>
</filter>
<filter id="filter5_d_697_15701" x="170.211" y="11.7392" width="18.8007" height="35.3848" filterUnits="userSpaceOnUse" color-interpolation-filters="sRGB">
<feFlood flood-opacity="0" result="BackgroundImageFix"/>
<feColorMatrix in="SourceAlpha" type="matrix" values="0 0 0 0 0 0 0 0 0 0 0 0 0 0 0 0 0 0 127 0" result="hardAlpha"/>
<feOffset dx="3.90887" dy="5.86331"/>
<feComposite in2="hardAlpha" operator="out"/>
<feColorMatrix type="matrix" values="0 0 0 0 0 0 0 0 0 0 0 0 0 0 0 0 0 0 1 0"/>
<feBlend mode="normal" in2="BackgroundImageFix" result="effect1_dropShadow_697_15701"/>
<feBlend mode="normal" in="SourceGraphic" in2="effect1_dropShadow_697_15701" result="shape"/>
</filter>
<filter id="filter6_d_697_15701" x="137.492" y="11.2148" width="30.8466" height="36.4335" filterUnits="userSpaceOnUse" color-interpolation-filters="sRGB">
<feFlood flood-opacity="0" result="BackgroundImageFix"/>
<feColorMatrix in="SourceAlpha" type="matrix" values="0 0 0 0 0 0 0 0 0 0 0 0 0 0 0 0 0 0 127 0" result="hardAlpha"/>
<feOffset dx="3.90887" dy="5.86331"/>
<feComposite in2="hardAlpha" operator="out"/>
<feColorMatrix type="matrix" values="0 0 0 0 0 0 0 0 0 0 0 0 0 0 0 0 0 0 1 0"/>
<feBlend mode="normal" in2="BackgroundImageFix" result="effect1_dropShadow_697_15701"/>
<feBlend mode="normal" in="SourceGraphic" in2="effect1_dropShadow_697_15701" result="shape"/>
</filter>
<filter id="filter7_d_697_15701" x="107.084" y="11.7392" width="21.0554" height="22.2234" filterUnits="userSpaceOnUse" color-interpolation-filters="sRGB">
<feFlood flood-opacity="0" result="BackgroundImageFix"/>
<feColorMatrix in="SourceAlpha" type="matrix" values="0 0 0 0 0 0 0 0 0 0 0 0 0 0 0 0 0 0 127 0" result="hardAlpha"/>
<feOffset dx="3.90887" dy="5.86331"/>
<feComposite in2="hardAlpha" operator="out"/>
<feColorMatrix type="matrix" values="0 0 0 0 0 0 0 0 0 0 0 0 0 0 0 0 0 0 1 0"/>
<feBlend mode="normal" in2="BackgroundImageFix" result="effect1_dropShadow_697_15701"/>
<feBlend mode="normal" in="SourceGraphic" in2="effect1_dropShadow_697_15701" result="shape"/>
</filter>
<filter id="filter8_d_697_15701" x="75.366" y="11.7392" width="31.1757" height="35.3848" filterUnits="userSpaceOnUse" color-interpolation-filters="sRGB">
<feFlood flood-opacity="0" result="BackgroundImageFix"/>
<feColorMatrix in="SourceAlpha" type="matrix" values="0 0 0 0 0 0 0 0 0 0 0 0 0 0 0 0 0 0 127 0" result="hardAlpha"/>
<feOffset dx="3.90887" dy="5.86331"/>
<feComposite in2="hardAlpha" operator="out"/>
<feColorMatrix type="matrix" values="0 0 0 0 0 0 0 0 0 0 0 0 0 0 0 0 0 0 1 0"/>
<feBlend mode="normal" in2="BackgroundImageFix" result="effect1_dropShadow_697_15701"/>
<feBlend mode="normal" in="SourceGraphic" in2="effect1_dropShadow_697_15701" result="shape"/>
</filter>
<filter id="filter9_d_697_15701" x="54.0225" y="11.7392" width="18.8007" height="35.3848" filterUnits="userSpaceOnUse" color-interpolation-filters="sRGB">
<feFlood flood-opacity="0" result="BackgroundImageFix"/>
<feColorMatrix in="SourceAlpha" type="matrix" values="0 0 0 0 0 0 0 0 0 0 0 0 0 0 0 0 0 0 127 0" result="hardAlpha"/>
<feOffset dx="3.90887" dy="5.86331"/>
<feComposite in2="hardAlpha" operator="out"/>
<feColorMatrix type="matrix" values="0 0 0 0 0 0 0 0 0 0 0 0 0 0 0 0 0 0 1 0"/>
<feBlend mode="normal" in2="BackgroundImageFix" result="effect1_dropShadow_697_15701"/>
<feBlend mode="normal" in="SourceGraphic" in2="effect1_dropShadow_697_15701" result="shape"/>
</filter>
<filter id="filter10_d_697_15701" x="9.72681" y="11.7392" width="43.8652" height="35.3848" filterUnits="userSpaceOnUse" color-interpolation-filters="sRGB">
<feFlood flood-opacity="0" result="BackgroundImageFix"/>
<feColorMatrix in="SourceAlpha" type="matrix" values="0 0 0 0 0 0 0 0 0 0 0 0 0 0 0 0 0 0 127 0" result="hardAlpha"/>
<feOffset dx="3.90887" dy="5.86331"/>
<feComposite in2="hardAlpha" operator="out"/>
<feColorMatrix type="matrix" values="0 0 0 0 0 0 0 0 0 0 0 0 0 0 0 0 0 0 1 0"/>
<feBlend mode="normal" in2="BackgroundImageFix" result="effect1_dropShadow_697_15701"/>
<feBlend mode="normal" in="SourceGraphic" in2="effect1_dropShadow_697_15701" result="shape"/>
</filter>
<linearGradient id="paint0_linear_697_15701" x1="161.966" y1="-17.7394" x2="161.966" y2="60.5303" gradientUnits="userSpaceOnUse">
<stop offset="0.376" stop-color="#25D5FF"/>
<stop offset="1" stop-color="#0008FF"/>
</linearGradient>
<linearGradient id="paint1_linear_697_15701" x1="161.966" y1="-17.7394" x2="161.966" y2="60.5303" gradientUnits="userSpaceOnUse">
<stop offset="0.376" stop-color="#25D5FF"/>
<stop offset="1" stop-color="#0008FF"/>
</linearGradient>
<linearGradient id="paint2_linear_697_15701" x1="161.966" y1="-17.7394" x2="161.966" y2="60.5303" gradientUnits="userSpaceOnUse">
<stop offset="0.376" stop-color="#25D5FF"/>
<stop offset="1" stop-color="#0008FF"/>
</linearGradient>
<linearGradient id="paint3_linear_697_15701" x1="161.966" y1="-17.7394" x2="161.966" y2="60.5303" gradientUnits="userSpaceOnUse">
<stop offset="0.376" stop-color="#25D5FF"/>
<stop offset="1" stop-color="#0008FF"/>
</linearGradient>
<linearGradient id="paint4_linear_697_15701" x1="161.966" y1="-17.7394" x2="161.966" y2="60.5303" gradientUnits="userSpaceOnUse">
<stop offset="0.376" stop-color="#25D5FF"/>
<stop offset="1" stop-color="#0008FF"/>
</linearGradient>
<linearGradient id="paint5_linear_697_15701" x1="161.966" y1="-17.7394" x2="161.966" y2="60.5303" gradientUnits="userSpaceOnUse">
<stop offset="0.376" stop-color="#25D5FF"/>
<stop offset="1" stop-color="#0008FF"/>
</linearGradient>
<linearGradient id="paint6_linear_697_15701" x1="161.966" y1="-17.7394" x2="161.966" y2="60.5303" gradientUnits="userSpaceOnUse">
<stop offset="0.376" stop-color="#25D5FF"/>
<stop offset="1" stop-color="#0008FF"/>
</linearGradient>
<linearGradient id="paint7_linear_697_15701" x1="161.966" y1="-17.7394" x2="161.966" y2="60.5303" gradientUnits="userSpaceOnUse">
<stop offset="0.376" stop-color="#25D5FF"/>
<stop offset="1" stop-color="#0008FF"/>
</linearGradient>
<linearGradient id="paint8_linear_697_15701" x1="161.966" y1="-17.7394" x2="161.966" y2="60.5303" gradientUnits="userSpaceOnUse">
<stop offset="0.376" stop-color="#25D5FF"/>
<stop offset="1" stop-color="#0008FF"/>
</linearGradient>
<linearGradient id="paint9_linear_697_15701" x1="161.966" y1="-17.7394" x2="161.966" y2="60.5303" gradientUnits="userSpaceOnUse">
<stop offset="0.376" stop-color="#25D5FF"/>
<stop offset="1" stop-color="#0008FF"/>
</linearGradient>
</defs>
</svg>
