<svg width="17" height="17" viewBox="0 0 17 17" fill="none" xmlns="http://www.w3.org/2000/svg">
<path d="M8.38977 0.226372C4.02146 0.226372 0.482178 3.76566 0.482178 8.13396C0.482178 12.5023 4.02146 16.0416 8.38977 16.0416C12.7581 16.0416 16.2974 12.5023 16.2974 8.13396C16.2974 3.76566 12.7581 0.226372 8.38977 0.226372ZM12.267 10.2097C12.4169 10.3596 12.4169 10.6019 12.267 10.7518L11.0044 12.0112C10.8545 12.1611 10.6122 12.1611 10.4623 12.0112L8.38977 9.91955L6.31403 12.0112C6.16416 12.1611 5.92183 12.1611 5.77197 12.0112L4.5125 10.7486C4.36264 10.5987 4.36264 10.3564 4.5125 10.2065L6.60418 8.13396L4.5125 6.05822C4.36264 5.90836 4.36264 5.66603 4.5125 5.51617L5.77516 4.2535C5.92502 4.10364 6.16735 4.10364 6.31721 4.2535L8.38977 6.34838L10.4655 4.25669C10.6154 4.10683 10.8577 4.10683 11.0076 4.25669L12.2702 5.51936C12.4201 5.66922 12.4201 5.91155 12.2702 6.06141L10.1754 8.13396L12.267 10.2097Z" fill="white"/>
</svg>
